<svg width="347" height="190" viewBox="0 0 347 190" fill="none" xmlns="http://www.w3.org/2000/svg">
<rect x="0.500977" y="0.234253" width="346.499" height="188.797" rx="11.1057" fill="#252525"/>
<path d="M28.5375 25.559L31.9777 33.962H32.1046L35.5448 25.559H37.0675V35.7667H35.869V28.0545H35.7703L32.5981 35.7667H31.4701L28.2978 28.0545H28.2132V35.7667H27.0148V25.559H28.5375ZM42.3828 35.9218C41.6544 35.9218 41.0199 35.7597 40.4794 35.4354C39.939 35.1111 39.523 34.6529 39.2317 34.0607C38.945 33.4686 38.8016 32.7824 38.8016 32.0023C38.8016 31.2221 38.945 30.5313 39.2317 29.9297C39.523 29.3234 39.9296 28.8535 40.4512 28.5198C40.9776 28.1814 41.5839 28.0122 42.27 28.0122C42.8481 28.0122 43.3862 28.1415 43.8844 28.4C44.3825 28.6537 44.7867 29.0673 45.0969 29.6407C45.4118 30.2093 45.5692 30.9401 45.5692 31.8331V32.3407H40.0142C40.033 32.8717 40.1434 33.3252 40.3455 33.7012C40.5476 34.0772 40.8225 34.3639 41.1703 34.5613C41.5228 34.7539 41.9269 34.8503 42.3828 34.8503C42.8152 34.8503 43.1794 34.7704 43.4755 34.6106C43.7763 34.4461 44.0042 34.2346 44.1593 33.9761H45.4564C45.3342 34.3615 45.1298 34.7022 44.8431 34.9983C44.5611 35.2897 44.2086 35.5176 43.7857 35.6821C43.3674 35.8419 42.8998 35.9218 42.3828 35.9218ZM44.3426 31.3114C44.3426 30.8837 44.2556 30.5031 44.0817 30.1694C43.9126 29.831 43.6705 29.5655 43.3556 29.3728C43.0408 29.1801 42.6789 29.0838 42.27 29.0838C41.8423 29.0838 41.4617 29.1848 41.128 29.3869C40.799 29.589 40.5382 29.8616 40.3455 30.2046C40.1575 30.543 40.0494 30.9119 40.0212 31.3114H44.3426ZM47.1483 28.1109H48.3185V29.3094H48.4172C48.5817 28.8958 48.8402 28.5762 49.1927 28.3506C49.5498 28.125 49.9775 28.0122 50.4757 28.0122C50.9644 28.0122 51.3804 28.125 51.7234 28.3506C52.0665 28.5715 52.3321 28.8911 52.52 29.3094H52.6046C52.8067 28.9052 53.1052 28.5879 53.4999 28.3577C53.8947 28.1274 54.3623 28.0122 54.9028 28.0122C55.3681 28.0122 55.7746 28.1086 56.1224 28.3013C56.4748 28.494 56.7498 28.7877 56.9471 29.1825C57.1445 29.5725 57.2432 30.0613 57.2432 30.6488V35.7667H56.0307V30.6629C56.0307 30.1318 55.885 29.7394 55.5936 29.4856C55.3023 29.2271 54.931 29.0979 54.4798 29.0979C54.132 29.0979 53.8313 29.1707 53.5775 29.3164C53.3237 29.4621 53.131 29.6618 52.9994 29.9156C52.8678 30.1694 52.802 30.4608 52.802 30.7898V35.7667H51.5754V30.536C51.5754 30.254 51.512 30.0049 51.3851 29.7887C51.2582 29.5678 51.0796 29.3986 50.8493 29.2812C50.6237 29.159 50.3676 29.0979 50.0809 29.0979C49.7754 29.0979 49.4911 29.1801 49.2279 29.3446C48.9647 29.5044 48.7532 29.7276 48.5935 30.0143C48.4384 30.301 48.3608 30.6253 48.3608 30.9871V35.7667H47.1483V28.1109ZM59.344 25.559H60.5565V29.3234H60.6552C60.8385 29.0462 60.9912 28.8323 61.1134 28.6819C61.2403 28.5269 61.4518 28.3765 61.7479 28.2308C62.044 28.0851 62.4176 28.0122 62.8688 28.0122C63.5079 28.0122 64.0742 28.1744 64.5677 28.4987C65.0612 28.8182 65.4465 29.2765 65.7238 29.8733C66.0011 30.4702 66.1397 31.1657 66.1397 31.96C66.1397 32.7542 66.0011 33.4521 65.7238 34.0537C65.4465 34.6505 65.0612 35.1111 64.5677 35.4354C64.0789 35.7597 63.5173 35.9218 62.8829 35.9218C62.4364 35.9218 62.0651 35.849 61.769 35.7033C61.4729 35.5529 61.2521 35.3931 61.1064 35.2239C60.9654 35.0547 60.815 34.8456 60.6552 34.5965H60.5142V35.7667H59.344V25.559ZM60.5283 31.9318C60.5283 32.5098 60.6129 33.0174 60.7821 33.4545C60.9513 33.8915 61.198 34.2323 61.5223 34.4767C61.8513 34.7163 62.2437 34.8362 62.6996 34.8362C63.1695 34.8362 63.5714 34.7116 63.905 34.4626C64.2387 34.2088 64.4901 33.8633 64.6593 33.4263C64.8285 32.9845 64.9131 32.4863 64.9131 31.9318C64.9131 31.3913 64.8285 30.9072 64.6593 30.4796C64.4948 30.0519 64.2458 29.7159 63.9121 29.4715C63.5831 29.2224 63.1789 29.0979 62.6996 29.0979C62.239 29.0979 61.8442 29.2154 61.5152 29.4503C61.191 29.6853 60.9442 30.0167 60.775 30.4443C60.6106 30.8673 60.5283 31.3631 60.5283 31.9318ZM70.9334 35.9218C70.205 35.9218 69.5705 35.7597 69.03 35.4354C68.4896 35.1111 68.0737 34.6529 67.7823 34.0607C67.4956 33.4686 67.3523 32.7824 67.3523 32.0023C67.3523 31.2221 67.4956 30.5313 67.7823 29.9297C68.0737 29.3234 68.4802 28.8535 69.0018 28.5198C69.5282 28.1814 70.1345 28.0122 70.8206 28.0122C71.3987 28.0122 71.9368 28.1415 72.435 28.4C72.9331 28.6537 73.3373 29.0673 73.6475 29.6407C73.9624 30.2093 74.1198 30.9401 74.1198 31.8331V32.3407H68.5648C68.5836 32.8717 68.694 33.3252 68.8961 33.7012C69.0982 34.0772 69.3731 34.3639 69.7209 34.5613C70.0734 34.7539 70.4776 34.8503 70.9334 34.8503C71.3658 34.8503 71.73 34.7704 72.0261 34.6106C72.3269 34.4461 72.5548 34.2346 72.7099 33.9761H74.007C73.8848 34.3615 73.6804 34.7022 73.3937 34.9983C73.1117 35.2897 72.7593 35.5176 72.3363 35.6821C71.918 35.8419 71.4504 35.9218 70.9334 35.9218ZM72.8932 31.3114C72.8932 30.8837 72.8062 30.5031 72.6324 30.1694C72.4632 29.831 72.2211 29.5655 71.9063 29.3728C71.5914 29.1801 71.2295 29.0838 70.8206 29.0838C70.393 29.0838 70.0123 29.1848 69.6786 29.3869C69.3496 29.589 69.0888 29.8616 68.8961 30.2046C68.7081 30.543 68.6 30.9119 68.5718 31.3114H72.8932ZM75.6989 28.1109H76.8691V29.2812H76.9537C77.0947 28.8911 77.3461 28.5785 77.708 28.3436C78.0699 28.1039 78.4764 27.984 78.9276 27.984C79.1626 27.984 79.3741 27.9934 79.5621 28.0122V29.2389C79.5104 29.2201 79.4093 29.2013 79.2589 29.1825C79.1132 29.1637 78.9699 29.1543 78.8289 29.1543C78.467 29.1543 78.1404 29.2318 77.849 29.3869C77.5576 29.542 77.3273 29.7558 77.1582 30.0284C76.9937 30.301 76.9114 30.6065 76.9114 30.9448V35.7667H75.6989V28.1109ZM85.0043 30.0989C84.915 29.7652 84.7411 29.5067 84.4826 29.3234C84.2288 29.1355 83.8858 29.0415 83.4534 29.0415C83.1432 29.0415 82.8636 29.0932 82.6145 29.1966C82.3701 29.2953 82.1774 29.4339 82.0364 29.6125C81.9001 29.7864 81.832 29.9814 81.832 30.1976C81.832 30.4514 81.9377 30.6676 82.1492 30.8461C82.3654 31.0247 82.6967 31.1657 83.1432 31.2691L84.2852 31.5511C84.9714 31.7156 85.4837 31.9694 85.822 32.3125C86.1604 32.6508 86.3296 33.0879 86.3296 33.6237C86.3296 34.0701 86.2098 34.4673 85.9701 34.815C85.7351 35.1581 85.392 35.4283 84.9408 35.6257C84.4897 35.8231 83.9516 35.9218 83.3265 35.9218C82.4665 35.9218 81.785 35.7385 81.2821 35.3719C80.7793 35.0007 80.4785 34.4649 80.3798 33.7647H81.6487C81.7192 34.1359 81.8907 34.4132 82.1633 34.5965C82.4359 34.7751 82.8142 34.8644 83.2983 34.8644C83.8435 34.8644 84.2758 34.7586 84.5954 34.5472C84.915 34.3357 85.0748 34.0513 85.0748 33.6942C85.0748 33.4216 84.9737 33.196 84.7717 33.0174C84.5696 32.8341 84.2523 32.6931 83.82 32.5944L82.6638 32.3266C81.9965 32.1715 81.4889 31.9177 81.1411 31.5652C80.7934 31.2127 80.6195 30.7804 80.6195 30.2681C80.6195 29.8357 80.737 29.448 80.972 29.1049C81.2116 28.7618 81.5453 28.494 81.973 28.3013C82.4054 28.1086 82.8988 28.0122 83.4534 28.0122C83.9704 28.0122 84.4262 28.0992 84.821 28.2731C85.2158 28.447 85.5283 28.6913 85.7586 29.0062C85.9936 29.3211 86.1369 29.6853 86.1886 30.0989H85.0043ZM89.1212 35.7667H87.9087V25.559H89.1212V29.3094H89.2199C89.6053 28.4446 90.3572 28.0122 91.4758 28.0122C92.2841 28.0122 92.9209 28.2566 93.3862 28.7454C93.8515 29.2295 94.0841 29.9485 94.0841 30.9025V35.7667H92.8716V30.9871C92.8716 30.3903 92.7141 29.9274 92.3993 29.5984C92.0891 29.2647 91.6591 29.0979 91.1092 29.0979C90.7238 29.0979 90.3807 29.1801 90.08 29.3446C89.7839 29.5044 89.5489 29.7417 89.375 30.0566C89.2058 30.3668 89.1212 30.7381 89.1212 31.1704V35.7667ZM96.0298 28.1109H97.2423V35.7667H96.0298V28.1109ZM96.636 26.842C96.401 26.842 96.2013 26.7645 96.0368 26.6094C95.8723 26.4543 95.7901 26.264 95.7901 26.0384C95.7901 25.8128 95.8723 25.6224 96.0368 25.4674C96.2013 25.3123 96.401 25.2347 96.636 25.2347C96.871 25.2347 97.0731 25.3123 97.2423 25.4674C97.4115 25.6224 97.4961 25.8128 97.4961 26.0384C97.4961 26.264 97.4115 26.4543 97.2423 26.6094C97.0731 26.7645 96.871 26.842 96.636 26.842ZM99.1739 28.1109H100.344V29.3234H100.485C100.635 29.0791 100.781 28.8746 100.922 28.7101C101.063 28.541 101.282 28.3835 101.578 28.2378C101.874 28.0874 102.247 28.0122 102.699 28.0122C103.338 28.0122 103.902 28.1744 104.391 28.4987C104.884 28.8182 105.267 29.2765 105.54 29.8733C105.817 30.4702 105.956 31.1657 105.956 31.96C105.956 32.7542 105.817 33.4521 105.54 34.0537C105.267 34.6505 104.884 35.1111 104.391 35.4354C103.902 35.7597 103.342 35.9218 102.713 35.9218C102.266 35.9218 101.893 35.849 101.592 35.7033C101.296 35.5529 101.073 35.3907 100.922 35.2169C100.772 35.0383 100.626 34.8315 100.485 34.5965H100.386V38.6429H99.1739V28.1109ZM100.358 31.9318C100.358 32.5098 100.443 33.0174 100.612 33.4545C100.781 33.8915 101.03 34.2323 101.359 34.4767C101.688 34.7163 102.083 34.8362 102.544 34.8362C103.014 34.8362 103.413 34.7116 103.742 34.4626C104.076 34.2088 104.325 33.8633 104.489 33.4263C104.658 32.9845 104.743 32.4863 104.743 31.9318C104.743 31.3913 104.658 30.9072 104.489 30.4796C104.325 30.0519 104.078 29.7159 103.749 29.4715C103.42 29.2224 103.018 29.0979 102.544 29.0979C102.074 29.0979 101.674 29.2154 101.345 29.4503C101.021 29.6853 100.774 30.0167 100.605 30.4443C100.44 30.8673 100.358 31.3631 100.358 31.9318Z" fill="#707070"/>
<path d="M36.0946 143.73H38.1954V144.661H36.0946V151.329H34.9949V138.767H36.0946V143.73ZM32.7954 140.91H28.0441V147.255C29.2143 147.255 30.2365 147.222 31.1106 147.156C31.9847 147.09 32.8753 146.973 33.7824 146.804L33.9234 147.762C32.9975 147.932 32.0881 148.044 31.1952 148.101C30.3023 148.157 29.2143 148.185 27.9313 148.185H26.9443V139.994H32.7954V140.91ZM44.5823 139.049C45.4893 139.049 46.2742 139.143 46.9368 139.331C47.6042 139.519 48.1164 139.792 48.4736 140.149C48.8308 140.506 49.0094 140.934 49.0094 141.432C49.0094 141.921 48.8308 142.341 48.4736 142.694C48.1164 143.042 47.6042 143.309 46.9368 143.497C46.2742 143.681 45.4893 143.772 44.5823 143.772C43.6752 143.772 42.888 143.681 42.2207 143.497C41.5533 143.309 41.0387 143.042 40.6768 142.694C40.3196 142.341 40.1411 141.921 40.1411 141.432C40.1411 140.934 40.3196 140.506 40.6768 140.149C41.0387 139.792 41.5533 139.519 42.2207 139.331C42.888 139.143 43.6752 139.049 44.5823 139.049ZM44.5823 139.937C43.9102 139.937 43.3251 139.998 42.8269 140.121C42.3288 140.238 41.9457 140.41 41.6779 140.635C41.41 140.861 41.2784 141.126 41.2831 141.432C41.2784 141.733 41.4076 141.993 41.6708 142.214C41.9387 142.431 42.3217 142.597 42.8199 142.715C43.318 142.832 43.9055 142.893 44.5823 142.898C45.2496 142.893 45.83 142.832 46.3235 142.715C46.8217 142.597 47.2047 142.431 47.4726 142.214C47.7452 141.993 47.8814 141.733 47.8814 141.432C47.8814 141.126 47.7452 140.861 47.4726 140.635C47.2047 140.41 46.8217 140.238 46.3235 140.121C45.8253 139.998 45.2449 139.937 44.5823 139.937ZM48.8966 151.132H40.268V147.015H48.8966V151.132ZM41.3677 150.23H47.811V147.903H41.3677V150.23ZM50.2924 145.774H38.8721V144.858H50.2924V145.774ZM57.497 140.403H53.0135V143.702H53.4647C54.5832 143.702 55.5325 143.671 56.3127 143.61C57.0975 143.549 57.8824 143.439 58.6672 143.279L58.8082 144.167C58.014 144.336 57.2197 144.451 56.4255 144.513C55.6359 144.574 54.649 144.604 53.4647 144.604H52.9007H51.9279V139.5H57.497V140.403ZM61.1487 141.432H63.0379V142.348H61.1487V145.098H60.0489V138.767H61.1487V141.432ZM61.1487 148.806H54.2683V150.23H61.6139V151.132H53.1827V147.932H60.0489V146.62H53.1545V145.718H61.1487V148.806ZM78.1944 151.301H77.1229V138.767H78.1944V151.301ZM75.6989 150.667H74.6415V146.55H72.6394C72.4185 147.18 72.106 147.668 71.7018 148.016C71.2976 148.364 70.83 148.538 70.299 148.538C69.7585 148.538 69.2838 148.362 68.875 148.009C68.4708 147.652 68.1583 147.144 67.9374 146.486C67.7165 145.828 67.606 145.06 67.606 144.181C67.606 143.302 67.7165 142.534 67.9374 141.876C68.1583 141.218 68.4708 140.713 68.875 140.36C69.2838 140.003 69.7585 139.825 70.299 139.825C70.83 139.825 71.2976 139.998 71.7018 140.346C72.106 140.694 72.4185 141.183 72.6394 141.813H74.6415V139.035H75.6989V150.667ZM70.299 140.868C69.9606 140.868 69.6645 141.002 69.4107 141.27C69.1616 141.538 68.969 141.921 68.8327 142.419C68.7011 142.917 68.6353 143.504 68.6353 144.181C68.6353 144.853 68.7011 145.438 68.8327 145.937C68.969 146.435 69.1616 146.818 69.4107 147.086C69.6645 147.353 69.9606 147.485 70.299 147.48C70.6326 147.485 70.9264 147.353 71.1802 147.086C71.4339 146.818 71.629 146.435 71.7653 145.937C71.9063 145.438 71.9768 144.853 71.9768 144.181C71.9768 143.509 71.9063 142.924 71.7653 142.426C71.629 141.923 71.4339 141.538 71.1802 141.27C70.9311 141.002 70.6373 140.868 70.299 140.868ZM72.8791 142.729C72.9637 143.171 73.006 143.655 73.006 144.181C73.006 144.689 72.966 145.168 72.8861 145.619H74.6415V142.729H72.8791ZM84.116 140.797C84.116 141.357 84.2476 141.897 84.5108 142.419C84.7787 142.936 85.1476 143.392 85.6176 143.786C86.0923 144.181 86.6304 144.482 87.2319 144.689L86.6257 145.563C85.9348 145.309 85.3262 144.935 84.7999 144.442C84.2735 143.944 83.8717 143.368 83.5944 142.715C83.3265 143.457 82.9223 144.106 82.3819 144.661C81.8414 145.215 81.2069 145.633 80.4785 145.915L79.8863 145.027C80.5067 144.792 81.0519 144.458 81.5218 144.026C81.9965 143.594 82.3654 143.093 82.6286 142.525C82.8918 141.951 83.0257 141.347 83.0304 140.713V139.416H84.116V140.797ZM89.7275 142.038H91.6168V142.969H89.7275V146.395H88.6277V138.767H89.7275V142.038ZM85.7092 146.719C86.5646 146.719 87.3024 146.808 87.9228 146.987C88.5432 147.165 89.0178 147.426 89.3468 147.769C89.6758 148.108 89.8403 148.514 89.8403 148.989C89.8403 149.473 89.6758 149.887 89.3468 150.23C89.0178 150.573 88.5432 150.831 87.9228 151.005C87.3071 151.184 86.5693 151.273 85.7092 151.273C84.8492 151.273 84.1066 151.184 83.4816 151.005C82.8612 150.827 82.3842 150.566 82.0505 150.223C81.7169 149.884 81.55 149.473 81.55 148.989C81.55 148.514 81.7169 148.108 82.0505 147.769C82.3842 147.426 82.8636 147.165 83.4886 146.987C84.1137 146.808 84.8539 146.719 85.7092 146.719ZM85.7092 147.607C85.0842 147.607 84.5414 147.664 84.0808 147.776C83.6202 147.885 83.2678 148.044 83.0234 148.256C82.779 148.463 82.6591 148.707 82.6638 148.989C82.6591 149.28 82.779 149.532 83.0234 149.743C83.2678 149.955 83.6179 150.115 84.0738 150.223C84.5343 150.335 85.0795 150.394 85.7092 150.399C86.668 150.389 87.4176 150.263 87.958 150.018C88.4985 149.774 88.7687 149.431 88.7687 148.989C88.7687 148.702 88.6465 148.456 88.4022 148.249C88.1578 148.042 87.8053 147.885 87.3447 147.776C86.8842 147.664 86.339 147.607 85.7092 147.607ZM107.464 145.662H96.0298V144.731H107.464V145.662ZM106.125 143.533H97.482V139.275H106.04V140.205H98.5676V142.63H106.125V143.533ZM101.74 146.761C102.633 146.761 103.401 146.851 104.045 147.029C104.694 147.203 105.189 147.459 105.533 147.798C105.876 148.136 106.049 148.542 106.054 149.017C106.049 149.497 105.876 149.905 105.533 150.244C105.189 150.582 104.696 150.838 104.052 151.012C103.408 151.186 102.638 151.273 101.74 151.273C100.838 151.273 100.062 151.186 99.4135 151.012C98.765 150.838 98.2692 150.582 97.9261 150.244C97.583 149.905 97.4115 149.497 97.4115 149.017C97.4115 148.542 97.583 148.136 97.9261 147.798C98.2692 147.459 98.765 147.203 99.4135 147.029C100.062 146.851 100.838 146.761 101.74 146.761ZM101.74 147.621C101.068 147.626 100.492 147.685 100.013 147.798C99.5334 147.906 99.1668 148.065 98.913 148.277C98.6592 148.484 98.5347 148.73 98.5394 149.017C98.5347 149.459 98.812 149.8 99.3712 150.039C99.9352 150.279 100.725 150.399 101.74 150.399C102.741 150.399 103.523 150.279 104.087 150.039C104.656 149.8 104.94 149.459 104.94 149.017C104.94 148.73 104.811 148.484 104.553 148.277C104.299 148.065 103.932 147.906 103.453 147.798C102.974 147.685 102.403 147.626 101.74 147.621ZM111.102 147.607H117.376V145.944H118.475V151.132H110.002V145.944H111.102V147.607ZM117.376 150.23V148.481H111.102V150.23H117.376ZM118.475 140.262C118.475 140.924 118.454 141.524 118.412 142.059C118.374 142.595 118.28 143.208 118.13 143.899H119.984V144.816H108.507V143.899H117.044C117.19 143.213 117.282 142.602 117.319 142.066C117.357 141.531 117.376 140.929 117.376 140.262H109.96V139.345H118.475V140.262Z" fill="black"/>
<rect x="286.872" y="136.605" width="45.5335" height="23.322" rx="11.661" fill="#404040"/>
<path d="M297.166 142.84H299.281V151.299H303.68V153.047H297.166V142.84ZM308.459 153.047H306.119L303.44 145.392H305.639L307.247 150.89H307.331L308.939 145.392H311.152L308.459 153.047ZM312.915 153.174C312.698 153.174 312.499 153.12 312.315 153.012C312.132 152.904 311.986 152.761 311.878 152.582C311.775 152.399 311.726 152.202 311.73 151.99C311.726 151.779 311.775 151.584 311.878 151.405C311.986 151.226 312.132 151.085 312.315 150.982C312.499 150.874 312.698 150.82 312.915 150.82C313.117 150.82 313.307 150.874 313.486 150.982C313.669 151.085 313.815 151.226 313.923 151.405C314.031 151.584 314.085 151.779 314.085 151.99C314.085 152.202 314.031 152.399 313.923 152.582C313.815 152.761 313.669 152.904 313.486 153.012C313.307 153.12 313.117 153.174 312.915 153.174ZM315.734 151.511L319.4 148.141C319.762 147.793 320.042 147.504 320.239 147.274C320.441 147.044 320.596 146.816 320.704 146.59C320.812 146.36 320.866 146.115 320.866 145.857C320.866 145.561 320.796 145.302 320.655 145.082C320.519 144.861 320.326 144.691 320.077 144.574C319.833 144.452 319.555 144.391 319.245 144.391C318.766 144.391 318.383 144.534 318.096 144.821C317.809 145.103 317.666 145.486 317.666 145.97H315.65C315.645 145.312 315.793 144.736 316.094 144.243C316.399 143.749 316.827 143.368 317.377 143.101C317.927 142.833 318.559 142.699 319.273 142.699C319.992 142.699 320.627 142.828 321.177 143.086C321.727 143.34 322.152 143.695 322.453 144.151C322.758 144.607 322.911 145.129 322.911 145.716C322.911 146.115 322.833 146.501 322.678 146.872C322.523 147.239 322.253 147.65 321.867 148.106C321.487 148.557 320.946 149.1 320.246 149.734L318.695 151.243V151.299H323.052V153.047H315.749L315.734 151.511Z" fill="#262626"/>
<path d="M27.4747 53.0209H31.379V68.6384H39.5001V71.866H27.4747V53.0209ZM48.3239 71.866H44.0031L39.0576 57.7322H43.1181L46.0854 67.8835H46.2416L49.2089 57.7322H53.2955L48.3239 71.866ZM56.5491 72.1002C56.15 72.1002 55.7813 72.0005 55.4429 71.8009C55.1045 71.6013 54.8355 71.3367 54.636 71.007C54.4451 70.6686 54.354 70.3042 54.3627 69.9138C54.354 69.5234 54.4451 69.1633 54.636 68.8336C54.8355 68.5039 55.1045 68.2436 55.4429 68.0527C55.7813 67.8532 56.15 67.7534 56.5491 67.7534C56.9222 67.7534 57.2736 67.8532 57.6033 68.0527C57.9417 68.2436 58.2106 68.5039 58.4102 68.8336C58.6098 69.1633 58.7095 69.5234 58.7095 69.9138C58.7095 70.3042 58.6098 70.6686 58.4102 71.007C58.2106 71.3367 57.9417 71.6013 57.6033 71.8009C57.2736 72.0005 56.9222 72.1002 56.5491 72.1002ZM68.1581 72.1263C66.7959 72.1263 65.5725 71.892 64.488 71.4235C63.4121 70.9463 62.5618 70.2869 61.9371 69.4453C61.3211 68.595 61.0001 67.6319 60.9741 66.556H64.9305C64.9565 67.0159 65.1127 67.4237 65.399 67.7794C65.6853 68.1351 66.0714 68.4128 66.5573 68.6123C67.0432 68.8032 67.5854 68.8987 68.1841 68.8987C68.8001 68.8987 69.3511 68.7902 69.8369 68.5733C70.3315 68.3477 70.7133 68.0397 70.9822 67.6493C71.2599 67.2588 71.3944 66.8163 71.3857 66.3218C71.3944 65.8099 71.2512 65.3544 70.9562 64.9553C70.6699 64.5561 70.2578 64.2481 69.7198 64.0312C69.1819 63.8056 68.5485 63.6928 67.8197 63.6928H66.0758V60.8036H67.8197C68.427 60.8036 68.9693 60.6995 69.4465 60.4913C69.9237 60.283 70.2968 59.988 70.5658 59.6063C70.8347 59.2245 70.9692 58.7907 70.9692 58.3048C70.9692 57.8276 70.8521 57.4068 70.6178 57.0424C70.3922 56.678 70.0712 56.396 69.6547 56.1965C69.2383 55.9882 68.7567 55.8841 68.2101 55.8841C67.6548 55.8841 67.1429 55.9839 66.6744 56.1835C66.2146 56.3743 65.8415 56.652 65.5552 57.0164C65.2775 57.3721 65.13 57.7843 65.1127 58.2528H61.3645C61.3818 57.1856 61.6899 56.2355 62.2885 55.4026C62.8872 54.5697 63.7028 53.9233 64.7353 53.4634C65.7764 52.9949 66.9347 52.7606 68.2101 52.7606C69.4942 52.7606 70.6308 52.9949 71.6199 53.4634C72.6177 53.9233 73.3899 54.561 73.9365 55.3766C74.4831 56.1835 74.7521 57.0815 74.7434 58.0706C74.7521 58.756 74.6046 59.3807 74.3009 59.9447C74.0059 60.4999 73.5851 60.9598 73.0385 61.3242C72.5006 61.6886 71.8802 61.9315 71.1774 62.053V62.2092C72.0885 62.322 72.865 62.5736 73.507 62.964C74.1491 63.3545 74.635 63.862 74.9647 64.4867C75.2944 65.1028 75.4549 65.8012 75.4462 66.5821C75.4549 67.6406 75.1469 68.595 74.5222 69.4453C73.8975 70.2869 73.0298 70.9463 71.9193 71.4235C70.8087 71.892 69.555 72.1263 68.1581 72.1263ZM83.3851 71.866L89.9184 53.0209H94.942L101.449 71.866H97.2585L95.84 67.5191H89.0204L87.6018 71.866H83.3851ZM94.8509 64.4737L92.4952 57.2637H92.3651L90.0095 64.4737H94.8509ZM103.506 57.7322H107.176V60.205H107.332C107.635 59.3807 108.13 58.7343 108.815 58.2658C109.501 57.7886 110.316 57.55 111.262 57.55C112.234 57.55 113.058 57.7886 113.735 58.2658C114.42 58.7343 114.88 59.3807 115.114 60.205H115.245C115.548 59.3894 116.078 58.743 116.832 58.2658C117.587 57.7886 118.481 57.55 119.513 57.55C120.39 57.55 121.162 57.7409 121.83 58.1226C122.507 58.4957 123.032 59.0467 123.405 59.7755C123.778 60.4956 123.964 61.3589 123.964 62.3654V71.866H120.112V63.1202C120.112 62.3393 119.908 61.745 119.5 61.3372C119.101 60.9294 118.568 60.7255 117.9 60.7255C117.179 60.7255 116.615 60.9555 116.208 61.4153C115.809 61.8665 115.609 62.4695 115.609 63.2243V71.866H111.861V63.0161C111.861 62.322 111.661 61.7667 111.262 61.3502C110.863 60.9338 110.334 60.7255 109.674 60.7255C109.241 60.7255 108.846 60.8383 108.49 61.0639C108.143 61.2808 107.865 61.5888 107.657 61.9879C107.458 62.3871 107.358 62.8512 107.358 63.3805V71.866H103.506V57.7322ZM127.01 53.0209H130.862V60.1008H130.966C131.305 59.3807 131.795 58.7777 132.437 58.2918C133.079 57.7973 133.933 57.55 135.001 57.55C136.068 57.55 137.035 57.8276 137.903 58.3829C138.779 58.9295 139.473 59.7494 139.985 60.8427C140.497 61.9272 140.753 63.2504 140.753 64.8121C140.753 66.3391 140.501 67.6536 139.998 68.7555C139.495 69.8487 138.81 70.6816 137.942 71.2543C137.074 71.8182 136.094 72.1002 135.001 72.1002C133.951 72.1002 133.096 71.8616 132.437 71.3844C131.786 70.8986 131.296 70.3042 130.966 69.6014H130.81V71.866H127.01V53.0209ZM130.784 64.7861C130.784 65.6363 130.901 66.3825 131.135 67.0246C131.37 67.6579 131.712 68.1525 132.163 68.5082C132.615 68.8553 133.153 69.0288 133.777 69.0288C134.74 69.0288 135.482 68.6427 136.003 67.8705C136.532 67.0983 136.797 66.0702 136.797 64.7861C136.797 63.5193 136.532 62.5085 136.003 61.7537C135.482 60.9988 134.74 60.6214 133.777 60.6214C132.823 60.6214 132.085 60.9945 131.565 61.7407C131.044 62.4782 130.784 63.4933 130.784 64.7861ZM142.549 67.9096C142.549 66.4519 143.039 65.3847 144.02 64.708C145 64.0312 146.263 63.6495 147.807 63.5627C148.761 63.502 149.933 63.4412 151.321 63.3805V62.2352C151.304 61.6452 151.1 61.1854 150.709 60.8557C150.319 60.526 149.768 60.3611 149.056 60.3611C148.414 60.3611 147.889 60.4999 147.482 60.7776C147.074 61.0552 146.818 61.437 146.714 61.9229H143.044C143.122 61.0899 143.408 60.3438 143.903 59.6844C144.406 59.025 145.104 58.5044 145.998 58.1226C146.892 57.7409 147.946 57.55 149.16 57.55C150.236 57.55 151.225 57.7192 152.128 58.0576C153.039 58.3959 153.768 58.9252 154.314 59.6453C154.87 60.3568 155.147 61.2548 155.147 62.3393V71.866H151.503V69.9138H151.399C151.026 70.5992 150.492 71.1415 149.798 71.5406C149.113 71.931 148.267 72.1263 147.26 72.1263C146.341 72.1263 145.525 71.9701 144.814 71.6577C144.111 71.3367 143.556 70.8595 143.148 70.2261C142.749 69.5928 142.549 68.8206 142.549 67.9096ZM146.245 67.8054C146.245 68.3347 146.436 68.7468 146.818 69.0418C147.208 69.3281 147.72 69.4713 148.354 69.4713C148.926 69.4713 149.438 69.3542 149.889 69.1199C150.349 68.8856 150.705 68.5646 150.956 68.1568C151.208 67.749 151.33 67.3022 151.321 66.8163V65.7882C150.913 65.7969 150.41 65.8186 149.811 65.8533C149.213 65.888 148.753 65.9227 148.432 65.9574C147.755 66.0268 147.221 66.2177 146.831 66.53C146.44 66.8424 146.245 67.2675 146.245 67.8054ZM166.157 61.9229C166.079 61.4283 165.832 61.0335 165.416 60.7385C164.999 60.4349 164.474 60.283 163.841 60.283C163.424 60.283 163.047 60.3481 162.709 60.4783C162.379 60.5997 162.119 60.7733 161.928 60.9988C161.737 61.2157 161.646 61.463 161.654 61.7407C161.628 62.4087 162.236 62.8773 163.476 63.1462L166.001 63.6668C167.372 63.9531 168.392 64.4086 169.06 65.0333C169.736 65.658 170.079 66.478 170.088 67.4931C170.079 68.4128 169.81 69.224 169.281 69.9268C168.76 70.6296 168.027 71.1762 167.081 71.5666C166.136 71.9571 165.047 72.1523 163.815 72.1523C162.557 72.1523 161.468 71.9744 160.548 71.6187C159.628 71.2543 158.904 70.738 158.375 70.07C157.854 69.3932 157.542 68.595 157.438 67.6753H161.316C161.403 68.2306 161.663 68.6514 162.097 68.9377C162.531 69.224 163.103 69.3672 163.815 69.3672C164.518 69.3672 165.082 69.2327 165.507 68.9637C165.941 68.6948 166.157 68.3347 166.157 67.8835C166.157 67.5191 166.001 67.2241 165.689 66.9985C165.385 66.7643 164.899 66.5734 164.231 66.4259L161.889 65.9574C160.553 65.6971 159.537 65.2242 158.843 64.5388C158.149 63.8534 157.811 62.9901 157.828 61.9489C157.819 61.0552 158.058 60.2787 158.544 59.6193C159.03 58.9512 159.724 58.4393 160.626 58.0836C161.529 57.7279 162.583 57.55 163.789 57.55C164.96 57.55 165.984 57.7279 166.86 58.0836C167.737 58.4393 168.422 58.9469 168.917 59.6063C169.42 60.257 169.706 61.0292 169.775 61.9229H166.157ZM180.525 61.9229C180.447 61.4283 180.2 61.0335 179.784 60.7385C179.367 60.4349 178.842 60.283 178.209 60.283C177.792 60.283 177.415 60.3481 177.077 60.4783C176.747 60.5997 176.487 60.7733 176.296 60.9988C176.105 61.2157 176.014 61.463 176.022 61.7407C175.996 62.4087 176.604 62.8773 177.844 63.1462L180.369 63.6668C181.74 63.9531 182.76 64.4086 183.428 65.0333C184.104 65.658 184.447 66.478 184.456 67.4931C184.447 68.4128 184.178 69.224 183.649 69.9268C183.128 70.6296 182.395 71.1762 181.449 71.5666C180.504 71.9571 179.415 72.1523 178.183 72.1523C176.925 72.1523 175.836 71.9744 174.916 71.6187C173.997 71.2543 173.272 70.738 172.743 70.07C172.222 69.3932 171.91 68.595 171.806 67.6753H175.684C175.771 68.2306 176.031 68.6514 176.465 68.9377C176.899 69.224 177.471 69.3672 178.183 69.3672C178.886 69.3672 179.45 69.2327 179.875 68.9637C180.309 68.6948 180.525 68.3347 180.525 67.8835C180.525 67.5191 180.369 67.2241 180.057 66.9985C179.753 66.7643 179.267 66.5734 178.599 66.4259L176.257 65.9574C174.921 65.6971 173.905 65.2242 173.211 64.5388C172.517 63.8534 172.179 62.9901 172.196 61.9489C172.187 61.0552 172.426 60.2787 172.912 59.6193C173.398 58.9512 174.092 58.4393 174.994 58.0836C175.897 57.7279 176.951 57.55 178.157 57.55C179.328 57.55 180.352 57.7279 181.228 58.0836C182.105 58.4393 182.79 58.9469 183.285 59.6063C183.788 60.257 184.074 61.0292 184.144 61.9229H180.525ZM186.148 67.9096C186.148 66.4519 186.638 65.3847 187.618 64.708C188.599 64.0312 189.861 63.6495 191.406 63.5627C192.36 63.502 193.531 63.4412 194.92 63.3805V62.2352C194.902 61.6452 194.698 61.1854 194.308 60.8557C193.917 60.526 193.366 60.3611 192.655 60.3611C192.013 60.3611 191.488 60.4999 191.08 60.7776C190.672 61.0552 190.417 61.437 190.312 61.9229H186.642C186.72 61.0899 187.007 60.3438 187.501 59.6844C188.004 59.025 188.703 58.5044 189.597 58.1226C190.49 57.7409 191.544 57.55 192.759 57.55C193.835 57.55 194.824 57.7192 195.726 58.0576C196.637 58.3959 197.366 58.9252 197.913 59.6453C198.468 60.3568 198.746 61.2548 198.746 62.3393V71.866H195.102V69.9138H194.998C194.625 70.5992 194.091 71.1415 193.397 71.5406C192.711 71.931 191.865 72.1263 190.859 72.1263C189.939 72.1263 189.124 71.9701 188.412 71.6577C187.709 71.3367 187.154 70.8595 186.746 70.2261C186.347 69.5928 186.148 68.8206 186.148 67.9096ZM189.844 67.8054C189.844 68.3347 190.035 68.7468 190.417 69.0418C190.807 69.3281 191.319 69.4713 191.952 69.4713C192.525 69.4713 193.037 69.3542 193.488 69.1199C193.948 68.8856 194.304 68.5646 194.555 68.1568C194.807 67.749 194.928 67.3022 194.92 66.8163V65.7882C194.512 65.7969 194.009 65.8186 193.41 65.8533C192.811 65.888 192.351 65.9227 192.03 65.9574C191.354 66.0268 190.82 66.2177 190.43 66.53C190.039 66.8424 189.844 67.2675 189.844 67.8054ZM206.893 72.1002C205.8 72.1002 204.819 71.8182 203.952 71.2543C203.084 70.6816 202.399 69.8487 201.895 68.7555C201.392 67.6536 201.14 66.3391 201.14 64.8121C201.14 63.2504 201.396 61.9272 201.908 60.8427C202.42 59.7494 203.11 58.9295 203.978 58.3829C204.854 57.8276 205.826 57.55 206.893 57.55C207.96 57.55 208.815 57.7973 209.457 58.2918C210.099 58.7864 210.58 59.3894 210.901 60.1008H211.032V53.0209H214.884V71.866H211.084V69.6014H210.901C210.572 70.3042 210.081 70.8986 209.431 71.3844C208.78 71.8616 207.934 72.1002 206.893 72.1002ZM208.09 69.0288C208.724 69.0288 209.266 68.8553 209.717 68.5082C210.168 68.1525 210.511 67.6579 210.745 67.0246C210.988 66.3825 211.11 65.6363 211.11 64.7861C211.11 63.502 210.845 62.4868 210.316 61.7407C209.786 60.9945 209.045 60.6214 208.09 60.6214C207.136 60.6214 206.398 60.9988 205.878 61.7537C205.357 62.5085 205.097 63.5193 205.097 64.7861C205.097 66.0702 205.357 67.0983 205.878 67.8705C206.398 68.6427 207.136 69.0288 208.09 69.0288ZM224.332 72.1523C222.927 72.1523 221.703 71.8486 220.662 71.2413C219.621 70.6339 218.819 69.7793 218.255 68.6774C217.691 67.5668 217.409 66.2871 217.409 64.8381C217.409 63.3892 217.686 62.1138 218.242 61.0119C218.806 59.91 219.608 59.0597 220.649 58.461C221.699 57.8537 222.927 57.55 224.332 57.55C225.738 57.55 226.966 57.8537 228.015 58.461C229.065 59.0597 229.872 59.91 230.436 61.0119C231 62.1138 231.282 63.3892 231.282 64.8381C231.282 66.2871 231 67.5668 230.436 68.6774C229.872 69.7793 229.065 70.6339 228.015 71.2413C226.966 71.8486 225.738 72.1523 224.332 72.1523ZM224.358 69.1589C225 69.1589 225.547 68.9767 225.998 68.6123C226.449 68.2393 226.788 67.7273 227.013 67.0766C227.239 66.4259 227.352 65.6797 227.352 64.8381C227.352 63.9965 227.239 63.2504 227.013 62.5996C226.788 61.9402 226.449 61.424 225.998 61.0509C225.547 60.6778 225 60.4913 224.358 60.4913C223.708 60.4913 223.152 60.6778 222.693 61.0509C222.241 61.424 221.899 61.9402 221.664 62.5996C221.43 63.2504 221.313 63.9965 221.313 64.8381C221.313 65.6711 221.43 66.4172 221.664 67.0766C221.899 67.7273 222.241 68.2393 222.693 68.6123C223.152 68.9767 223.708 69.1589 224.358 69.1589ZM233.703 57.7322H237.425V60.1789H237.581C237.833 59.32 238.262 58.6649 238.87 58.2137C239.477 57.7539 240.184 57.524 240.991 57.524C241.433 57.524 241.841 57.5673 242.214 57.6541V61.0899C242.023 61.0379 241.767 60.9902 241.446 60.9468C241.125 60.9034 240.835 60.8817 240.574 60.8817C240.002 60.8817 239.486 61.0075 239.026 61.2591C238.566 61.5107 238.206 61.8621 237.946 62.3133C237.685 62.7558 237.555 63.259 237.555 63.823V71.866H233.703V57.7322Z" fill="#707070"/>
</svg>
