<svg width="533" height="310" viewBox="0 0 533 310" fill="none" xmlns="http://www.w3.org/2000/svg">
<g filter="url(#filter0_d_151_304)">
<rect x="96.1562" y="67.1387" width="346.499" height="188.797" rx="11.1057" transform="rotate(2.99218 96.1562 67.1387)" fill="#FFCC00"/>
<rect x="96.1562" y="67.1387" width="346.499" height="188.797" rx="11.1057" transform="rotate(2.99218 96.1562 67.1387)" fill="url(#paint0_linear_151_304)"/>
<path d="M119.674 92.5573L122.666 101.127L122.793 101.133L126.672 92.9196L128.192 92.9983L127.654 103.192L126.457 103.13L126.864 95.4284L126.765 95.4233L123.191 102.961L122.064 102.902L119.303 95.037L119.218 95.0326L118.812 102.734L117.615 102.672L118.153 92.4786L119.674 92.5573ZM132.954 103.622C132.227 103.584 131.602 103.389 131.079 103.037C130.556 102.686 130.165 102.207 129.905 101.6C129.65 100.994 129.543 100.301 129.585 99.5223C129.626 98.7432 129.805 98.0607 130.123 97.4748C130.446 96.8845 130.877 96.4362 131.415 96.13C131.959 95.8193 132.573 95.6816 133.259 95.7171C133.836 95.747 134.366 95.9039 134.85 96.1878C135.334 96.467 135.716 96.9009 135.996 97.4895C136.28 98.0736 136.399 98.8115 136.352 99.7032L136.325 100.21L130.778 99.9229C130.768 100.454 130.855 100.913 131.037 101.299C131.219 101.685 131.478 101.985 131.815 102.2C132.157 102.411 132.556 102.528 133.011 102.551C133.443 102.574 133.811 102.513 134.115 102.369C134.424 102.22 134.662 102.021 134.831 101.77L136.126 101.837C135.984 102.216 135.762 102.546 135.46 102.827C135.163 103.103 134.799 103.312 134.368 103.455C133.942 103.593 133.471 103.648 132.954 103.622ZM135.154 99.1189C135.177 98.6918 135.11 98.3072 134.954 97.965C134.803 97.6183 134.575 97.3406 134.271 97.1319C133.967 96.9232 133.61 96.8083 133.202 96.7872C132.775 96.7651 132.389 96.8463 132.046 97.0308C131.706 97.2156 131.432 97.4743 131.221 97.807C131.015 98.1352 130.888 98.498 130.839 98.8955L135.154 99.1189ZM138.125 96.0679L139.294 96.1284L139.231 97.3251L139.329 97.3302C139.515 96.9258 139.79 96.62 140.154 96.4129C140.523 96.2061 140.956 96.1156 141.453 96.1414C141.941 96.1666 142.351 96.3008 142.681 96.5438C143.012 96.7821 143.261 97.115 143.426 97.5424L143.511 97.5467C143.734 97.1536 144.049 96.8522 144.455 96.6427C144.862 96.4331 145.335 96.3423 145.874 96.3702C146.339 96.3943 146.74 96.5115 147.077 96.7219C147.419 96.9326 147.678 97.2401 147.854 97.6445C148.031 98.0443 148.104 98.5375 148.073 99.1241L147.803 104.235L146.592 104.172L146.861 99.0755C146.889 98.5452 146.764 98.1458 146.487 97.8773C146.209 97.6041 145.845 97.4558 145.395 97.4325C145.047 97.4145 144.743 97.4717 144.482 97.6041C144.221 97.7364 144.018 97.9259 143.873 98.1726C143.728 98.4192 143.647 98.7068 143.63 99.0353L143.368 104.005L142.143 103.942L142.418 98.7184C142.433 98.4369 142.383 98.1848 142.268 97.9624C142.153 97.7353 141.983 97.5571 141.759 97.4278C141.541 97.2941 141.288 97.2199 141.002 97.2051C140.697 97.1893 140.408 97.2567 140.137 97.4074C139.866 97.5533 139.643 97.7653 139.468 98.0433C139.298 98.3216 139.203 98.6414 139.184 99.0028L138.933 103.776L137.722 103.713L138.125 96.0679ZM150.439 94.15L151.65 94.2127L151.451 97.9719L151.55 97.977C151.748 97.7096 151.912 97.504 152.041 97.3601C152.176 97.2118 152.395 97.0726 152.699 96.9424C153.002 96.8122 153.379 96.7588 153.83 96.7821C154.468 96.8151 155.025 97.0063 155.501 97.3557C155.977 97.7003 156.337 98.1778 156.583 98.7882C156.828 99.3986 156.93 100.1 156.888 100.893C156.846 101.687 156.671 102.376 156.363 102.963C156.054 103.544 155.645 103.984 155.135 104.283C154.63 104.581 154.061 104.714 153.427 104.681C152.981 104.658 152.614 104.566 152.326 104.406C152.038 104.24 151.826 104.069 151.69 103.893C151.558 103.716 151.419 103.5 151.272 103.243L151.131 103.235L151.07 104.404L149.901 104.344L150.439 94.15ZM151.286 100.575C151.255 101.152 151.313 101.664 151.459 102.109C151.605 102.554 151.833 102.907 152.144 103.168C152.46 103.424 152.846 103.564 153.301 103.588C153.77 103.612 154.178 103.509 154.525 103.277C154.871 103.041 155.141 102.709 155.333 102.281C155.525 101.849 155.636 101.356 155.665 100.802C155.693 100.262 155.634 99.7744 155.488 99.3386C155.346 98.903 155.115 98.5546 154.795 98.2933C154.479 98.0275 154.082 97.8822 153.604 97.8575C153.144 97.8337 152.743 97.9306 152.402 98.1482C152.066 98.3661 151.802 98.6842 151.611 99.1026C151.424 99.5164 151.316 100.007 151.286 100.575ZM161.467 105.098C160.739 105.06 160.114 104.865 159.592 104.513C159.069 104.162 158.678 103.683 158.418 103.076C158.163 102.47 158.056 101.777 158.097 100.998C158.138 100.219 158.318 99.5368 158.636 98.9509C158.959 98.3606 159.389 97.9123 159.928 97.606C160.471 97.2953 161.086 97.1577 161.771 97.1932C162.348 97.2231 162.879 97.38 163.363 97.6639C163.847 97.943 164.229 98.3769 164.508 98.9655C164.793 99.5497 164.911 100.288 164.864 101.179L164.838 101.686L159.29 101.399C159.281 101.93 159.367 102.389 159.549 102.775C159.731 103.161 159.991 103.461 160.328 103.676C160.669 103.887 161.068 104.004 161.523 104.028C161.955 104.05 162.323 103.989 162.627 103.845C162.936 103.696 163.175 103.497 163.343 103.247L164.639 103.314C164.496 103.692 164.274 104.022 163.972 104.303C163.675 104.579 163.311 104.788 162.88 104.931C162.454 105.069 161.983 105.124 161.467 105.098ZM163.667 100.595C163.689 100.168 163.623 99.7832 163.467 99.441C163.315 99.0944 163.088 98.8167 162.783 98.608C162.479 98.3993 162.123 98.2844 161.715 98.2632C161.287 98.2411 160.902 98.3224 160.558 98.5069C160.219 98.6917 159.944 98.9504 159.733 99.2831C159.528 99.6113 159.401 99.9741 159.351 100.372L163.667 100.595ZM166.638 97.544L167.806 97.6045L167.745 98.7731L167.829 98.7774C167.99 98.3952 168.258 98.0961 168.632 97.8802C169.006 97.6595 169.418 97.5609 169.869 97.5842C170.103 97.5963 170.314 97.6167 170.501 97.6451L170.436 98.8701C170.385 98.8486 170.286 98.8246 170.136 98.7981C169.992 98.7718 169.849 98.755 169.708 98.7477C169.347 98.729 169.017 98.7895 168.718 98.9293C168.418 99.0691 168.177 99.2708 167.994 99.5342C167.815 99.7979 167.717 100.099 167.699 100.437L167.445 105.252L166.234 105.189L166.638 97.544ZM175.826 100.01C175.754 99.6724 175.594 99.4053 175.346 99.2089C175.102 99.0081 174.764 98.8965 174.333 98.8741C174.023 98.8581 173.741 98.8953 173.487 98.9856C173.237 99.0716 173.038 99.2 172.887 99.3711C172.742 99.5377 172.664 99.7289 172.652 99.9448C172.639 100.198 172.733 100.42 172.935 100.609C173.142 100.798 173.465 100.956 173.905 101.083L175.031 101.423C175.708 101.623 176.206 101.903 176.526 102.263C176.846 102.618 176.992 103.064 176.963 103.599C176.94 104.045 176.799 104.435 176.542 104.77C176.289 105.1 175.932 105.352 175.471 105.526C175.01 105.7 174.467 105.771 173.843 105.738C172.984 105.694 172.313 105.476 171.831 105.084C171.348 104.687 171.076 104.136 171.014 103.432L172.281 103.497C172.332 103.872 172.489 104.158 172.751 104.355C173.014 104.547 173.387 104.656 173.871 104.681C174.415 104.709 174.853 104.626 175.183 104.431C175.513 104.237 175.688 103.961 175.707 103.604C175.721 103.332 175.632 103.101 175.44 102.913C175.247 102.719 174.938 102.562 174.511 102.441L173.371 102.114C172.713 101.924 172.219 101.645 171.89 101.275C171.562 100.905 171.411 100.464 171.438 99.9525C171.461 99.5208 171.598 99.1396 171.851 98.8092C172.109 98.479 172.456 98.2287 172.893 98.0584C173.335 97.8884 173.833 97.8177 174.387 97.8463C174.903 97.8731 175.354 97.9835 175.739 98.1775C176.124 98.3716 176.423 98.6318 176.637 98.9581C176.855 99.2847 176.979 99.6558 177.008 100.072L175.826 100.01ZM179.638 105.883L178.428 105.82L178.965 95.6268L180.176 95.6895L179.979 99.4347L180.077 99.4398C180.508 98.5962 181.281 98.2033 182.398 98.2611C183.206 98.3029 183.829 98.5799 184.268 99.092C184.707 99.5994 184.901 100.33 184.851 101.282L184.595 106.14L183.384 106.077L183.636 101.304C183.667 100.708 183.534 100.238 183.237 99.8928C182.945 99.5435 182.524 99.3547 181.975 99.3263C181.59 99.3063 181.243 99.3707 180.934 99.5194C180.63 99.6637 180.383 99.8886 180.193 100.194C180.007 100.495 179.903 100.861 179.881 101.293L179.638 105.883ZM186.941 98.5951L188.152 98.6578L187.749 106.303L186.538 106.24L186.941 98.5951ZM187.614 97.3593C187.379 97.3471 187.183 97.2594 187.027 97.096C186.871 96.9326 186.799 96.7383 186.811 96.513C186.823 96.2877 186.915 96.1019 187.088 95.9556C187.26 95.8092 187.464 95.7421 187.698 95.7542C187.933 95.7664 188.131 95.8543 188.291 96.0179C188.452 96.1815 188.527 96.3759 188.515 96.6012C188.503 96.8265 188.408 97.0122 188.231 97.1583C188.054 97.3044 187.848 97.3714 187.614 97.3593ZM190.081 98.7576L191.25 98.8181L191.186 100.029L191.327 100.036C191.49 99.8 191.646 99.6034 191.795 99.4464C191.945 99.2847 192.172 99.1388 192.475 99.0086C192.779 98.8738 193.156 98.818 193.606 98.8413C194.245 98.8744 194.799 99.0654 195.27 99.4145C195.746 99.7592 196.105 100.237 196.345 100.847C196.591 101.457 196.693 102.159 196.651 102.952C196.609 103.745 196.434 104.435 196.125 105.021C195.821 105.603 195.415 106.043 194.905 106.342C194.4 106.64 193.832 106.773 193.204 106.741C192.758 106.718 192.388 106.625 192.096 106.464C191.808 106.299 191.594 106.126 191.453 105.944C191.312 105.758 191.177 105.544 191.049 105.302L190.95 105.297L190.737 109.338L189.526 109.275L190.081 98.7576ZM191.062 102.634C191.032 103.212 191.09 103.723 191.236 104.168C191.382 104.613 191.612 104.966 191.928 105.228C192.244 105.484 192.632 105.624 193.092 105.648C193.561 105.672 193.967 105.568 194.308 105.337C194.655 105.1 194.922 104.768 195.109 104.34C195.301 103.908 195.412 103.415 195.441 102.861C195.47 102.321 195.411 101.834 195.264 101.398C195.123 100.962 194.894 100.614 194.578 100.353C194.263 100.087 193.868 99.942 193.394 99.9174C192.925 99.8931 192.52 99.9898 192.179 100.207C191.843 100.425 191.579 100.743 191.387 101.162C191.201 101.576 191.092 102.067 191.062 102.634Z" fill="black"/>
<path d="M120.702 228.464L119.59 228.407L120.252 215.862L121.364 215.919L120.702 228.464ZM114.653 216.546C115.272 216.583 115.814 216.794 116.278 217.181C116.743 217.563 117.094 218.089 117.332 218.76C117.569 219.431 117.665 220.203 117.619 221.076C117.573 221.949 117.396 222.707 117.089 223.35C116.782 223.993 116.378 224.48 115.876 224.812C115.373 225.144 114.812 225.293 114.193 225.261C113.573 225.229 113.029 225.022 112.56 224.64C112.095 224.259 111.744 223.732 111.507 223.061C111.274 222.39 111.18 221.618 111.226 220.745C111.272 219.872 111.447 219.114 111.749 218.471C112.056 217.828 112.46 217.341 112.962 217.009C113.465 216.673 114.028 216.518 114.653 216.546ZM114.601 217.532C114.183 217.515 113.805 217.639 113.466 217.903C113.132 218.164 112.863 218.545 112.657 219.048C112.452 219.545 112.332 220.13 112.296 220.801C112.261 221.472 112.319 222.068 112.47 222.588C112.622 223.105 112.852 223.509 113.162 223.803C113.471 224.097 113.832 224.254 114.245 224.276C114.658 224.297 115.034 224.178 115.372 223.918C115.711 223.657 115.982 223.279 116.188 222.781C116.393 222.279 116.513 221.692 116.549 221.021C116.584 220.35 116.526 219.756 116.374 219.24C116.223 218.719 115.993 218.312 115.684 218.018C115.379 217.72 115.018 217.558 114.601 217.532ZM133.392 225.846L132.279 225.788L132.534 220.973L129.577 220.82L129.436 223.495L123.761 223.201L124.093 216.908L125.192 216.965L125.074 219.189L128.566 219.37L128.683 217.145L129.768 217.201L129.626 219.891L132.583 220.044L132.768 216.524L133.881 216.581L133.392 225.846ZM133.517 228.831L125.139 228.397L125.344 224.511L126.456 224.569L126.3 227.526L133.566 227.902L133.517 228.831ZM128.4 222.524L128.52 220.243L125.028 220.062L124.908 222.343L128.4 222.524ZM142.018 218.626L137.541 218.394L137.367 221.689L137.817 221.712C138.934 221.77 139.884 221.789 140.666 221.768C141.453 221.748 142.243 221.678 143.035 221.559L143.129 222.453C142.327 222.581 141.528 222.655 140.731 222.675C139.94 222.695 138.952 222.675 137.77 222.614L137.206 222.584L136.235 222.534L136.504 217.437L142.066 217.725L142.018 218.626ZM145.611 219.843L147.497 219.941L147.449 220.856L145.562 220.758L145.417 223.504L144.319 223.447L144.653 217.125L145.751 217.182L145.611 219.843ZM145.222 227.206L138.351 226.851L138.276 228.273L145.612 228.653L145.564 229.554L137.144 229.118L137.313 225.922L144.17 226.277L144.239 224.967L137.354 224.611L137.401 223.71L145.385 224.123L145.222 227.206ZM162.113 230.58L161.043 230.524L161.704 218.008L162.774 218.063L162.113 230.58ZM159.795 229.839L158.753 229.785L158.959 225.885L157.135 225.79C156.91 226.306 156.574 226.705 156.126 226.987C155.678 227.27 155.17 227.397 154.602 227.367C154.1 227.341 153.654 227.196 153.263 226.931C152.877 226.666 152.58 226.31 152.373 225.861C152.171 225.409 152.088 224.903 152.122 224.345C152.147 223.781 152.283 223.287 152.532 222.862C152.785 222.438 153.117 222.114 153.529 221.891C153.946 221.667 154.405 221.569 154.907 221.595C155.414 221.621 155.86 221.766 156.246 222.031C156.637 222.291 156.934 222.648 157.136 223.101C157.343 223.549 157.432 224.055 157.402 224.618L157.372 224.913L159.005 224.998L159.108 223.055L157.348 222.964L157.396 222.048L159.156 222.139L159.366 218.169L160.408 218.223L159.795 229.839ZM158.092 220.898L151.855 220.576L151.902 219.674L154.465 219.807L154.562 217.977L155.674 218.034L155.577 219.865L158.14 219.997L158.092 220.898ZM154.857 222.538C154.538 222.526 154.247 222.596 153.985 222.747C153.723 222.898 153.514 223.118 153.357 223.406C153.201 223.69 153.113 224.02 153.093 224.395C153.074 224.766 153.127 225.103 153.252 225.406C153.377 225.704 153.562 225.942 153.807 226.119C154.052 226.296 154.334 226.393 154.653 226.41C154.972 226.426 155.263 226.359 155.525 226.208C155.792 226.057 156.003 225.84 156.159 225.556C156.32 225.268 156.411 224.939 156.43 224.568C156.45 224.192 156.395 223.855 156.265 223.557C156.14 223.254 155.952 223.014 155.703 222.836C155.458 222.659 155.176 222.559 154.857 222.538ZM169.829 220.278L166.028 220.081L165.945 221.644L169.606 221.833L169.56 222.706L165.899 222.517L165.808 224.249C166.77 224.294 167.569 224.309 168.206 224.295C168.842 224.281 169.485 224.227 170.134 224.134L170.199 225.055C169.478 225.154 168.776 225.212 168.093 225.228C167.414 225.24 166.547 225.219 165.491 225.164L164.703 225.123L165.021 219.097L169.878 219.349L169.829 220.278ZM174.735 226.306L173.679 226.251L173.86 222.83L172.1 222.739L171.924 226.076L170.896 226.023L171.279 218.758L172.307 218.811L172.147 221.838L173.907 221.929L174.08 218.663L175.136 218.717L174.735 226.306ZM174.476 231.22L173.392 231.164L173.569 227.799L166.219 227.418L166.267 226.517L174.701 226.954L174.476 231.22Z" fill="black"/>
<path d="M117.213 123.995L121.762 124.23L120.802 142.425L130.264 142.915L130.066 146.675L116.055 145.95L117.213 123.995ZM140.346 147.208L135.312 146.947L130.419 130.182L135.15 130.427L137.983 142.433L138.165 142.442L142.247 130.794L147.008 131.041L140.346 147.208ZM149.915 147.977C149.45 147.952 149.027 147.814 148.645 147.561C148.263 147.308 147.966 146.984 147.753 146.588C147.552 146.182 147.468 145.752 147.502 145.297C147.516 144.842 147.644 144.428 147.887 144.055C148.14 143.683 148.469 143.396 148.875 143.194C149.282 142.982 149.717 142.888 150.182 142.912C150.617 142.935 151.02 143.072 151.392 143.325C151.775 143.567 152.072 143.887 152.284 144.283C152.497 144.679 152.591 145.105 152.567 145.56C152.543 146.014 152.404 146.433 152.151 146.815C151.898 147.187 151.568 147.479 151.162 147.691C150.765 147.904 150.35 147.999 149.915 147.977ZM162.758 148.368L158.178 148.131L159.108 130.512L158.987 130.506L153.786 133.399L153.999 129.366L159.61 126.19L163.916 126.412L162.758 148.368ZM176.29 127.053L185.024 127.505C186.601 127.587 187.923 127.893 188.989 128.425C190.056 128.957 190.84 129.661 191.341 130.539C191.843 131.406 192.064 132.4 192.004 133.522C191.939 134.766 191.521 135.773 190.75 136.544C189.99 137.315 189.011 137.807 187.814 138.019L187.803 138.231C188.65 138.315 189.425 138.599 190.13 139.081C190.844 139.564 191.403 140.216 191.805 141.038C192.219 141.85 192.398 142.777 192.343 143.818C192.281 145 191.932 146.032 191.298 146.911C190.674 147.791 189.777 148.464 188.606 148.931C187.447 149.387 186.059 149.574 184.441 149.49L175.131 149.008L176.29 127.053ZM183.73 145.683C185.004 145.749 185.961 145.56 186.603 145.117C187.245 144.664 187.589 144.008 187.634 143.148C187.667 142.532 187.544 141.978 187.266 141.487C186.998 140.997 186.598 140.606 186.066 140.315C185.534 140.014 184.9 139.844 184.162 139.806L180.189 139.6L179.878 145.484L183.73 145.683ZM183.872 136.659C184.509 136.692 185.086 136.61 185.603 136.414C186.12 136.208 186.532 135.9 186.837 135.49C187.153 135.081 187.326 134.588 187.356 134.012C187.399 133.203 187.145 132.541 186.595 132.026C186.054 131.512 185.273 131.228 184.252 131.175L180.643 130.988L180.354 136.477L183.872 136.659ZM195.682 133.561L200.17 133.793L199.301 150.26L194.813 150.027L195.682 133.561ZM198.04 131.524C197.595 131.501 197.186 131.378 196.812 131.156C196.45 130.925 196.166 130.631 195.962 130.276C195.768 129.911 195.682 129.527 195.703 129.122C195.725 128.708 195.852 128.329 196.083 127.986C196.324 127.644 196.637 127.382 197.021 127.199C197.417 127.006 197.837 126.922 198.281 126.945C198.716 126.967 199.115 127.094 199.478 127.326C199.841 127.548 200.12 127.841 200.313 128.205C200.517 128.571 200.608 128.961 200.586 129.375C200.565 129.779 200.433 130.153 200.192 130.495C199.962 130.828 199.654 131.091 199.269 131.283C198.884 131.466 198.474 131.546 198.04 131.524ZM209.844 157.343C208.348 157.266 207.055 156.986 205.966 156.504C204.876 156.022 204.034 155.375 203.438 154.564C202.852 153.763 202.541 152.84 202.505 151.794L206.932 152.023C207.02 152.666 207.339 153.159 207.888 153.502C208.447 153.855 209.187 154.055 210.107 154.103C211.209 154.16 212.076 153.947 212.71 153.462C213.353 152.989 213.704 152.201 213.762 151.099L213.921 148.097L213.708 148.086C213.325 148.827 212.725 149.434 211.909 149.909C211.104 150.374 210.09 150.575 208.867 150.512C207.593 150.446 206.467 150.088 205.487 149.44C204.508 148.781 203.758 147.83 203.236 146.586C202.713 145.343 202.499 143.837 202.592 142.068C202.687 140.269 203.066 138.758 203.728 137.535C204.391 136.312 205.244 135.414 206.288 134.84C207.342 134.266 208.491 134.011 209.734 134.075C210.978 134.14 211.963 134.48 212.691 135.095C213.419 135.711 213.948 136.442 214.278 137.291L214.46 137.3L214.606 134.54L219.064 134.771L218.185 151.42C218.113 152.784 217.713 153.924 216.986 154.839C216.259 155.754 215.281 156.418 214.053 156.831C212.824 157.254 211.421 157.425 209.844 157.343ZM210.44 147.218C211.552 147.275 212.438 146.911 213.097 146.124C213.758 145.327 214.127 144.195 214.204 142.73C214.282 141.244 214.036 140.055 213.465 139.164C212.894 138.263 212.053 137.784 210.941 137.726C209.829 137.668 208.946 138.064 208.293 138.912C207.641 139.75 207.276 140.901 207.199 142.367C207.122 143.813 207.36 144.97 207.912 145.84C208.475 146.7 209.318 147.16 210.44 147.218ZM222.551 134.952L227.04 135.184L226.171 151.651L221.682 151.418L222.551 134.952ZM224.909 132.915C224.464 132.892 224.055 132.769 223.682 132.547C223.319 132.316 223.035 132.022 222.831 131.667C222.638 131.302 222.551 130.918 222.573 130.513C222.595 130.099 222.721 129.72 222.952 129.377C223.193 129.035 223.506 128.773 223.891 128.59C224.286 128.397 224.706 128.313 225.151 128.336C225.586 128.358 225.984 128.485 226.347 128.717C226.71 128.939 226.989 129.232 227.183 129.597C227.386 129.962 227.477 130.352 227.455 130.766C227.434 131.17 227.303 131.544 227.062 131.886C226.831 132.219 226.523 132.482 226.138 132.674C225.754 132.857 225.344 132.937 224.909 132.915ZM234.147 152.064L229.658 151.831L230.527 135.365L234.803 135.586L234.651 138.467L234.833 138.476C235.269 137.526 235.93 136.8 236.818 136.299C237.706 135.797 238.747 135.577 239.94 135.639C241.082 135.698 242.07 135.998 242.903 136.538C243.736 137.077 244.36 137.829 244.776 138.793C245.192 139.747 245.361 140.856 245.284 142.119L244.731 152.611L240.273 152.381L240.785 142.677C240.838 141.666 240.617 140.859 240.122 140.255C239.627 139.652 238.914 139.326 237.984 139.278C237.024 139.228 236.239 139.492 235.631 140.068C235.033 140.646 234.706 141.47 234.649 142.541L234.147 152.064ZM252.706 153.024L248.218 152.792L249.087 136.326L253.363 136.547L253.211 139.428L253.393 139.437C253.828 138.487 254.49 137.761 255.378 137.259C256.266 136.758 257.307 136.538 258.5 136.6C259.642 136.659 260.63 136.959 261.463 137.498C262.296 138.038 262.92 138.79 263.335 139.754C263.751 140.708 263.921 141.817 263.844 143.08L263.29 153.572L258.832 153.342L259.345 143.638C259.398 142.627 259.177 141.82 258.682 141.216C258.186 140.613 257.474 140.287 256.544 140.239C255.583 140.189 254.799 140.453 254.191 141.029C253.593 141.607 253.266 142.431 253.209 143.502L252.706 153.024ZM274.221 154.473C272.553 154.386 271.125 153.968 269.938 153.217C268.762 152.467 267.878 151.438 267.288 150.13C266.699 148.813 266.45 147.289 266.541 145.561C266.63 143.873 267.032 142.404 267.747 141.153C268.472 139.894 269.455 138.941 270.696 138.296C271.936 137.65 273.35 137.369 274.937 137.451C276.413 137.527 277.715 137.909 278.845 138.596C279.985 139.273 280.855 140.256 281.456 141.544C282.067 142.832 282.325 144.381 282.23 146.191L282.163 147.464L270.911 146.882C270.868 147.701 270.982 148.421 271.253 149.043C271.535 149.666 271.95 150.159 272.498 150.522C273.057 150.875 273.721 151.072 274.489 151.111C275.227 151.15 275.872 151.036 276.423 150.771C276.975 150.495 277.381 150.105 277.64 149.602L281.916 149.823C281.651 150.823 281.169 151.685 280.472 152.409C279.775 153.133 278.89 153.675 277.817 154.035C276.754 154.396 275.555 154.542 274.221 154.473ZM278.066 144.424C278.1 143.767 277.985 143.173 277.719 142.643C277.463 142.102 277.086 141.672 276.586 141.352C276.086 141.033 275.507 140.856 274.85 140.822C274.183 140.787 273.568 140.907 273.006 141.182C272.455 141.458 272.003 141.85 271.652 142.359C271.311 142.868 271.114 143.436 271.06 144.062L278.066 144.424ZM285.479 138.21L289.816 138.434L289.665 141.285L289.847 141.294C290.193 140.308 290.734 139.571 291.469 139.082C292.205 138.583 293.043 138.358 293.983 138.407C294.499 138.433 294.971 138.508 295.401 138.632L295.189 142.635C294.97 142.563 294.675 142.492 294.304 142.422C293.932 142.352 293.595 142.309 293.292 142.293C292.624 142.259 292.015 142.374 291.464 142.64C290.913 142.905 290.472 143.293 290.141 143.803C289.81 144.302 289.628 144.881 289.593 145.538L289.098 154.908L284.61 154.676L285.479 138.21Z" fill="black"/>
<rect x="360.339" y="225.52" width="55.5286" height="23.322" rx="11.661" transform="rotate(2.99218 360.339 225.52)" fill="black"/>
<path d="M374.12 232.342C374.875 232.381 375.554 232.581 376.157 232.942C376.764 233.299 377.238 233.858 377.58 234.619C377.921 235.376 378.061 236.346 378 237.528C377.945 238.669 377.724 239.646 377.338 240.459C376.952 241.267 376.431 241.872 375.775 242.276C375.123 242.679 374.37 242.859 373.516 242.814C372.845 242.779 372.251 242.619 371.734 242.333C371.222 242.047 370.816 241.668 370.516 241.196C370.221 240.72 370.053 240.191 370.013 239.61L372.097 239.719C372.161 240.099 372.327 240.401 372.593 240.627C372.863 240.853 373.203 240.977 373.611 240.998C374.301 241.034 374.842 240.773 375.233 240.214C375.629 239.656 375.854 238.861 375.908 237.828L375.824 237.824C375.561 238.262 375.188 238.596 374.706 238.824C374.228 239.054 373.703 239.153 373.13 239.123C372.529 239.092 371.992 238.923 371.519 238.616C371.05 238.309 370.69 237.899 370.439 237.387C370.189 236.871 370.077 236.3 370.105 235.676C370.141 235 370.332 234.403 370.679 233.884C371.026 233.361 371.499 232.965 372.097 232.695C372.695 232.42 373.369 232.303 374.12 232.342ZM374.075 234.005C373.737 233.988 373.426 234.051 373.141 234.197C372.86 234.342 372.633 234.547 372.459 234.81C372.29 235.075 372.197 235.371 372.18 235.699C372.162 236.037 372.221 236.349 372.357 236.633C372.497 236.918 372.699 237.148 372.963 237.322C373.227 237.495 373.53 237.591 373.873 237.609C374.211 237.627 374.522 237.563 374.808 237.418C375.098 237.268 375.33 237.059 375.504 236.791C375.683 236.522 375.78 236.226 375.797 235.903C375.81 235.578 375.743 235.276 375.598 234.996C375.453 234.71 375.246 234.478 374.978 234.3C374.714 234.121 374.413 234.023 374.075 234.005ZM383.384 232.826C384.14 232.866 384.819 233.066 385.421 233.427C386.029 233.783 386.503 234.342 386.844 235.103C387.186 235.86 387.326 236.83 387.264 238.013C387.209 239.153 386.989 240.13 386.603 240.943C386.217 241.751 385.696 242.357 385.039 242.76C384.388 243.164 383.635 243.343 382.781 243.299C382.109 243.263 381.515 243.103 380.999 242.817C380.486 242.532 380.08 242.153 379.78 241.68C379.485 241.204 379.317 240.675 379.277 240.094L381.361 240.203C381.426 240.583 381.591 240.886 381.857 241.111C382.128 241.337 382.467 241.461 382.875 241.482C383.565 241.518 384.106 241.257 384.498 240.699C384.894 240.141 385.119 239.345 385.173 238.313L385.089 238.308C384.826 238.746 384.453 239.08 383.97 239.309C383.492 239.538 382.967 239.638 382.395 239.608C381.794 239.576 381.257 239.407 380.783 239.1C380.315 238.793 379.955 238.384 379.704 237.872C379.453 237.355 379.342 236.784 379.37 236.16C379.405 235.484 379.597 234.887 379.944 234.369C380.291 233.846 380.763 233.449 381.361 233.179C381.959 232.904 382.633 232.787 383.384 232.826ZM383.34 234.49C383.002 234.472 382.69 234.536 382.405 234.681C382.125 234.826 381.897 235.031 381.724 235.295C381.554 235.559 381.461 235.855 381.444 236.184C381.426 236.522 381.485 236.833 381.621 237.118C381.762 237.403 381.964 237.632 382.228 237.806C382.491 237.98 382.795 238.075 383.137 238.093C383.475 238.111 383.787 238.047 384.072 237.902C384.362 237.753 384.594 237.544 384.768 237.275C384.947 237.007 385.045 236.711 385.062 236.387C385.074 236.063 385.008 235.76 384.862 235.48C384.717 235.195 384.51 234.963 384.242 234.784C383.978 234.605 383.678 234.507 383.34 234.49ZM392.649 233.31C393.405 233.35 394.084 233.55 394.686 233.911C395.293 234.267 395.767 234.826 396.109 235.588C396.451 236.344 396.59 237.314 396.529 238.497C396.474 239.638 396.253 240.614 395.867 241.427C395.481 242.235 394.96 242.841 394.304 243.244C393.652 243.648 392.899 243.827 392.045 243.783C391.374 243.748 390.78 243.587 390.263 243.301C389.751 243.016 389.345 242.637 389.045 242.165C388.75 241.688 388.582 241.159 388.542 240.578L390.626 240.687C390.69 241.067 390.856 241.37 391.122 241.596C391.392 241.822 391.732 241.945 392.14 241.966C392.83 242.003 393.371 241.741 393.762 241.183C394.158 240.625 394.384 239.83 394.438 238.797L394.353 238.793C394.09 239.231 393.717 239.564 393.235 239.793C392.757 240.022 392.232 240.122 391.659 240.092C391.058 240.06 390.521 239.891 390.048 239.584C389.579 239.277 389.219 238.868 388.969 238.356C388.718 237.839 388.607 237.269 388.634 236.644C388.67 235.968 388.861 235.371 389.208 234.853C389.556 234.33 390.028 233.933 390.626 233.663C391.224 233.389 391.898 233.271 392.649 233.31ZM392.604 234.974C392.266 234.956 391.955 235.02 391.67 235.165C391.389 235.31 391.162 235.515 390.988 235.779C390.819 236.043 390.726 236.339 390.709 236.668C390.691 237.006 390.75 237.317 390.886 237.602C391.026 237.887 391.228 238.116 391.492 238.29C391.756 238.464 392.059 238.56 392.402 238.578C392.74 238.595 393.051 238.532 393.337 238.387C393.627 238.237 393.859 238.028 394.033 237.759C394.212 237.491 394.31 237.195 394.326 236.871C394.339 236.547 394.272 236.245 394.127 235.964C393.982 235.679 393.775 235.447 393.507 235.268C393.243 235.09 392.942 234.992 392.604 234.974ZM400.931 239.899L398.298 239.761L398.39 238.001L401.023 238.139L401.16 235.506L402.92 235.598L402.783 238.231L405.416 238.368L405.324 240.128L402.691 239.991L402.553 242.624L400.793 242.532L400.931 239.899Z" fill="white"/>
</g>
<defs>
<filter id="filter0_d_151_304" x="0.240715" y="-16.7005" width="532.445" height="383.19" filterUnits="userSpaceOnUse" color-interpolation-filters="sRGB">
<feFlood flood-opacity="0" result="BackgroundImageFix"/>
<feColorMatrix in="SourceAlpha" type="matrix" values="0 0 0 0 0 0 0 0 0 0 0 0 0 0 0 0 0 0 127 0" result="hardAlpha"/>
<feOffset dx="2.22115" dy="4.44229"/>
<feGaussianBlur stdDeviation="44.4229"/>
<feComposite in2="hardAlpha" operator="out"/>
<feColorMatrix type="matrix" values="0 0 0 0 0 0 0 0 0 0 0 0 0 0 0 0 0 0 1 0"/>
<feBlend mode="normal" in2="BackgroundImageFix" result="effect1_dropShadow_151_304"/>
<feBlend mode="normal" in="SourceGraphic" in2="effect1_dropShadow_151_304" result="shape"/>
</filter>
<linearGradient id="paint0_linear_151_304" x1="88.5506" y1="84.9979" x2="314.647" y2="351.639" gradientUnits="userSpaceOnUse">
<stop stop-color="#FFB4BA"/>
<stop offset="1" stop-color="#7ECBFF"/>
</linearGradient>
</defs>
</svg>
