<svg width="34" height="34" viewBox="0 0 34 34" fill="none" xmlns="http://www.w3.org/2000/svg">
<path fill-rule="evenodd" clip-rule="evenodd" d="M25.4853 8.51457C25.8758 8.9051 25.8758 9.53826 25.4853 9.92879L9.92893 25.4851C9.5384 25.8757 8.90524 25.8757 8.51471 25.4851C8.12419 25.0946 8.12419 24.4614 8.51471 24.0709L24.0711 8.51457C24.4616 8.12405 25.0948 8.12405 25.4853 8.51457Z" fill="white"/>
<path fill-rule="evenodd" clip-rule="evenodd" d="M25.4853 25.485C25.0948 25.8756 24.4616 25.8756 24.0711 25.485L8.51474 9.92868C8.12422 9.53816 8.12422 8.90499 8.51474 8.51447C8.90527 8.12394 9.53843 8.12394 9.92896 8.51447L25.4853 24.0708C25.8758 24.4613 25.8758 25.0945 25.4853 25.485Z" fill="white"/>
</svg>
