<svg width="32" height="28" viewBox="0 0 32 28" fill="none" xmlns="http://www.w3.org/2000/svg">
<path d="M15.0205 0.742188V12.0283H14.0557V0.742188H15.0205ZM5.48633 5.61719C5.49268 3.21777 6.44482 1.70068 7.91113 1.69434C9.28223 1.70068 10.209 3.021 10.3359 5.14746H11.7959V0.983398H12.748V11.457H11.7959V5.97266H10.3423C10.2471 8.16895 9.30127 9.54639 7.91113 9.54004C6.44482 9.54639 5.49268 8.0166 5.48633 5.61719ZM6.42578 5.61719C6.41309 7.44531 6.99707 8.60059 7.91113 8.58789C8.83154 8.60059 9.41553 7.44531 9.40918 5.61719C9.41553 3.78271 8.83154 2.63379 7.91113 2.63379C6.99707 2.63379 6.41309 3.78271 6.42578 5.61719ZM25.2949 0.742188V5.18555H26.9072V6.03613H25.2949V12.0283H24.2793V0.742188H25.2949ZM16.167 8.74023C17.5381 7.72461 17.9316 5.75684 17.9443 4.33496V1.75781H18.8838V4.33496C18.8711 5.47119 19.0869 7.12793 20.0073 8.26416C20.9023 7.15967 21.1118 5.52197 21.1182 4.33496V1.75781H22.0703V4.33496C22.0576 5.80127 22.4385 7.75 23.8477 8.74023L23.2129 9.46387C22.3687 8.85449 21.8735 7.85156 21.6069 6.76611C21.353 7.87695 20.8706 8.93066 20.001 9.55273C19.1313 8.92432 18.6553 7.85791 18.4014 6.75977C18.1348 7.82617 17.646 8.82275 16.8398 9.43848L16.167 8.74023ZM9.66748 15.6279V22.293H8.11865V15.6279H9.66748ZM0.145996 21.582V16.4531H4.7417V18.332H5.79541V15.8184H7.31885V22.166H5.79541V19.6523H4.7417V21.582H0.145996ZM1.66943 20.3887H3.23096V17.6846H1.66943V20.3887ZM1.79639 27.041V22.75H9.66748V27.041H1.79639ZM3.3833 25.7461H8.06787V24.0068H3.3833V25.7461ZM20.4751 15.6152V27.1934H18.8755V20.998H16.73V24.4512H11.1567V16.5039H12.769V19.3096H15.1431V16.5039H16.73V19.6904H18.8755V15.6152H20.4751ZM12.769 23.1562H15.1431V20.5791H12.769V23.1562ZM26.1411 17.0371C26.1284 18.4019 26.9663 19.7603 28.8579 20.2998L28.0835 21.5566C26.7505 21.1631 25.8301 20.3633 25.3032 19.335C24.7764 20.4521 23.8306 21.3345 22.4468 21.7471L21.6724 20.4775C23.6021 19.8999 24.4526 18.4463 24.4526 17.0371V15.958H26.1411V17.0371ZM23.6528 27.041V22.3311H25.2524V23.4102H29.772V22.3311H31.3843V27.041H23.6528ZM25.2524 25.7334H29.772V24.667H25.2524V25.7334ZM29.7593 21.8232V15.6152H31.3843V21.8232H29.7593Z" fill="url(#paint0_linear_151_760)"/>
<defs>
<linearGradient id="paint0_linear_151_760" x1="-1" y1="14" x2="33" y2="14" gradientUnits="userSpaceOnUse">
<stop stop-color="#FFB4BA"/>
<stop offset="1" stop-color="#7ECBFF"/>
</linearGradient>
</defs>
</svg>
