<svg width="24" height="24" viewBox="0 0 24 24" fill="none" xmlns="http://www.w3.org/2000/svg">
<path d="M17.6452 5.64844H6.34192C6.15592 5.64844 5.97755 5.72232 5.84603 5.85384C5.71451 5.98536 5.64062 6.16374 5.64062 6.34973V17.6532C5.64067 17.8392 5.71458 18.0175 5.84609 18.149C5.9776 18.2805 6.15596 18.3543 6.34192 18.3543H12.4272V13.434H10.7713V11.5164H12.4272V10.1022C12.4272 8.46103 13.4295 7.56756 14.8935 7.56756C15.5948 7.56756 16.1974 7.61961 16.3732 7.64308V9.3582L15.3578 9.35873C14.5616 9.35873 14.4075 9.73708 14.4075 10.2923V11.5166H16.3063L16.0591 13.4341H14.4075V18.3543H17.6454C17.8314 18.3543 18.0097 18.2804 18.1412 18.1489C18.2726 18.0173 18.3465 17.839 18.3465 17.653V6.34973C18.3465 6.16374 18.2726 5.98536 18.1411 5.85384C18.0096 5.72232 17.8312 5.64844 17.6452 5.64844Z" fill="black"/>
<circle cx="12" cy="12" r="11.5" stroke="black"/>
</svg>
