<svg width="24" height="24" viewBox="0 0 24 24" fill="none" xmlns="http://www.w3.org/2000/svg">
<path d="M11.9997 6V22M11.9997 6H8.46398C7.94302 6 7.4434 5.78929 7.07502 5.41421C6.70665 5.03914 6.49969 4.53043 6.49969 4C6.49969 3.46957 6.70665 2.96086 7.07502 2.58579C7.4434 2.21071 7.94302 2 8.46398 2C11.214 2 11.9997 6 11.9997 6ZM11.9997 6H15.5354C16.0564 6 16.556 5.78929 16.9244 5.41421C17.2927 5.03914 17.4997 4.53043 17.4997 4C17.4997 3.46957 17.2927 2.96086 16.9244 2.58579C16.556 2.21071 16.0564 2 15.5354 2C12.7854 2 11.9997 6 11.9997 6ZM19.9997 11V18.8C19.9997 19.9201 19.9997 20.4802 19.7817 20.908C19.59 21.2843 19.284 21.5903 18.9077 21.782C18.4799 22 17.9198 22 16.7997 22L7.19969 22C6.07959 22 5.51954 22 5.09171 21.782C4.71539 21.5903 4.40943 21.2843 4.21768 20.908C3.99969 20.4802 3.99969 19.9201 3.99969 18.8V11M1.99969 7.6L1.99969 9.4C1.99969 9.96005 1.99969 10.2401 2.10869 10.454C2.20456 10.6422 2.35754 10.7951 2.5457 10.891C2.75962 11 3.03964 11 3.5997 11L20.3997 11C20.9597 11 21.2398 11 21.4537 10.891C21.6418 10.7951 21.7948 10.6422 21.8907 10.454C21.9997 10.2401 21.9997 9.96005 21.9997 9.4V7.6C21.9997 7.03995 21.9997 6.75992 21.8907 6.54601C21.7948 6.35785 21.6418 6.20487 21.4537 6.10899C21.2398 6 20.9597 6 20.3997 6L3.5997 6C3.03964 6 2.75962 6 2.5457 6.10899C2.35754 6.20487 2.20456 6.35785 2.10869 6.54601C1.99969 6.75992 1.99969 7.03995 1.99969 7.6Z" stroke="black" stroke-width="1.71429" stroke-linecap="round" stroke-linejoin="round"/>
</svg>
