<svg width="24" height="24" viewBox="0 0 24 24" fill="none" xmlns="http://www.w3.org/2000/svg">
<circle cx="12" cy="12" r="11.5" stroke="black"/>
<path d="M12.0019 9.7666C10.7936 9.7666 9.76656 10.7936 9.76656 12.0019C9.76656 13.2102 10.7936 14.2372 12.0019 14.2372C13.2101 14.2372 14.2371 13.2102 14.2371 12.0019C14.2371 10.7936 13.2101 9.7666 12.0019 9.7666Z" fill="black"/>
<path d="M14.8671 5.2959H9.19756C7.00291 5.2959 5.29596 7.00285 5.29596 9.13654V14.8061C5.29596 17.0007 7.00291 18.7077 9.19756 18.7077H14.8671C17.0008 18.7077 18.7077 17.0007 18.7077 14.8061V9.13654C18.7077 7.00285 17.0008 5.2959 14.8671 5.2959ZM12.0018 15.5376C10.051 15.5376 8.52698 13.9526 8.52698 12.0627C8.52698 10.1729 10.051 8.52692 12.0018 8.52692C13.9526 8.52692 15.4767 10.1119 15.4767 12.0018C15.4767 13.8916 13.9526 15.5376 12.0018 15.5376ZM15.5986 9.25847C15.1719 9.25847 14.8061 8.89269 14.8061 8.46595C14.8061 8.03921 15.1719 7.67344 15.5986 7.67344C16.0254 7.67344 16.3911 8.03921 16.3911 8.46595C16.3911 8.89269 16.0254 9.25847 15.5986 9.25847Z" fill="black"/>
</svg>
