<svg width="44" height="44" viewBox="0 0 44 44" fill="none" xmlns="http://www.w3.org/2000/svg">
<path d="M21 12C22.78 12 24.5201 12.5278 26.0001 13.5168C27.4802 14.5057 28.6337 15.9113 29.3149 17.5558C29.9961 19.2004 30.1743 21.01 29.8271 22.7558C29.4798 24.5016 28.6226 26.1053 27.364 27.364C26.1053 28.6226 24.5016 29.4798 22.7558 29.8271C21.01 30.1743 19.2004 29.9961 17.5558 29.3149C15.9113 28.6337 14.5057 27.4802 13.5168 26.0001C12.5278 24.5201 12 22.78 12 21C12.0026 18.6139 12.9517 16.3262 14.639 14.639C16.3262 12.9517 18.6139 12.0026 21 12ZM21 28C22.3845 28 23.7378 27.5895 24.889 26.8203C26.0401 26.0511 26.9373 24.9579 27.4672 23.6788C27.997 22.3997 28.1356 20.9922 27.8655 19.6344C27.5954 18.2765 26.9287 17.0292 25.9497 16.0503C24.9708 15.0713 23.7235 14.4046 22.3656 14.1345C21.0078 13.8644 19.6003 14.003 18.3212 14.5328C17.0421 15.0627 15.9489 15.9599 15.1797 17.111C14.4105 18.2622 14 19.6155 14 21C14.0021 22.8559 14.7403 24.6351 16.0526 25.9474C17.3649 27.2597 19.1441 27.9979 21 28Z" fill="white"/>
<path d="M30.2934 31.7074L25.9434 27.3574L27.3574 25.9434L31.7074 30.2934L30.2934 31.7074Z" fill="white"/>
</svg>
