<svg width="69" height="23" viewBox="0 0 69 23" fill="none" xmlns="http://www.w3.org/2000/svg">
<path d="M6.94728 10.7265H18.443V5.52894C18.443 4.41764 18.3806 3.59653 18.256 3.06774C18.1313 2.53896 17.9013 2.10259 17.5681 1.75652C17.265 1.44269 16.9233 1.21699 16.5406 1.07512C16.158 0.935404 15.6529 0.84727 15.0274 0.817177V0.445312H25.3752V0.817177C24.7604 0.84942 24.2596 0.935404 23.877 1.07512C23.4944 1.21699 23.1504 1.44269 22.8495 1.75652C22.5142 2.10259 22.2863 2.5411 22.1617 3.07634C22.037 3.61157 21.9746 4.42838 21.9746 5.52894V17.4631C21.9746 18.5637 22.037 19.3784 22.1617 19.9072C22.2863 20.4359 22.5142 20.8787 22.8495 21.2356C23.1526 21.5386 23.4944 21.7622 23.877 21.9084C24.2596 22.0545 24.7583 22.1427 25.3752 22.1749V22.5468H15.0274V22.1749C15.6529 22.1427 16.158 22.0524 16.5406 21.9084C16.9233 21.7622 17.2672 21.5386 17.5681 21.2356C17.9034 20.8895 18.1313 20.4531 18.256 19.9244C18.3806 19.3956 18.443 18.5744 18.443 17.4631V11.4874H6.94728V17.4631C6.94728 18.5637 7.00962 19.3805 7.13429 19.9157C7.25896 20.4488 7.48896 20.8895 7.82214 21.2356C8.11233 21.5386 8.4498 21.7622 8.83457 21.9084C9.21718 22.0545 9.72232 22.1427 10.3478 22.1749V22.5468H0V22.1749C0.625513 22.1427 1.13065 22.0524 1.51327 21.9084C1.89589 21.7622 2.23336 21.5386 2.5257 21.2356C2.86962 20.8895 3.10392 20.4531 3.22215 19.9244C3.34037 19.3956 3.40056 18.5744 3.40056 17.4631V5.52894C3.40056 4.41764 3.34037 3.59653 3.22215 3.06774C3.10392 2.53896 2.86962 2.10259 2.5257 1.75652C2.23336 1.44269 1.89374 1.21699 1.50467 1.07512C1.11561 0.935404 0.614766 0.84727 0 0.817177V0.445312H10.3457V0.817177C9.73092 0.84942 9.23008 0.935404 8.84747 1.07512C8.46485 1.21699 8.12092 1.44269 7.81999 1.75652C7.48466 2.10259 7.25681 2.5411 7.13214 3.07634C7.00747 3.61157 6.94513 4.42838 6.94513 5.52894V10.7265H6.94728Z" fill="#0A4067"/>
<path d="M26.5379 19.52C26.5379 20.4744 25.7662 21.2461 24.814 21.2461C23.8617 21.2461 23.0879 20.4744 23.0879 19.52C23.0879 18.5656 23.8596 17.7939 24.814 17.7939C25.7684 17.7939 26.5379 18.5656 26.5379 19.52Z" fill="#0A4067"/>
<path d="M29.9754 13.3682C29.9754 13.8003 30.1173 14.17 30.3988 14.4774C30.6847 14.7826 31.0674 14.9352 31.5488 14.9352C31.9637 14.9352 32.3313 14.7998 32.6473 14.5268C32.9632 14.2517 33.1202 13.8712 33.1202 13.3875C33.1202 13.0479 33.0041 12.7427 32.7676 12.4697C32.5312 12.1946 32.0282 11.9474 31.2544 11.7281C30.0506 11.3885 29.4488 10.7307 29.4488 9.757C29.4488 9.15513 29.6573 8.66504 30.0743 8.28887C30.4934 7.9084 31.0115 7.71924 31.6219 7.71924C32.2324 7.71924 32.7246 7.92345 33.1245 8.33401C33.5243 8.74457 33.7242 9.23896 33.7242 9.81718H32.9568C32.9568 9.43457 32.8235 9.10569 32.5527 8.83055C32.2883 8.55112 31.968 8.41139 31.5961 8.41139C31.1727 8.41139 30.8352 8.54466 30.5859 8.8112C30.3387 9.07775 30.214 9.39587 30.214 9.76344C30.214 10.0859 30.3258 10.3546 30.5472 10.5717C30.7729 10.7823 31.2415 10.9844 31.9508 11.1757C33.2427 11.5261 33.8875 12.2698 33.8875 13.4047C33.8875 14.0324 33.6575 14.5612 33.2018 14.989C32.7461 15.4146 32.1937 15.6295 31.5488 15.6295C30.8696 15.6295 30.3086 15.421 29.8701 15.004C29.4294 14.587 29.208 14.0432 29.208 13.3682H29.9754Z" fill="#0A4067"/>
<path d="M40.3274 9.86003V15.509H39.6052V14.5245C39.0162 15.2769 38.2789 15.6552 37.3912 15.6552C36.5034 15.6552 35.7898 15.3628 35.218 14.7782C34.6462 14.1935 34.3604 13.4863 34.3604 12.6587C34.3604 11.8312 34.6398 11.1648 35.1965 10.5866C35.7575 10.0041 36.4905 9.71387 37.3912 9.71387C38.3456 9.71387 39.085 10.09 39.6052 10.8424V9.85788H40.3274V9.86003ZM37.3869 10.3652C36.7485 10.3652 36.2025 10.5758 35.7511 11.0014C35.304 11.4249 35.0804 11.9795 35.0804 12.6652C35.0804 13.3509 35.3018 13.9506 35.7403 14.374C36.1853 14.7954 36.7184 15.0039 37.346 15.0039C38.0038 15.0039 38.5519 14.776 38.9883 14.3225C39.4289 13.8689 39.6482 13.3165 39.6482 12.663C39.6482 12.0096 39.4289 11.4722 38.9926 11.0294C38.5562 10.5866 38.021 10.363 37.3847 10.363L37.3869 10.3652Z" fill="#0A4067"/>
<path d="M42.1158 10.8421C42.3372 10.496 42.636 10.2209 43.0079 10.0188C43.384 9.8146 43.8247 9.71143 44.3298 9.71143C45.2047 9.71143 45.9269 10.0016 46.4987 10.5841C47.0726 11.1645 47.3606 11.8653 47.3606 12.6821C47.3606 13.5569 47.0619 14.2706 46.4664 14.8252C45.8753 15.3776 45.1617 15.6527 44.3298 15.6527C43.3948 15.6527 42.6575 15.2766 42.1158 14.5221V17.5228H41.3936V9.85759H42.1158V10.8421ZM42.0707 12.6821C42.0707 13.3248 42.2856 13.8708 42.7177 14.3265C43.1476 14.7757 43.6871 15.0014 44.3363 15.0014C44.9854 15.0014 45.5142 14.7886 45.9656 14.3652C46.417 13.9374 46.6427 13.3764 46.6427 12.6799C46.6427 12.0415 46.4321 11.4955 46.0129 11.0398C45.5959 10.5863 45.037 10.3584 44.3384 10.3584C43.7129 10.3584 43.1777 10.5906 42.7349 11.0549C42.2942 11.5149 42.0728 12.0566 42.0728 12.6799L42.0707 12.6821Z" fill="#0A4067"/>
<path d="M52.8013 12.9513C52.8035 13.4651 53.027 13.9358 53.472 14.3636C53.917 14.7892 54.4393 15.0041 55.0455 15.0041C55.3679 15.0041 55.7269 14.901 56.1202 14.6968C56.5179 14.4883 56.8188 14.1357 57.0273 13.637H57.7947C57.5346 14.2862 57.1563 14.7849 56.6533 15.1353C56.1568 15.4813 55.6215 15.6555 55.0498 15.6555C54.2114 15.6555 53.5085 15.3588 52.9368 14.7677C52.365 14.1723 52.0791 13.4866 52.0791 12.7106C52.0791 11.9346 52.3542 11.1995 52.9067 10.6084C53.457 10.0129 54.1706 9.71631 55.0455 9.71631C55.8236 9.71631 56.505 10.0043 57.0875 10.5826C57.6722 11.1608 57.9645 11.8787 57.9645 12.7364V12.9535H52.8013V12.9513ZM52.8099 12.3H57.2423C57.1305 11.6831 56.8661 11.2081 56.4448 10.8728C56.0235 10.5331 55.557 10.3633 55.0433 10.3633C54.4479 10.3633 53.9363 10.5589 53.5042 10.9523C53.0743 11.3457 52.8422 11.7949 52.8078 12.3H52.8099Z" fill="#0A4067"/>
<path d="M59.3205 15.5069V9.85788H60.0428V10.5995C60.4662 10.0084 61.0509 9.71387 61.7968 9.71387C62.5427 9.71387 63.0908 9.93956 63.5465 10.3931C64.0086 10.8467 64.2365 11.5259 64.2365 12.4309V15.5069H63.5164V12.4309C63.5164 11.7581 63.3552 11.2443 63.0327 10.8918C62.7103 10.5393 62.2912 10.363 61.7753 10.363C61.2594 10.363 60.866 10.5307 60.535 10.866C60.204 11.1992 60.0406 11.7215 60.0406 12.4309V15.5069H59.3184H59.3205Z" fill="#0A4067"/>
<path d="M66.1558 13.8772C66.1558 14.2061 66.2461 14.4769 66.4224 14.6897C66.6029 14.8982 66.863 15.0036 67.1984 15.0036C67.9184 15.0036 68.2774 14.6661 68.2774 13.989C68.2774 13.7611 68.2108 13.5591 68.0797 13.385C67.9528 13.2087 67.639 13.0346 67.1425 12.8583C66.6008 12.6735 66.2117 12.4585 65.971 12.207C65.7324 11.9555 65.6142 11.6525 65.6142 11.2999C65.6142 10.8098 65.7668 10.4229 66.0785 10.1392C66.3901 9.85329 66.7685 9.71143 67.2134 9.71143C67.7185 9.71143 68.1098 9.86189 68.3892 10.165C68.6708 10.4638 68.8084 10.8249 68.8084 11.244H68.0861C68.0861 10.999 68.0044 10.7905 67.8389 10.6185C67.6734 10.4466 67.4756 10.3606 67.2435 10.3606C66.9705 10.3606 66.7491 10.4444 66.5836 10.6121C66.4181 10.7776 66.3364 10.9754 66.3364 11.2075C66.3364 11.4203 66.4202 11.6073 66.5879 11.7664C66.7599 11.9233 67.0758 12.0716 67.5315 12.2049C68.5096 12.4886 68.9997 13.0582 68.9997 13.9159C68.9997 14.4597 68.832 14.8853 68.4967 15.1906C68.1635 15.498 67.7336 15.6506 67.2048 15.6506C66.6459 15.6506 66.2117 15.4765 65.8979 15.1304C65.5884 14.78 65.4336 14.363 65.4336 13.8751H66.1558V13.8772Z" fill="#0A4067"/>
<path d="M29.6489 20.5416H30.2164V20.0752H30.3475V21.1564H30.2164V20.662H29.6489V21.1564H29.5156V20.0752H29.6489V20.5416Z" fill="#0A4067"/>
<path d="M31.8674 21.0595C31.9061 21.0595 31.9405 21.0552 31.9727 21.0466C32.0028 21.038 32.0286 21.0251 32.0501 21.0079C32.0738 20.9907 32.0931 20.9692 32.1081 20.9477C32.1232 20.9241 32.1339 20.8983 32.1425 20.8703C32.1468 20.851 32.1511 20.8316 32.1533 20.8101C32.1554 20.7887 32.1576 20.7672 32.1576 20.7457V20.0771H32.2887V20.7435C32.2887 20.7693 32.2887 20.7951 32.2844 20.823C32.2844 20.851 32.278 20.8768 32.2715 20.9004C32.2629 20.9413 32.2457 20.9778 32.2264 21.0122C32.207 21.0466 32.1791 21.0745 32.1468 21.1003C32.1146 21.1261 32.0759 21.1455 32.0308 21.1584C31.9835 21.1734 31.9297 21.1799 31.8674 21.1799C31.8051 21.1799 31.7556 21.1734 31.7105 21.1605C31.6675 21.1476 31.6267 21.1304 31.5966 21.1068C31.5643 21.0853 31.5385 21.0573 31.517 21.0251C31.4977 20.9929 31.4805 20.9585 31.4697 20.9241C31.4611 20.8961 31.4568 20.8682 31.4525 20.8359C31.4482 20.8058 31.4482 20.7758 31.4482 20.7478V20.0815H31.5794V20.75C31.5794 20.7736 31.5794 20.7994 31.5837 20.8252C31.588 20.851 31.5923 20.8746 31.6009 20.8961C31.6202 20.9477 31.6503 20.9907 31.6954 21.0186C31.7406 21.0487 31.7986 21.0638 31.8695 21.0638L31.8674 21.0595Z" fill="#0A4067"/>
<path d="M33.9585 21.1566H33.8983L33.6253 20.5096C33.5888 20.4215 33.5501 20.3226 33.5135 20.2194H33.5071C33.5157 20.3699 33.5178 20.5074 33.5178 20.6321V21.1544H33.3867V20.0732H33.5759L33.8295 20.6859C33.8575 20.7546 33.8897 20.8385 33.9241 20.9395H33.9284C33.9671 20.8299 33.9993 20.746 34.0251 20.6859L34.2788 20.0732H34.4701V21.1544H34.3368V20.6321C34.3368 20.5096 34.3411 20.372 34.3476 20.2194H34.3411C34.3003 20.3312 34.2637 20.4258 34.2272 20.5096L33.9542 21.1566H33.9585Z" fill="#0A4067"/>
<path d="M35.4629 21.1564L35.9035 20.0752H36.0153L36.456 21.1564H36.312L36.183 20.8318H35.7316L35.6026 21.1564H35.4629ZM35.9594 20.2429C35.91 20.3783 35.8649 20.5008 35.8197 20.6104L35.7789 20.7114H36.1378L36.097 20.6104C36.0519 20.4987 36.0067 20.374 35.9616 20.2429H35.9594Z" fill="#0A4067"/>
<path d="M38.0065 20.6773C38.0732 20.7718 38.1377 20.8707 38.2021 20.9717H38.2086C38.2 20.8664 38.1978 20.7589 38.1978 20.6515V20.0754H38.3311V21.1566H38.2L37.7765 20.5526C37.7034 20.4473 37.639 20.3505 37.5809 20.2581H37.5766C37.5831 20.357 37.5852 20.4709 37.5852 20.602V21.1544H37.4541V20.0732H37.5852L38.0087 20.6751L38.0065 20.6773Z" fill="#0A4067"/>
<path d="M39.5973 19.9651L39.6984 20.2488H39.5909L39.4619 19.9651H39.5973Z" fill="#0A4067"/>
<path d="M40.9272 20.3608C40.9272 20.393 40.9337 20.4188 40.9466 20.4403C40.9595 20.4597 40.9767 20.479 40.9982 20.4919C41.0197 20.5048 41.0454 20.5156 41.0755 20.5242C41.1035 20.5306 41.1336 20.5414 41.1658 20.5478C41.2067 20.5586 41.2497 20.5693 41.2883 20.5822C41.3292 20.5951 41.3657 20.6123 41.398 20.6338C41.4281 20.6553 41.456 20.6832 41.4754 20.7198C41.4947 20.7542 41.5033 20.7993 41.5033 20.8552C41.5033 20.9111 41.4925 20.9605 41.4711 20.9992C41.4496 21.0401 41.4216 21.0744 41.3829 21.1002C41.3464 21.126 41.3012 21.1454 41.2497 21.1583C41.1981 21.1712 41.1422 21.1776 41.082 21.1776C41.054 21.1776 41.024 21.1776 40.996 21.1733C40.9659 21.169 40.9401 21.1647 40.9122 21.1583C40.8842 21.1518 40.8606 21.1454 40.8391 21.1389C40.8176 21.1303 40.8004 21.1217 40.7875 21.1153V20.9949C40.8068 21.0035 40.8283 21.0143 40.852 21.0207C40.8778 21.0293 40.9014 21.0358 40.9272 21.0422C40.953 21.0465 40.9788 21.053 41.0046 21.0551C41.0304 21.0594 41.0562 21.0594 41.0777 21.0594C41.1164 21.0594 41.1529 21.0573 41.1852 21.0487C41.2196 21.0422 41.2497 21.0315 41.2754 21.0164C41.3012 21.0014 41.3206 20.9799 41.3378 20.9541C41.3528 20.9283 41.3593 20.896 41.3593 20.8552C41.3593 20.823 41.3528 20.7972 41.3399 20.7757C41.327 20.7542 41.3098 20.737 41.2883 20.7241C41.2647 20.709 41.2389 20.7004 41.211 20.6897C41.1809 20.6811 41.1508 20.6725 41.1185 20.666C41.0755 20.6574 41.0368 20.6445 40.996 20.6338C40.9552 20.6209 40.9208 20.6037 40.8885 20.5822C40.8563 20.5607 40.8326 20.5328 40.8111 20.4984C40.7918 20.464 40.7832 20.421 40.7832 20.3673C40.7832 20.3135 40.794 20.2641 40.8133 20.2254C40.8348 20.1845 40.8606 20.1545 40.895 20.1287C40.9294 20.1029 40.9681 20.0835 41.0132 20.0706C41.0583 20.0599 41.1056 20.0513 41.1572 20.0513C41.2153 20.0513 41.2668 20.0577 41.3184 20.0685C41.3679 20.0792 41.413 20.0921 41.456 20.1115V20.234C41.4109 20.2146 41.3636 20.1996 41.3163 20.1867C41.2668 20.1759 41.2174 20.1695 41.1637 20.1695C41.1228 20.1695 41.0863 20.1738 41.0562 20.1824C41.0261 20.191 41.0025 20.2039 40.9831 20.2211C40.9616 20.2383 40.9487 20.2576 40.938 20.2813C40.9294 20.3049 40.9229 20.3307 40.9229 20.3587L40.9272 20.3608Z" fill="#0A4067"/>
<path d="M43.8528 20.5416H44.4203V20.0752H44.5514V21.1564H44.4203V20.662H43.8528V21.1564H43.7217V20.0752H43.8528V20.5416Z" fill="#0A4067"/>
<path d="M45.7854 21.0382H46.34V21.1564H45.6543V20.0752H46.3099V20.1934H45.7854V20.5416H46.2519V20.6599H45.7854V21.036V21.0382Z" fill="#0A4067"/>
<path d="M47.2832 21.1564L47.7239 20.0752H47.8378L48.2784 21.1564H48.1366L48.0076 20.8318H47.5562L47.4272 21.1564H47.2854H47.2832ZM47.7797 20.2429C47.7303 20.3783 47.6852 20.5008 47.6422 20.6104L47.6013 20.7114H47.9582L47.9173 20.6104C47.8722 20.4987 47.827 20.374 47.7797 20.2429Z" fill="#0A4067"/>
<path d="M49.4028 20.0754V21.0362H49.9294V21.1544H49.2695V20.0732H49.4028V20.0754Z" fill="#0A4067"/>
<path d="M51.1465 21.1564H51.0154V20.1934H50.6543V20.0752H51.5098V20.1934H51.1487V21.1564H51.1465Z" fill="#0A4067"/>
<path d="M52.634 20.5416H53.2015V20.0752H53.3326V21.1564H53.2015V20.662H52.634V21.1564H52.5029V20.0752H52.634V20.5416Z" fill="#0A4067"/>
<path d="M56.4495 20.593C56.4495 20.6704 56.4366 20.7414 56.4086 20.8058C56.385 20.8682 56.3485 20.9262 56.3055 20.9757C56.3291 20.9993 56.3506 21.023 56.3721 21.0423C56.3915 21.0616 56.4086 21.081 56.4258 21.0982C56.4409 21.1132 56.4538 21.1261 56.4645 21.1369C56.4753 21.1455 56.4817 21.1541 56.4839 21.1562H56.3248C56.3248 21.1562 56.3119 21.1433 56.2947 21.124C56.2754 21.1046 56.2517 21.081 56.2238 21.0509C56.1722 21.0917 56.1163 21.1218 56.0561 21.1433C55.9959 21.1648 55.9336 21.1734 55.8713 21.1734C55.8089 21.1734 55.7616 21.1648 55.7186 21.1498C55.6757 21.1326 55.6413 21.1111 55.6155 21.0853C55.5875 21.0595 55.5682 21.0294 55.5574 20.995C55.5467 20.9606 55.5381 20.9262 55.5381 20.8918C55.5381 20.8488 55.5445 20.8144 55.5574 20.7801C55.5703 20.75 55.5854 20.722 55.6069 20.6962C55.6284 20.6704 55.652 20.6489 55.6778 20.6317C55.7057 20.6124 55.7315 20.593 55.7616 20.578C55.7401 20.5565 55.7208 20.5372 55.6993 20.5178C55.68 20.4985 55.6649 20.477 55.6499 20.4533C55.6348 20.4318 55.6241 20.4082 55.6155 20.3845C55.6069 20.3609 55.6026 20.3329 55.6026 20.305C55.6026 20.2642 55.6112 20.2298 55.6241 20.1997C55.637 20.1674 55.6585 20.1416 55.6843 20.1201C55.71 20.0987 55.7423 20.0815 55.7788 20.0729C55.8154 20.06 55.8562 20.0557 55.9014 20.0557C55.9422 20.0557 55.9809 20.0621 56.0153 20.0729C56.0497 20.0815 56.0798 20.0986 56.1077 20.118C56.1335 20.1373 56.155 20.1631 56.17 20.1911C56.1851 20.2212 56.1937 20.2556 56.1937 20.2943C56.1937 20.333 56.1872 20.3695 56.1743 20.3996C56.1593 20.4297 56.1421 20.4576 56.1185 20.4813C56.0948 20.5049 56.069 20.5264 56.0389 20.5458C56.011 20.5651 55.9787 20.5845 55.9465 20.5995C55.9658 20.6167 55.9852 20.6382 56.0067 20.6597C56.0282 20.6833 56.0518 20.707 56.0776 20.7328C56.1013 20.7586 56.1271 20.7844 56.1529 20.8102C56.1786 20.8381 56.2044 20.8639 56.2302 20.8918C56.2582 20.8553 56.2797 20.8123 56.2947 20.7629C56.3119 20.7134 56.3205 20.6554 56.3205 20.5909H56.4516L56.4495 20.593ZM55.8691 21.0681C55.8906 21.0681 55.91 21.0681 55.9336 21.0638C55.9551 21.0595 55.9787 21.0552 56.0024 21.0466C56.026 21.0401 56.0518 21.0294 56.0733 21.0186C56.0991 21.0079 56.1206 20.9929 56.1421 20.9757C56.1163 20.9477 56.0905 20.9219 56.0626 20.894C56.0346 20.866 56.0067 20.8359 55.9787 20.808C55.9529 20.7801 55.9272 20.7543 55.9014 20.7285C55.8756 20.7027 55.8541 20.6812 55.8347 20.6597C55.8111 20.6726 55.7896 20.6876 55.7681 20.7027C55.7466 20.7177 55.7294 20.7349 55.7143 20.7521C55.6993 20.7693 55.6864 20.7887 55.6778 20.8102C55.6692 20.8316 55.6649 20.8553 55.6649 20.8832C55.6649 20.9069 55.6692 20.9284 55.6778 20.952C55.6864 20.9735 55.6993 20.995 55.7143 21.0122C55.7315 21.0294 55.753 21.0423 55.7788 21.053C55.8046 21.0638 55.8347 21.0681 55.8691 21.0681ZM55.7315 20.305C55.7315 20.3243 55.7358 20.3437 55.7401 20.3609C55.7466 20.3802 55.7552 20.3974 55.7659 20.4146C55.7767 20.4318 55.7917 20.449 55.8089 20.4662C55.8261 20.4856 55.8455 20.5049 55.867 20.5243C55.8928 20.5114 55.9186 20.4963 55.94 20.4813C55.9637 20.4662 55.983 20.4512 56.0024 20.434C56.0196 20.4168 56.0346 20.3974 56.0432 20.3759C56.054 20.3544 56.0583 20.3287 56.0583 20.3007C56.0583 20.2749 56.0561 20.2556 56.0454 20.2362C56.0389 20.219 56.026 20.204 56.0131 20.1911C55.9981 20.1782 55.9809 20.1696 55.9615 20.1653C55.9422 20.161 55.9186 20.1588 55.8949 20.1588C55.8433 20.1588 55.8046 20.1717 55.7745 20.1975C55.7466 20.2212 55.7294 20.2577 55.7294 20.305H55.7315Z" fill="#0A4067"/>
<path d="M59.2112 20.5974C59.2456 20.6017 59.2757 20.6103 59.3015 20.6232C59.3273 20.6361 59.3509 20.6533 59.3681 20.6727C59.3875 20.692 59.4025 20.7178 59.4133 20.7436C59.424 20.7715 59.4283 20.8038 59.4283 20.8382C59.4283 20.864 59.424 20.8898 59.4176 20.9177C59.409 20.9457 59.3961 20.9736 59.3789 20.9994C59.3617 21.0252 59.3402 21.0488 59.3101 21.0703C59.2821 21.0918 59.2477 21.1112 59.2069 21.1241C59.1747 21.1348 59.1403 21.1413 59.0994 21.1456C59.0607 21.1499 59.0134 21.152 58.9597 21.152H58.6846V20.0708H59.0177C59.0371 20.0708 59.0564 20.073 59.0736 20.0751C59.0908 20.0751 59.1059 20.0772 59.1209 20.0815C59.136 20.0837 59.1489 20.0859 59.1618 20.088C59.1962 20.0987 59.2263 20.1116 59.2542 20.1267C59.2821 20.1417 59.3058 20.1611 59.323 20.1826C59.3423 20.2041 59.3574 20.2299 59.366 20.2578C59.3767 20.2858 59.3832 20.3158 59.3832 20.3502C59.3832 20.376 59.3789 20.4018 59.3746 20.4255C59.3681 20.4491 59.3595 20.4728 59.3445 20.4921C59.3316 20.5115 59.3122 20.5308 59.2907 20.5459C59.2692 20.563 59.2434 20.5759 59.2112 20.5867V20.591V20.5974ZM59.0177 20.5415C59.0435 20.5415 59.065 20.5415 59.0844 20.5372C59.1037 20.5351 59.1209 20.5308 59.1338 20.5287C59.1747 20.5136 59.2048 20.4943 59.222 20.4642C59.2413 20.4362 59.2499 20.4018 59.2499 20.3631C59.2499 20.3223 59.2391 20.2901 59.2198 20.2643C59.2026 20.2385 59.1704 20.2213 59.1295 20.2084C59.108 20.2019 59.0865 20.1998 59.0586 20.1955C59.0328 20.1933 59.0006 20.1912 58.9662 20.1912H58.8157V20.5394H59.0156L59.0177 20.5415ZM58.8178 20.6598V21.0359H58.9769C59.0156 21.0359 59.05 21.0359 59.0822 21.0295C59.1145 21.0273 59.1403 21.0209 59.1639 21.0123C59.1876 21.0037 59.2091 20.9951 59.2262 20.9822C59.2456 20.9693 59.2585 20.9564 59.2671 20.9414C59.2778 20.9263 59.2864 20.9113 59.2907 20.8919C59.295 20.8747 59.2972 20.8575 59.2972 20.8382C59.2972 20.8188 59.2972 20.7973 59.2907 20.7801C59.2843 20.7629 59.2778 20.7458 59.2671 20.7329C59.2563 20.7178 59.2413 20.7049 59.2241 20.6942C59.2048 20.6834 59.1833 20.6748 59.1575 20.6684C59.1403 20.6662 59.1231 20.6619 59.1016 20.6619C59.0822 20.6598 59.0543 20.6576 59.0242 20.6576H58.8178V20.6598Z" fill="#0A4067"/>
<path d="M60.6282 21.0382H61.1828V21.1564H60.4971V20.0752H61.1527V20.1934H60.6303V20.5416H61.0968V20.6599H60.6303V21.036L60.6282 21.0382Z" fill="#0A4067"/>
<path d="M62.124 21.1564L62.5647 20.0752H62.6786L63.1214 21.1564H62.9774L62.8484 20.8318H62.397L62.268 21.1564H62.1262H62.124ZM62.6206 20.2429C62.5711 20.3783 62.526 20.5008 62.4808 20.6104L62.44 20.7114H62.799L62.7581 20.6104C62.713 20.4987 62.6678 20.374 62.6227 20.2429H62.6206Z" fill="#0A4067"/>
<path d="M64.5317 21.0595C64.5703 21.0595 64.6047 21.0552 64.637 21.0466C64.6671 21.038 64.6929 21.0251 64.7165 21.0079C64.7402 20.9907 64.7574 20.9692 64.7724 20.9477C64.7875 20.9241 64.8003 20.8983 64.8068 20.8703C64.8132 20.851 64.8154 20.8316 64.8175 20.8101C64.8197 20.7887 64.8218 20.7672 64.8218 20.7457V20.0771H64.953V20.7435C64.953 20.7693 64.953 20.7951 64.9487 20.823C64.9465 20.851 64.9422 20.8768 64.9379 20.9004C64.9272 20.9413 64.9121 20.9778 64.8906 21.0122C64.8713 21.0466 64.8433 21.0745 64.8111 21.1003C64.7789 21.1261 64.7402 21.1455 64.6929 21.1584C64.6456 21.1734 64.5918 21.1799 64.5295 21.1799C64.4672 21.1799 64.4177 21.1734 64.3726 21.1605C64.3275 21.1476 64.2909 21.1304 64.2587 21.1068C64.2264 21.0853 64.2006 21.0573 64.1791 21.0251C64.1598 20.9929 64.1426 20.9585 64.1318 20.9241C64.1233 20.8961 64.1189 20.8682 64.1146 20.8359C64.1103 20.8058 64.1104 20.7758 64.1104 20.7478V20.0815H64.2415V20.75C64.2415 20.7736 64.2436 20.7994 64.2458 20.8252C64.2501 20.851 64.2544 20.8746 64.263 20.8961C64.2823 20.9477 64.3124 20.9907 64.3575 21.0186C64.4027 21.0487 64.4607 21.0638 64.5317 21.0638V21.0595Z" fill="#0A4067"/>
<path d="M66.4376 21.1564H66.3064V20.1934H65.9453V20.0752H66.8008V20.1934H66.4397V21.1564H66.4376Z" fill="#0A4067"/>
<path d="M68.2159 20.7222V21.1564H68.0848V20.7222L67.6914 20.0752H67.8354L68.1471 20.5997H68.1514L68.4652 20.0752H68.6071L68.2137 20.7222H68.2159Z" fill="#0A4067"/>
<path d="M50.2994 6.18048C50.2994 6.18048 50.2736 6.47281 50.3231 6.64262C50.3231 6.64262 50.5208 7.15422 50.6326 7.29394C50.6326 7.29394 50.768 7.46375 50.796 7.70235C50.796 7.70235 50.8884 8.11076 50.7358 8.65674C50.7358 8.65674 50.6519 8.91252 50.5509 9.12748C50.5509 9.12748 50.351 9.48861 50.3059 9.82394C50.3059 9.82394 50.2113 10.1958 50.3768 10.544C50.3768 10.544 50.7057 11.0685 50.7057 11.3136C50.7057 11.3136 50.7766 11.7972 50.3962 12.1132C50.3962 12.1132 50.3446 12.1282 50.3833 12.5302C50.3833 12.5302 50.4112 12.8741 50.2715 13.8651C50.2715 13.8651 50.2629 14.0134 50.2306 14.1595C50.2306 14.1595 50.2263 14.3659 50.293 14.5185C50.293 14.5185 50.3317 14.6238 50.3403 14.7979C50.3403 14.7979 50.581 15.3439 50.6197 15.6621C50.6197 15.6621 50.6519 16.0683 50.5939 16.711C50.5939 16.711 50.5337 17.3602 50.6111 17.5407C50.6111 17.5407 50.7035 17.7041 50.7422 17.8094C50.7422 17.8094 50.8089 18.0265 50.7293 18.1061C50.7293 18.1061 50.6219 18.2264 50.3424 18.162C50.3424 18.162 49.9619 18.0824 49.6374 18.1706C49.6374 18.1706 49.4289 18.2307 49.0914 18.1878C49.0914 18.1878 48.8743 18.2028 48.799 18.1727C48.799 18.1727 48.7346 18.1555 48.7217 18.1104C48.7066 18.0717 48.726 18.0072 48.7862 18.0029C48.7862 18.0029 48.8528 18.0158 48.9108 18.0072C48.9108 18.0072 49.0871 17.9986 49.143 17.947C49.143 17.947 49.4633 17.7364 49.5965 17.6805C49.5965 17.6805 49.8394 17.5794 49.9061 17.2785C49.9061 17.2742 49.9061 17.2699 49.9061 17.2656C49.9684 16.9561 49.8072 16.466 49.762 16.2919C49.762 16.2919 49.5213 15.4622 49.5213 15.0602C49.5213 15.0602 49.5084 14.8861 49.4117 14.6303C49.4117 14.6303 49.3171 14.4024 49.3171 14.2713C49.3171 14.2713 49.3321 14.0693 49.3579 14.0134C49.3579 14.0134 49.3708 13.9252 49.3128 13.8607C49.3128 13.8607 48.9022 12.4442 48.9861 12.0079C48.9861 12.0079 49.0119 11.4705 48.9861 11.2555C48.9861 11.2555 48.9409 10.845 48.8979 10.7095C48.8979 10.7095 48.8635 10.357 48.9065 10.1636C48.9065 10.1636 48.928 9.93571 48.8786 9.72721C48.8786 9.72721 48.8743 9.11889 48.9194 8.98777C48.9194 8.98777 48.9323 8.80936 48.8979 8.66964C48.8979 8.66964 48.885 8.28487 49.0871 8.04412C49.0871 8.04412 49.2569 7.48524 49.5148 7.23589C49.5148 7.23589 49.532 7.06608 49.4933 7.00804C49.4933 7.00804 49.4461 6.89842 49.4138 6.79739C49.4138 6.79739 49.4138 6.69207 49.3493 6.62759C49.3493 6.62759 49.2333 6.58245 49.1731 6.61469C49.1731 6.61469 49.0505 6.64048 49.0205 6.51796C49.0205 6.51796 48.9818 6.44057 49.0291 6.39113C49.0291 6.39113 49.0419 6.3331 49.0205 6.3159C49.0205 6.3159 48.9775 6.28151 48.9882 6.26432L49.0312 6.24281C49.0312 6.24281 48.9947 6.23206 48.9732 6.21487C48.9732 6.21487 48.9968 6.15468 48.9904 6.09665C48.9904 6.09665 48.9753 6.05795 48.928 6.0558C48.928 6.0558 48.8592 6.0687 48.8442 6.0558C48.8442 6.0558 48.8034 6.03432 48.8162 5.99562C48.8162 5.99562 48.8162 5.93543 48.9087 5.84944C48.9087 5.84944 48.999 5.74627 49.0162 5.69038C49.0162 5.69038 49.0398 5.65169 49.0226 5.61515V5.57431C49.0011 5.53347 49.0054 5.53347 49.014 5.49263C49.014 5.49263 49.0527 5.33357 49.0226 5.25619C49.0226 5.25619 49.0247 5.23683 49.0011 5.20674C49.0011 5.20674 48.9861 5.11646 49.0355 5.06057C49.0355 5.06057 49.1537 4.89506 49.3966 4.83918C49.3966 4.83918 49.7728 4.7102 49.8545 4.75749C49.8545 4.75749 50.0114 4.73169 50.0974 4.84777C50.0974 4.84777 50.3639 4.91011 50.4348 5.1745C50.4348 5.1745 50.5703 5.29917 50.5251 5.62375C50.5251 5.62375 50.5316 5.85805 50.3145 6.10095C50.3145 6.10095 50.2951 6.12029 50.2908 6.18048H50.2994Z" fill="#0A4067"/>
</svg>
