<svg width="24" height="24" viewBox="0 0 24 24" fill="none" xmlns="http://www.w3.org/2000/svg">
<g clip-path="url(#clip0_151_793)">
<path d="M2.83337 11.9999H21.1667M2.83337 11.9999C2.83337 17.0625 6.93743 21.1666 12 21.1666M2.83337 11.9999C2.83337 6.93731 6.93743 2.83325 12 2.83325M21.1667 11.9999C21.1667 17.0625 17.0627 21.1666 12 21.1666M21.1667 11.9999C21.1667 6.93731 17.0627 2.83325 12 2.83325M12 2.83325C14.2929 5.34341 15.5959 8.60095 15.6667 11.9999C15.5959 15.3989 14.2929 18.6564 12 21.1666M12 2.83325C9.7072 5.34341 8.40418 8.60095 8.33337 11.9999C8.40418 15.3989 9.7072 18.6564 12 21.1666" stroke="white" stroke-width="1.7" stroke-linecap="round" stroke-linejoin="round"/>
</g>
<defs>
<clipPath id="clip0_151_793">
<rect width="22" height="22" fill="white" transform="translate(1 1)"/>
</clipPath>
</defs>
</svg>
