<svg width="20" height="20" viewBox="0 0 20 20" fill="none" xmlns="http://www.w3.org/2000/svg">
<path d="M10 10.9C11.4497 10.9 12.625 9.69117 12.625 8.2C12.625 6.70883 11.4497 5.5 10 5.5C8.55025 5.5 7.375 6.70883 7.375 8.2C7.375 9.69117 8.55025 10.9 10 10.9Z" stroke="white" stroke-width="1.6" stroke-linecap="round" stroke-linejoin="round"/>
<path d="M8.8489 17.8234C9.25352 18.2366 9.45583 18.4432 9.687 18.5193C9.89123 18.5867 10.1088 18.5867 10.313 18.5193C10.5442 18.4432 10.7465 18.2366 11.1511 17.8234C14.2281 14.6812 17 11.7387 17 8.2C17 4.22355 13.866 1 10 1C6.13401 1 3 4.22355 3 8.2C3 11.7387 5.77189 14.6812 8.8489 17.8234Z" stroke="white" stroke-width="1.6" stroke-linecap="round" stroke-linejoin="round"/>
</svg>
