<svg width="56" height="37" viewBox="0 0 56 37" fill="none" xmlns="http://www.w3.org/2000/svg">
<path d="M13.8997 24.7775H13.5837C13.3581 24.7775 13.0301 24.7474 12.9398 24.7022C12.9127 24.6902 12.8165 24.618 12.7473 24.2208C12.6901 23.8989 12.66 23.3844 12.648 22.6953C12.6299 21.9882 12.6239 20.9802 12.6239 19.7044V16.512C12.6239 15.2933 12.6299 14.3215 12.648 13.6234C12.66 12.9494 12.6961 12.4409 12.7473 12.1099C12.8135 11.7248 12.9067 11.6134 12.9579 11.5803C13.0301 11.5322 13.343 11.4841 13.5837 11.4841H13.8786C14.0561 11.4841 14.1705 11.3727 14.1705 11.1952C14.1705 11.0177 14.0561 10.9033 13.8786 10.9033C13.5446 10.9033 13.0271 10.9154 12.7112 10.9364C12.3922 10.9575 12.1695 10.9665 12.0402 10.9665C11.9168 10.9665 11.7152 10.9575 11.4263 10.9364C11.1375 10.9154 10.632 10.9033 10.2799 10.9033C10.0994 10.9033 9.98507 11.0146 9.98507 11.1952C9.98507 11.3757 10.0994 11.4841 10.2799 11.4841H10.7554C10.9359 11.4841 11.0773 11.5141 11.1646 11.5773C11.2037 11.6044 11.3 11.7067 11.3662 12.1099C11.4203 12.4379 11.4564 12.9464 11.4715 13.6264C11.4865 14.3094 11.4925 15.2542 11.4925 16.512V17.5771L7.52678 17.538L3.60916 17.5771V16.512C3.60916 15.3024 3.61819 14.3335 3.63323 13.6264C3.64527 12.9434 3.67836 12.4349 3.73253 12.1099C3.79872 11.7218 3.88899 11.6104 3.93412 11.5773C4.02439 11.5171 4.1628 11.4841 4.34635 11.4841H4.82176C4.99928 11.4841 5.11362 11.3727 5.11362 11.1952C5.11362 11.0177 4.99928 10.9033 4.82176 10.9033C4.46971 10.9033 3.96421 10.9154 3.67235 10.9364C3.38951 10.9575 3.18189 10.9665 3.06154 10.9665C2.92613 10.9665 2.70047 10.9575 2.38453 10.9364C2.0716 10.9154 1.55106 10.9033 1.22008 10.9033C1.03954 10.9033 0.925201 11.0146 0.925201 11.1952C0.925201 11.3757 1.03653 11.4841 1.22008 11.4841H1.51495C1.75867 11.4841 2.06558 11.5322 2.14081 11.5773C2.18895 11.6104 2.28223 11.7218 2.34842 12.1099C2.40258 12.4379 2.43568 12.9464 2.45373 13.6234C2.46577 14.3455 2.47179 15.3144 2.47179 16.512V19.7044C2.47179 20.9531 2.46577 21.9611 2.45373 22.6953C2.43869 23.3904 2.40559 23.9049 2.34842 24.2208C2.28223 24.615 2.18293 24.6902 2.15585 24.7022C2.06558 24.7444 1.73761 24.7775 1.51194 24.7775H1.20202C1.0245 24.7775 0.910156 24.8918 0.910156 25.0753C0.910156 25.2589 1.0245 25.3762 1.20202 25.3762C1.54805 25.3762 2.06558 25.3672 2.38152 25.3461C2.70047 25.3251 2.92914 25.3161 3.06755 25.3161C3.19393 25.3161 3.39553 25.3251 3.67836 25.3461C3.9612 25.3672 4.4667 25.3762 4.82777 25.3762C5.0053 25.3762 5.11964 25.2619 5.11964 25.0753C5.11964 24.8888 5.0053 24.7775 4.82777 24.7775H4.55396C4.30121 24.7775 3.99731 24.7414 3.92209 24.7052C3.89501 24.6932 3.80775 24.618 3.73553 24.2268C3.68137 23.9079 3.64828 23.4084 3.63624 22.7043C3.6212 21.9852 3.61217 20.9832 3.61217 19.7255V18.3083L7.5358 18.3504L11.4955 18.3083V19.7255C11.4955 21.0374 11.4895 22.0123 11.4745 22.7043C11.4594 23.3964 11.4263 23.9079 11.3692 24.2268C11.303 24.621 11.2097 24.6932 11.1826 24.7052C11.1104 24.7414 10.8065 24.7775 10.5538 24.7775H10.2799C10.0994 24.7775 9.98507 24.8918 9.98507 25.0753C9.98507 25.2589 10.0994 25.3762 10.2799 25.3762C10.638 25.3762 11.1465 25.3672 11.4263 25.3461C11.7092 25.3251 11.9168 25.3161 12.0402 25.3161C12.1726 25.3161 12.4042 25.3251 12.7232 25.3461C13.0361 25.3672 13.5506 25.3762 13.8997 25.3762C14.0802 25.3762 14.1946 25.2619 14.1946 25.0753C14.1946 24.8888 14.0802 24.7775 13.8997 24.7775Z" fill="#3BA5BC"/>
<path d="M20.1765 19.9423C19.7372 20.2672 19.2377 20.5711 18.6931 20.8389C18.1966 21.0796 17.7092 21.2541 17.2398 21.3534C17.2097 21.0947 17.1947 20.8148 17.1947 20.52C17.1947 20.0355 17.2609 19.5692 17.3903 19.1359C17.5166 18.7056 17.7002 18.3205 17.9319 17.9925C18.1605 17.6645 18.4374 17.3817 18.7563 17.156C19.0662 16.9303 19.4243 16.7769 19.8124 16.6986C19.9809 16.6625 20.1434 16.6445 20.2909 16.6445C20.6309 16.6445 20.9287 16.7378 21.1755 16.9273C21.5305 17.1951 21.696 17.5742 21.684 18.0827C21.684 18.3144 21.5456 18.6003 21.2748 18.9313C20.9859 19.2773 20.6158 19.6173 20.1765 19.9453M22.8936 23.5259L22.4452 23.1919L22.367 23.2792C22.0571 23.6402 21.702 23.9472 21.3109 24.1939C20.9287 24.4316 20.5466 24.573 20.1765 24.6151C19.8726 24.6392 19.5657 24.6001 19.2588 24.4948C18.9549 24.3925 18.6871 24.23 18.4614 24.0193C18.1966 23.7846 17.9589 23.4717 17.7724 23.0866C17.5979 22.7345 17.4534 22.3434 17.3481 21.9251C17.8326 21.7988 18.3742 21.6002 18.976 21.3324C19.6259 21.0435 20.2427 20.7186 20.8114 20.3635C21.3831 20.0055 21.8736 19.6173 22.2677 19.2081C22.6769 18.7838 22.8845 18.3686 22.8845 17.9744C22.8845 17.5803 22.7943 17.2523 22.6107 16.9574C22.4332 16.6686 22.1835 16.4369 21.8675 16.2684C21.5636 16.0999 21.1965 16.0006 20.7843 15.9705C20.3781 15.9404 19.9358 15.9855 19.4604 16.1029C19.0331 16.2142 18.6119 16.3918 18.2057 16.6385C17.8025 16.8792 17.4384 17.1981 17.1225 17.5833C16.8035 17.9684 16.5478 18.4167 16.3552 18.9222C16.1626 19.4277 16.0543 20.0054 16.0423 20.6403C16.0302 21.2903 16.1054 21.9101 16.277 22.4938C16.4485 23.0746 16.6982 23.5861 17.0262 24.0224C17.3511 24.4586 17.7513 24.8017 18.2237 25.0484C18.648 25.2681 19.1324 25.3824 19.656 25.3824C19.7162 25.3824 19.7733 25.3794 19.8335 25.3764C20.1163 25.3613 20.4022 25.2981 20.685 25.1898C20.9649 25.0845 21.2357 24.9521 21.4974 24.7957C21.7472 24.6452 21.9909 24.4617 22.2226 24.248C22.4422 24.0404 22.6408 23.8298 22.8123 23.6192L22.8936 23.5199V23.5259Z" fill="#3BA5BC"/>
<path d="M24.8828 12.462C25.0844 12.0618 25.274 11.782 25.4455 11.6346C25.6651 11.442 25.7343 11.4269 25.7464 11.4269C25.7464 11.4269 25.7855 11.4601 25.7855 11.6376V24.6331C25.7855 24.9069 25.8457 25.0965 25.9721 25.2139C26.0954 25.3252 26.2579 25.3823 26.4595 25.3823C26.5919 25.3823 26.7423 25.3402 26.9048 25.2559C27.0553 25.1747 27.2177 25.0694 27.3742 24.937C27.5367 24.8076 27.6962 24.6572 27.8526 24.4887C28.0121 24.3172 28.1595 24.1276 28.2859 23.929L28.322 23.8779L28.2979 23.8207C28.2739 23.7515 28.2468 23.6853 28.2257 23.6281C28.2047 23.565 28.1776 23.4957 28.1505 23.4235L28.0452 23.1527L27.9218 23.4145C27.8556 23.5589 27.7834 23.6853 27.7052 23.7876C27.6239 23.8929 27.5427 23.9862 27.4645 24.0644C27.311 24.2179 27.2087 24.269 27.1515 24.2841C27.0793 24.3051 27.0372 24.3142 26.9891 24.2871C26.965 24.2781 26.9319 24.263 26.9199 24.239C26.9169 24.2299 26.8988 24.1788 26.8988 24.0253V11.2434C26.8988 10.9666 26.8356 10.777 26.7092 10.6597C26.5046 10.4731 26.1887 10.3979 25.7735 10.6296C25.62 10.7168 25.4575 10.8402 25.2981 10.9937C25.1446 11.1381 24.9911 11.3096 24.8407 11.4992C24.6963 11.6857 24.5729 11.8903 24.4676 12.107L24.4375 12.1701L24.7926 12.6396L24.8828 12.462Z" fill="#3BA5BC"/>
<path d="M42.2591 1.43413C42.3253 1.55448 42.3524 1.68687 42.3344 1.83731C42.3133 2.01785 42.2952 2.18935 42.2802 2.35785C42.2591 2.54139 42.2621 2.69486 42.2952 2.82425C42.3253 2.9446 42.4216 3.08903 42.7346 3.11912C42.7586 3.11912 42.7857 3.11912 42.8068 3.11912C43.0595 3.11912 43.3062 3.03186 43.55 2.85433C43.8178 2.65875 43.9893 2.41203 44.0615 2.11716C44.1397 1.80423 44.1156 1.51534 43.9863 1.25959C43.8629 1.00985 43.6733 0.80527 43.4356 0.651815C43.1167 0.444199 42.7285 0.326838 42.2832 0.299757C41.8409 0.272677 41.3805 0.32082 40.9172 0.450204C40.2341 0.636757 39.6955 0.892508 39.2683 1.23252C38.7748 1.62669 38.4288 1.95166 38.0797 2.48123C37.7638 2.96265 37.2854 3.68781 37.0146 4.3257C36.9815 4.40393 36.9333 4.50925 36.8762 4.63864C36.4429 5.6045 35.4259 7.86119 34.3878 11.4388L33.6025 13.9332H33.5032L32.089 14.3003L31.8092 15.1548H33.2203L28.5054 31.5264C28.385 31.9115 28.2436 32.3117 28.0871 32.7179C27.9367 33.1151 27.7682 33.5002 27.5816 33.8643C27.4011 34.2194 27.1874 34.5533 26.9527 34.8572C26.715 35.1611 26.4713 35.4019 26.2035 35.5884C25.7763 35.8773 25.352 36.0187 24.9488 36.0187C24.5456 36.0187 24.3139 35.8923 24.1785 35.6305C24.1123 35.5102 24.0852 35.3748 24.1033 35.2213L24.1575 34.7008C24.1725 34.5142 24.1665 34.3578 24.1244 34.2284C24.0913 34.111 23.989 33.9696 23.7001 33.9395C23.4263 33.9155 23.1525 34.0087 22.8847 34.2013C22.6169 34.3939 22.4454 34.6436 22.3732 34.9355C22.2919 35.2484 22.319 35.5372 22.4484 35.793C22.5748 36.0427 22.7583 36.2474 23.002 36.4008C23.315 36.6084 23.7001 36.7258 24.1545 36.7529C24.2327 36.7559 24.3109 36.7589 24.3922 36.7589C24.7623 36.7589 25.1414 36.7047 25.5175 36.6024C26.1223 36.4369 26.6669 36.1661 27.1423 35.793C27.6117 35.4199 28.042 34.9655 28.4151 34.436C28.7912 33.9034 29.1222 33.3167 29.39 32.6818C29.6638 32.0409 31.5143 26.2577 31.7159 25.6078L35.1761 15.1458H37.9744L38.5311 13.9212H35.5583L38.0166 5.52023C38.1399 5.13208 38.2753 4.72889 38.4198 4.3257C38.5642 3.91949 38.7267 3.53433 38.8982 3.17928C39.0697 2.82724 39.2713 2.49026 39.5 2.18937C39.7226 1.88848 39.9694 1.64173 40.2341 1.45819C40.6614 1.17234 41.0857 1.02492 41.4858 1.02492C41.886 1.02492 42.1207 1.15127 42.2591 1.41606" fill="#3BA5BC"/>
<path d="M55.703 10.8849C55.375 10.8849 54.8545 10.897 54.5356 10.915C54.2317 10.9361 54.003 10.9481 53.8616 10.9481C53.7352 10.9481 53.5246 10.9391 53.2387 10.915C52.9408 10.897 52.4293 10.8849 52.1043 10.8849C51.9238 10.8849 51.8125 11.0023 51.8125 11.1858C51.8125 11.3694 51.9238 11.4837 52.1043 11.4837H52.339C52.5798 11.4837 52.8897 11.5288 52.9649 11.577C52.995 11.598 53.1003 11.7033 53.1695 12.2209C53.2267 12.6211 53.2598 13.268 53.2778 14.1436C53.2929 15.0523 53.2959 16.31 53.2959 17.8867C53.2959 18.9037 53.2267 19.8605 53.0883 20.7241C52.9499 21.5816 52.7031 22.3339 52.3541 22.9567C52.0111 23.5766 51.5357 24.058 50.9369 24.401C50.3441 24.744 49.5708 24.9155 48.6411 24.9155C47.7113 24.9155 46.938 24.744 46.3453 24.401C45.7495 24.061 45.2741 23.5766 44.9281 22.9567C44.579 22.3309 44.3323 21.5786 44.1909 20.7241C44.0555 19.8605 43.9833 18.9037 43.9833 17.8867C43.9833 16.31 43.9893 15.0493 44.0043 14.1436C44.0194 13.265 44.0525 12.618 44.1096 12.2179C44.1788 11.7003 44.2842 11.595 44.3173 11.5739C44.3925 11.5258 44.7024 11.4777 44.9431 11.4777H45.1748C45.3523 11.4777 45.4667 11.3633 45.4667 11.1798C45.4667 10.9963 45.3523 10.8789 45.1748 10.8789C44.8498 10.8789 44.3353 10.8909 44.0404 10.909C43.7516 10.9301 43.544 10.9421 43.4176 10.9421C43.2762 10.9421 43.0475 10.9331 42.7406 10.909C42.4246 10.8909 41.9011 10.8789 41.5761 10.8789C41.3926 10.8789 41.2812 10.9963 41.2812 11.1798C41.2812 11.3633 41.3926 11.4777 41.5761 11.4777H41.871C42.0907 11.4777 42.4216 11.5228 42.5089 11.5739C42.551 11.601 42.6533 11.7124 42.7225 12.2149C42.7767 12.615 42.8128 13.265 42.8278 14.1376C42.8429 15.0162 42.8489 16.2769 42.8489 17.8807C42.8489 18.7984 42.894 19.6439 42.9783 20.3991C43.0625 21.1544 43.222 21.8585 43.4477 22.4933C43.8057 23.4712 44.3895 24.2536 45.1748 24.8222C45.9421 25.3759 47.1727 25.6798 48.6411 25.6798C50.1094 25.6798 51.3371 25.3759 52.1074 24.8222C52.8927 24.2536 53.4764 23.4682 53.8345 22.4903C54.0632 21.8585 54.2196 21.1544 54.3039 20.3991C54.3851 19.6439 54.4302 18.7984 54.4302 17.8807C54.4302 16.2769 54.4363 15.0162 54.4513 14.1376C54.4633 13.262 54.5025 12.615 54.5566 12.2149C54.6258 11.7094 54.7311 11.598 54.7703 11.5739C54.8605 11.5198 55.1855 11.4777 55.4142 11.4777H55.709C55.8896 11.4777 56.0009 11.3633 56.0009 11.1798C56.0009 10.9963 55.8896 10.8789 55.709 10.8789" fill="#3BA5BC"/>
<path d="M38.4046 26.9436C38.3144 26.8985 38.2181 26.8684 38.1098 26.8624C38.0014 26.8563 37.8991 26.8684 37.8028 26.8955C37.6705 26.9346 37.5621 27.0008 37.4779 27.088C37.3966 27.1783 37.3304 27.2836 37.2853 27.41C37.2462 27.5333 37.2101 27.6687 37.195 27.8162C37.18 27.9576 37.168 28.1141 37.168 28.2765V28.7549H37.0837L36.7588 28.8482V28.9957H37.168V31.9324C37.168 32.0196 37.168 32.1099 37.1589 32.2032C37.1559 32.2935 37.1439 32.3807 37.1258 32.462C37.1108 32.5402 37.0897 32.6154 37.0596 32.6816C37.0326 32.7448 36.9934 32.799 36.9513 32.8351C36.8761 32.8983 36.7979 32.9253 36.7106 32.9253C36.6294 32.9253 36.5692 32.8983 36.515 32.8411C36.494 32.814 36.4789 32.7869 36.4699 32.7538V32.7418C36.4609 32.7057 36.4549 32.6696 36.4428 32.6365C36.4338 32.5913 36.4218 32.5522 36.4037 32.5221C36.3826 32.495 36.3495 32.4589 36.2773 32.4529C36.2051 32.4469 36.1419 32.468 36.0908 32.5191C36.0336 32.5703 36.0095 32.6335 36.0155 32.7117C36.0216 32.7869 36.0456 32.8561 36.0968 32.9163C36.1449 32.9735 36.1991 33.0186 36.2683 33.0547C36.3586 33.1029 36.4549 33.1299 36.5662 33.136C36.5812 33.136 36.6023 33.136 36.6203 33.136C36.7046 33.136 36.7888 33.1239 36.8701 33.0999C37.0025 33.0577 37.1108 32.9975 37.1981 32.9073C37.2823 32.817 37.3485 32.7117 37.3966 32.5853C37.4448 32.462 37.4809 32.3265 37.4929 32.1791C37.511 32.0347 37.52 31.8812 37.52 31.7218V28.9927H38.197L38.2482 28.752H37.52V28.0659C37.52 27.9757 37.523 27.8884 37.526 27.7951C37.532 27.7018 37.5381 27.6176 37.5531 27.5394C37.5651 27.4581 37.5892 27.3829 37.6163 27.3197C37.6434 27.2535 37.6795 27.2024 37.7216 27.1633C37.7968 27.1001 37.8751 27.073 37.9593 27.073C38.0436 27.073 38.1067 27.1001 38.1549 27.1602C38.179 27.1843 38.191 27.2144 38.2 27.2445V27.2595C38.2121 27.2956 38.2151 27.3317 38.2241 27.3648C38.2361 27.407 38.2482 27.4461 38.2632 27.4732C38.2903 27.5153 38.3294 27.5394 38.3926 27.5454C38.4678 27.5514 38.528 27.5273 38.5792 27.4762C38.6333 27.425 38.6604 27.3618 38.6544 27.2836C38.6484 27.2114 38.6213 27.1392 38.5731 27.082C38.528 27.0248 38.4708 26.9767 38.4016 26.9406" fill="#3BA5BC"/>
<path d="M40.6011 29.9649C40.6011 30.1244 40.58 30.2779 40.5409 30.4223C40.5048 30.5637 40.4507 30.6901 40.3845 30.7954C40.3183 30.9007 40.237 30.985 40.1407 31.0452C40.0475 31.1054 39.9452 31.1324 39.8278 31.1324C39.7105 31.1324 39.6142 31.1023 39.5179 31.0452C39.4246 30.985 39.3434 30.9007 39.2772 30.7954C39.211 30.6901 39.1568 30.5637 39.1207 30.4223C39.0846 30.2779 39.0665 30.1244 39.0665 29.9649C39.0665 29.8055 39.0846 29.658 39.1207 29.5136C39.1568 29.3722 39.214 29.2488 39.2772 29.1435C39.3434 29.0442 39.4246 28.96 39.5179 28.8998C39.6142 28.8396 39.7165 28.8125 39.8278 28.8125C39.9391 28.8125 40.0444 28.8426 40.1407 28.8998C40.237 28.963 40.3183 29.0442 40.3845 29.1435C40.4507 29.2518 40.5018 29.3752 40.5409 29.5136C40.577 29.655 40.6011 29.8055 40.6011 29.9649ZM40.6342 28.9479C40.5259 28.8336 40.4025 28.7433 40.2641 28.6862C39.9933 28.5688 39.6743 28.5688 39.4066 28.6862C39.2681 28.7463 39.1448 28.8336 39.0365 28.9479C38.9311 29.0653 38.8439 29.2097 38.7837 29.3782C38.7235 29.5467 38.6904 29.7423 38.6904 29.9619C38.6904 30.1816 38.7205 30.3832 38.7807 30.5547C38.8409 30.7262 38.9221 30.8706 39.0214 30.985C39.1237 31.0993 39.2471 31.1926 39.3825 31.2528C39.5209 31.313 39.6743 31.3431 39.8278 31.3431C39.9903 31.3431 40.1377 31.313 40.2761 31.2528C40.4145 31.1896 40.5379 31.0993 40.6372 30.985C40.7425 30.8706 40.8238 30.7262 40.8809 30.5547C40.9381 30.3832 40.9712 30.1846 40.9712 29.9619C40.9712 29.7393 40.9381 29.5467 40.8779 29.3782C40.8177 29.2067 40.7305 29.0653 40.6282 28.9479" fill="#3BA5BC"/>
<path d="M43.0027 28.6106C42.8974 28.6226 42.8011 28.6678 42.7138 28.74C42.6266 28.8092 42.5483 28.8995 42.4731 29.0078C42.3979 29.1131 42.3257 29.2395 42.2534 29.3779C42.2143 29.4621 42.1722 29.5494 42.1271 29.6427V28.8423C42.1271 28.758 42.109 28.7009 42.0699 28.6618C42.0037 28.6016 41.9104 28.5805 41.778 28.6527C41.7329 28.6798 41.6848 28.7159 41.6366 28.761C41.5915 28.8032 41.5464 28.8543 41.5042 28.9085C41.4591 28.9626 41.42 29.0228 41.3929 29.086L41.3809 29.1131L41.5012 29.2726L41.5343 29.2034C41.5945 29.086 41.6456 29.0078 41.6938 28.9657C41.7359 28.9296 41.754 28.9175 41.766 28.9115C41.769 28.9175 41.772 28.9326 41.772 28.9566V31.3186C41.772 31.3457 41.7841 31.3608 41.7931 31.3698C41.8021 31.3788 41.8172 31.3908 41.8472 31.3908C41.8533 31.3908 41.8623 31.3908 41.8713 31.3878C41.9044 31.3818 41.9375 31.3668 41.9706 31.3457C42.0037 31.3247 42.0368 31.3006 42.0669 31.2765C42.106 31.2404 42.1211 31.2103 42.1211 31.1742V30.2565C42.1602 30.085 42.2173 29.9165 42.2896 29.754C42.3618 29.5915 42.44 29.4441 42.5182 29.3207C42.5995 29.1943 42.6747 29.095 42.7499 29.0198C42.8974 28.8724 42.9214 28.9115 42.9274 28.9205C42.9365 28.9356 42.9485 28.9506 42.9545 28.9687C42.9666 28.9867 42.9786 29.0048 42.9906 29.0228C43.0117 29.0559 43.0448 29.071 43.0899 29.08C43.1501 29.089 43.2013 29.077 43.2524 29.0379C43.3036 29.0018 43.3306 28.9416 43.3306 28.8543C43.3306 28.7791 43.3036 28.7159 43.2434 28.6648C43.1862 28.6136 43.102 28.5956 42.9936 28.6106" fill="#3BA5BC"/>
<path d="M47.5158 28.5923C47.4586 28.5953 47.4074 28.6104 47.3683 28.6435C47.3292 28.6735 47.2991 28.7037 47.278 28.7428C47.26 28.7819 47.248 28.824 47.26 28.8721C47.269 28.9173 47.2901 28.9564 47.3322 28.9895C47.3563 29.0075 47.3804 29.0166 47.4044 29.0196C47.4195 29.0196 47.4315 29.0196 47.4435 29.0256H47.4556C47.4556 29.0256 47.4766 29.0346 47.4947 29.0406C47.5097 29.0497 47.5278 29.0647 47.5398 29.0858C47.5549 29.1099 47.5669 29.149 47.5729 29.1941C47.5789 29.2422 47.5789 29.2964 47.5759 29.3656C47.5669 29.4559 47.5458 29.5612 47.5188 29.6785C47.4887 29.7959 47.4465 29.9253 47.3954 30.0637C47.3412 30.1991 47.2811 30.3435 47.2119 30.497C47.1396 30.6504 47.0674 30.8009 46.9952 30.9453C46.9681 30.9904 46.932 31.0085 46.8779 31.0085C46.8688 31.0085 46.8598 31.0085 46.8448 31.0085C46.7966 31.0025 46.7635 30.9724 46.7334 30.9152C46.6973 30.843 46.6672 30.7527 46.6371 30.6444L46.243 28.8631C46.2309 28.7879 46.2129 28.7337 46.1918 28.6976C46.1738 28.6615 46.1347 28.6224 46.0504 28.6224C46.0113 28.6224 45.9662 28.6344 45.915 28.6615C45.8669 28.6856 45.8157 28.7157 45.7676 28.7578C45.7164 28.7969 45.6713 28.8451 45.6171 28.8992C45.569 28.9564 45.5269 29.0136 45.4968 29.0707L45.4787 29.0978L45.59 29.2603L45.6322 29.1941C45.7014 29.0828 45.7615 29.0076 45.8127 28.9684C45.8488 28.9414 45.8729 28.9263 45.8849 28.9203C45.8879 28.9293 45.8939 28.9474 45.903 28.9775L46.2881 30.6595C46.3062 30.7557 46.3302 30.84 46.3573 30.9182C46.3814 30.9964 46.4115 31.0717 46.4476 31.1318C46.4837 31.195 46.5288 31.2462 46.58 31.2823C46.6371 31.3244 46.7064 31.3485 46.7816 31.3425C46.7124 31.4628 46.6311 31.5952 46.5409 31.7366C46.4175 31.9172 46.2911 32.0917 46.1617 32.2572C46.0324 32.4197 45.903 32.5551 45.7856 32.6604C45.6713 32.7597 45.572 32.8108 45.5028 32.8108C45.4697 32.8108 45.4607 32.8048 45.4607 32.8048C45.4516 32.7898 45.4456 32.7777 45.4366 32.7627C45.4246 32.7386 45.4095 32.7145 45.3975 32.6935C45.3734 32.6634 45.3373 32.6453 45.2952 32.6393C45.223 32.6303 45.1628 32.6483 45.1146 32.6905C45.0665 32.7356 45.0364 32.7988 45.0334 32.88C45.0304 32.9793 45.0635 33.0546 45.1327 33.1057C45.1868 33.1448 45.2561 33.1659 45.3283 33.1659C45.3433 33.1659 45.3584 33.1659 45.3704 33.1629C45.4938 33.1598 45.6292 33.0997 45.7766 32.9853C45.915 32.877 46.0624 32.7326 46.2129 32.552C46.3603 32.3775 46.5108 32.1729 46.6642 31.9473C46.8147 31.7216 46.9621 31.4869 47.1005 31.2492C47.2149 31.0446 47.3262 30.834 47.4255 30.6233C47.5218 30.4187 47.609 30.2141 47.6782 30.0216C47.7474 29.829 47.8046 29.6484 47.8407 29.483C47.8798 29.3175 47.8979 29.17 47.8979 29.0437C47.8979 28.9173 47.8648 28.8089 47.8076 28.7187C47.7474 28.6224 47.6512 28.5773 47.5188 28.5893" fill="#3BA5BC"/>
<path d="M50.3198 29.9649C50.3198 30.1244 50.2987 30.2779 50.2626 30.4223C50.2265 30.5637 50.1753 30.6901 50.1061 30.7954C50.0429 30.9007 49.9587 30.985 49.8654 31.0452C49.7721 31.1054 49.6698 31.1324 49.5555 31.1324C49.4412 31.1324 49.3358 31.1023 49.2456 31.0452C49.1493 30.985 49.0681 30.9007 49.0019 30.7954C48.9357 30.6901 48.8845 30.5637 48.8454 30.4223C48.8093 30.2779 48.7882 30.1244 48.7882 29.9649C48.7882 29.8055 48.8093 29.658 48.8454 29.5136C48.8815 29.3722 48.9387 29.2488 49.0019 29.1435C49.0681 29.0442 49.1493 28.96 49.2456 28.8998C49.3389 28.8396 49.4382 28.8125 49.5555 28.8125C49.6668 28.8125 49.7691 28.8426 49.8654 28.8998C49.9617 28.963 50.0429 29.0442 50.1061 29.1435C50.1723 29.2518 50.2235 29.3752 50.2626 29.5136C50.3017 29.655 50.3198 29.8055 50.3198 29.9649ZM50.3499 28.9479C50.2445 28.8336 50.1212 28.7433 49.9858 28.6862C49.712 28.5688 49.396 28.5688 49.1252 28.6862C48.9898 28.7463 48.8635 28.8336 48.7581 28.9479C48.6528 29.0653 48.5656 29.2097 48.5024 29.3782C48.4452 29.5467 48.4121 29.7423 48.4121 29.9619C48.4121 30.1816 48.4392 30.3832 48.5024 30.5547C48.5626 30.7262 48.6438 30.8706 48.7431 30.985C48.8454 31.0993 48.9658 31.1926 49.1072 31.2528C49.2426 31.313 49.393 31.3431 49.5525 31.3431C49.712 31.3431 49.8624 31.313 49.9978 31.2528C50.1392 31.1896 50.2596 31.0993 50.3589 30.985C50.4612 30.8706 50.5454 30.7262 50.6026 30.5547C50.6628 30.3832 50.6899 30.1846 50.6899 29.9619C50.6899 29.7393 50.6598 29.5467 50.6026 29.3782C50.5364 29.2067 50.4522 29.0653 50.3468 28.9479" fill="#3BA5BC"/>
<path d="M55.1698 27.0967C55.0645 27.0967 54.9712 27.0997 54.89 27.1057C54.8147 27.1117 54.7515 27.1117 54.7154 27.1117C54.6793 27.1117 54.6101 27.1117 54.5078 27.1057C54.3995 27.0997 54.3062 27.0967 54.2099 27.0967C54.1528 27.0967 54.1167 27.1358 54.1167 27.199C54.1167 27.2622 54.1528 27.2983 54.2099 27.2983H54.2822C54.3333 27.2983 54.3784 27.3043 54.4206 27.3073C54.4476 27.3103 54.4687 27.3223 54.4898 27.3494C54.5108 27.3765 54.5319 27.4246 54.5439 27.4938C54.556 27.5661 54.565 27.6654 54.574 27.8068C54.58 27.9422 54.583 28.1197 54.5861 28.3303C54.5861 28.547 54.5891 28.8087 54.5891 29.1187C54.5891 29.2902 54.58 29.4707 54.562 29.6572C54.5439 29.8408 54.5168 30.0063 54.4868 30.1477C54.4506 30.2951 54.3995 30.4366 54.3363 30.5629C54.2701 30.6893 54.1949 30.8007 54.1016 30.8909C54.0053 30.9812 53.891 31.0534 53.7586 31.1045C53.6292 31.1587 53.4758 31.1858 53.3043 31.1858C53.0395 31.1858 52.8168 31.1346 52.6423 31.0384C52.4708 30.9421 52.3324 30.8007 52.2391 30.6231C52.1338 30.4456 52.0616 30.2259 52.0224 29.9792C51.9833 29.7265 51.9623 29.4496 51.9623 29.1548C51.9623 28.6884 51.9653 28.3213 51.9683 28.0686C51.9743 27.8158 51.9803 27.6262 51.9984 27.5089C52.0164 27.3554 52.0465 27.3344 52.0525 27.3313C52.0796 27.3163 52.1217 27.3043 52.1729 27.3043H52.2391C52.2963 27.3043 52.3384 27.2652 52.3384 27.205C52.3384 27.1448 52.2963 27.1027 52.2391 27.1027C52.1488 27.1027 52.0525 27.1057 51.9623 27.1117C51.881 27.1177 51.8178 27.1177 51.7817 27.1177C51.7426 27.1177 51.6764 27.1177 51.5892 27.1117C51.4929 27.1057 51.3966 27.1027 51.3063 27.1027C51.2461 27.1027 51.207 27.1418 51.207 27.205C51.207 27.2682 51.2431 27.3043 51.3063 27.3043H51.3936C51.4447 27.3043 51.4869 27.3133 51.5139 27.3313C51.5169 27.3344 51.55 27.3585 51.5741 27.5089C51.5892 27.6262 51.5982 27.8158 51.6042 28.0686C51.6072 28.3213 51.6072 28.6884 51.6072 29.1548C51.6072 29.4226 51.6223 29.6693 51.6433 29.8889C51.6734 30.1116 51.7155 30.3162 51.7847 30.4998C51.8901 30.7886 52.0646 31.0173 52.2933 31.1858C52.5249 31.3543 52.8499 31.4385 53.2591 31.4385C53.5991 31.4385 53.885 31.3483 54.1076 31.1768C54.3273 31.0083 54.5018 30.7826 54.6191 30.5088C54.7094 30.3042 54.7726 30.0604 54.8057 29.7836C54.8388 29.5098 54.8538 29.23 54.8538 28.9471C54.8538 28.5139 54.8599 28.1769 54.8689 27.9482C54.8779 27.7195 54.896 27.554 54.914 27.4547C54.9411 27.3344 54.9652 27.3193 54.9652 27.3193C54.9892 27.3073 55.0254 27.3043 55.0645 27.3043H55.1788C55.236 27.3043 55.2751 27.2652 55.2751 27.205C55.2751 27.1448 55.236 27.1027 55.1788 27.1027" fill="#3BA5BC"/>
<path d="M5.14964 8.15607H5.05636C5.0022 8.15607 4.96309 8.15007 4.933 8.13804C4.933 8.13804 4.90893 8.12297 4.88485 8.00864C4.86981 7.91536 4.86078 7.76492 4.85476 7.56332C4.85476 7.36172 4.84875 7.06684 4.84875 6.69374V5.767C4.84875 5.40894 4.85476 5.12609 4.85476 4.9275C4.86078 4.73192 4.86981 4.5845 4.88485 4.48821C4.90592 4.37086 4.933 4.34679 4.93901 4.34078C4.9691 4.32573 5.00822 4.31668 5.05636 4.31668H5.14362C5.2038 4.31668 5.24592 4.27758 5.24592 4.2174C5.24592 4.15722 5.2038 4.12109 5.14362 4.12109C5.05335 4.12109 4.95707 4.12411 4.86379 4.13013C4.77051 4.13615 4.70432 4.13615 4.66821 4.13615C4.6291 4.13615 4.57193 4.13615 4.49068 4.13013C4.40042 4.12411 4.30714 4.12109 4.21086 4.12109C4.15068 4.12109 4.11758 4.15722 4.11758 4.2174C4.11758 4.27758 4.15068 4.31668 4.21086 4.31668H4.2921C4.34325 4.31668 4.38236 4.32573 4.40644 4.34078C4.41546 4.34378 4.43953 4.37086 4.45759 4.48821C4.47263 4.5845 4.48467 4.73192 4.48768 4.9275C4.49369 5.12609 4.49369 5.40894 4.49369 5.767V6.06187L3.35331 6.05284L2.22798 6.06187V5.767C2.22798 5.40894 2.22798 5.12609 2.22798 4.9275C2.237 4.73192 2.24302 4.5845 2.25806 4.48821C2.27612 4.37086 2.30621 4.34679 2.31222 4.34078C2.3363 4.32573 2.37842 4.31668 2.42656 4.31668H2.5078C2.56798 4.31668 2.60409 4.27758 2.60409 4.2174C2.60409 4.15722 2.56497 4.12109 2.5078 4.12109C2.41152 4.12109 2.31523 4.12411 2.22798 4.13013C2.14673 4.13615 2.08656 4.13615 2.05045 4.13615C2.00832 4.13615 1.94213 4.13615 1.85487 4.13013C1.76159 4.12411 1.6623 4.12109 1.57203 4.12109C1.51486 4.12109 1.47274 4.15722 1.47274 4.2174C1.47274 4.27758 1.51486 4.31668 1.57203 4.31668H1.65929C1.70743 4.31668 1.74956 4.32573 1.77664 4.34078C1.78265 4.34679 1.80973 4.37086 1.8308 4.48821C1.84584 4.5845 1.85788 4.73192 1.86089 4.9275C1.8669 5.12609 1.8669 5.40894 1.8669 5.767V6.69374C1.8669 7.06684 1.8669 7.36172 1.86089 7.56332C1.85788 7.76492 1.84584 7.91235 1.8308 8.00864C1.80973 8.12297 1.78265 8.13804 1.78265 8.13804C1.75557 8.15007 1.71345 8.15607 1.6623 8.15607H1.56902C1.50884 8.15607 1.46973 8.19517 1.46973 8.25535C1.46973 8.31854 1.50884 8.35768 1.56902 8.35768C1.66531 8.35768 1.7646 8.35768 1.85487 8.35166C1.94514 8.34263 2.01133 8.33961 2.05346 8.33961C2.08656 8.33961 2.14974 8.33962 2.23098 8.35166C2.31222 8.35467 2.4055 8.35768 2.51081 8.35768C2.57099 8.35768 2.6071 8.31854 2.6071 8.25535C2.6071 8.19216 2.56798 8.15607 2.51081 8.15607H2.42957C2.36338 8.15607 2.32727 8.14706 2.30922 8.13804C2.30922 8.13804 2.28514 8.12297 2.26107 8.00562C2.24603 7.91235 2.24001 7.76492 2.23098 7.56332C2.23098 7.36172 2.23098 7.06985 2.23098 6.69374V6.29658L3.35632 6.30859L4.4967 6.29658V6.69374C4.4967 7.06684 4.4967 7.35871 4.49068 7.56332C4.48768 7.76492 4.47865 7.91235 4.4606 8.00562C4.44254 8.12297 4.41546 8.13804 4.41546 8.13804C4.39741 8.14706 4.3613 8.15607 4.2921 8.15607H4.21086C4.15068 8.15607 4.11758 8.19517 4.11758 8.25535C4.11758 8.31553 4.15068 8.35768 4.21086 8.35768C4.31617 8.35768 4.40644 8.35768 4.49068 8.35166C4.57193 8.34263 4.6291 8.33961 4.66821 8.33961C4.70432 8.33961 4.77051 8.33962 4.86379 8.35166C4.95707 8.35467 5.05034 8.35768 5.14964 8.35768C5.20982 8.35768 5.24893 8.31854 5.24893 8.25535C5.24893 8.19216 5.21283 8.15607 5.14964 8.15607Z" fill="#3BA5BC"/>
<path d="M6.1009 7.15662C6.09187 7.08441 6.08886 7.00918 6.08886 6.93095C6.08886 6.78953 6.10691 6.65712 6.14603 6.53074C6.17913 6.40738 6.2363 6.29606 6.30249 6.20278C6.36869 6.1095 6.44692 6.02825 6.53719 5.96205C6.62746 5.89886 6.72976 5.85375 6.84109 5.82968C6.88623 5.82065 6.93136 5.81462 6.97649 5.81462C7.07278 5.81462 7.15402 5.8417 7.22623 5.89586C7.32854 5.97109 7.37367 6.07943 7.37066 6.22085C7.37066 6.28705 7.33155 6.36526 7.25331 6.46154C7.16906 6.56084 7.06074 6.65711 6.93437 6.7534C6.80799 6.84668 6.66357 6.93397 6.50409 7.0122C6.36869 7.07839 6.22727 7.12653 6.1009 7.15963M7.56925 7.72829C7.47898 7.8336 7.37668 7.92089 7.26535 7.9901C7.15402 8.0593 7.0457 8.1014 6.94339 8.11043C6.85614 8.11945 6.76587 8.10742 6.68162 8.07733C6.59436 8.04724 6.51914 8.00212 6.45294 7.94195C6.37772 7.87274 6.30851 7.78548 6.25736 7.67415C6.20621 7.57485 6.16709 7.46654 6.14001 7.3492C6.27241 7.31309 6.42887 7.2559 6.60038 7.18068C6.79295 7.09643 6.97348 7.00016 7.13898 6.89786C7.30447 6.79255 7.44889 6.67821 7.56323 6.56086C7.68359 6.43449 7.74678 6.31109 7.74678 6.19374C7.74678 6.0764 7.7197 5.9771 7.66253 5.89285C7.61138 5.80559 7.53615 5.73941 7.44288 5.68525C7.35261 5.6341 7.2473 5.60701 7.12393 5.59798C7.00357 5.58896 6.87419 5.59798 6.72976 5.63409C6.60339 5.66719 6.48303 5.71835 6.36267 5.79357C6.24533 5.86578 6.14001 5.95907 6.04373 6.0704C5.95346 6.18474 5.87824 6.3141 5.82107 6.46154C5.7639 6.61199 5.7308 6.7805 5.72779 6.96706C5.72478 7.15963 5.74885 7.34014 5.797 7.51165C5.84815 7.68316 5.92337 7.8336 6.01966 7.95998C6.11293 8.08936 6.23028 8.19167 6.3717 8.26388C6.49507 8.32707 6.63648 8.36019 6.79295 8.36019C6.811 8.36019 6.82906 8.36019 6.84711 8.36019C6.93136 8.35718 7.01561 8.33911 7.09986 8.30601C7.1811 8.27592 7.25933 8.2338 7.33756 8.19167C7.41881 8.14353 7.485 8.08936 7.5512 8.02918C7.61438 7.969 7.67155 7.90582 7.72271 7.84564L7.7528 7.80652L7.60235 7.69218L7.57226 7.72829H7.56925Z" fill="#3BA5BC"/>
<path d="M9.98572 6.30856V6.91034C9.95262 7.00964 9.90448 7.12699 9.83828 7.25035C9.76607 7.37973 9.68483 7.50309 9.60058 7.61743C9.51633 7.73478 9.42606 7.8311 9.33279 7.91234C9.24553 7.98756 9.1703 8.02966 9.10712 8.03568C9.05897 8.0447 9.01685 8.03569 8.97171 8.01162C8.92658 7.98454 8.88145 7.94843 8.83631 7.90029C8.7972 7.85215 8.75808 7.79198 8.72498 7.72277C8.69188 7.65357 8.66781 7.57834 8.64976 7.4971C8.60463 7.27444 8.5956 7.0638 8.61365 6.87424C8.63472 6.68166 8.67684 6.51018 8.74605 6.36876C8.81224 6.22734 8.8995 6.10998 9.00782 6.02272C9.11614 5.93547 9.23349 5.8813 9.36287 5.86324C9.38995 5.85722 9.41403 5.85722 9.44111 5.85722C9.51332 5.85722 9.57651 5.86925 9.63669 5.89332C9.71793 5.92642 9.78412 5.96555 9.83227 6.0167C9.88342 6.06785 9.91953 6.11901 9.9436 6.17618C9.96466 6.23335 9.9797 6.27847 9.9797 6.31157M10.7169 7.81302C10.7079 7.79196 10.7018 7.77392 10.6928 7.75285L10.6537 7.64454L10.6026 7.75285C10.5845 7.79498 10.5634 7.83108 10.5394 7.86117C10.5153 7.89126 10.4942 7.91834 10.4702 7.93941C10.425 7.98454 10.3979 7.99656 10.3829 7.99957C10.3709 7.99957 10.3618 8.00258 10.3468 7.99957C10.3348 7.99656 10.3317 7.99355 10.3317 7.99355C10.3317 7.99355 10.3257 7.98153 10.3257 7.93639V5.64661C10.3257 5.57439 10.2505 5.5503 10.1512 5.58641C10.1181 5.59844 10.085 5.61651 10.0579 5.63757C10.0248 5.66465 10.0068 5.69476 10.0068 5.72786V5.79705C9.9436 5.75493 9.86536 5.71883 9.77209 5.68874C9.65474 5.64962 9.51031 5.64057 9.33579 5.66163C9.14924 5.6857 8.98375 5.75492 8.8333 5.86625C8.68587 5.97458 8.5625 6.116 8.46622 6.28751C8.37595 6.45902 8.30674 6.65458 8.27364 6.87122C8.23453 7.08787 8.23754 7.32258 8.27966 7.5663C8.30373 7.68666 8.33683 7.801 8.39099 7.9033C8.44214 8.0056 8.50232 8.09286 8.57153 8.16206C8.64073 8.23729 8.71896 8.29146 8.80321 8.32757C8.86339 8.35465 8.92959 8.36966 8.98977 8.36966C9.01384 8.36966 9.0349 8.36969 9.05596 8.36367C9.14623 8.35164 9.24252 8.30347 9.33579 8.22825C9.42907 8.15604 9.52235 8.06576 9.6066 7.96045C9.69686 7.85514 9.78111 7.7408 9.85634 7.61743C9.89846 7.55424 9.93758 7.49106 9.97369 7.43088V8.11391C9.97369 8.19816 9.99475 8.25837 10.0339 8.29146C10.0971 8.35164 10.1933 8.37268 10.3227 8.30649C10.3648 8.28542 10.41 8.25234 10.4611 8.21323C10.5123 8.17411 10.5574 8.13197 10.5995 8.08082C10.6507 8.02966 10.6898 7.97252 10.7289 7.91535L10.744 7.89427L10.7349 7.87021C10.7259 7.85215 10.7229 7.83409 10.7139 7.81904" fill="#3BA5BC"/>
<path d="M12.1159 7.82804C12.1099 7.80998 12.1039 7.7889 12.0918 7.76784L12.0467 7.65952L11.9985 7.76486C11.9805 7.80398 11.9624 7.84309 11.9384 7.87017C11.9173 7.90326 11.8902 7.92734 11.8692 7.95141C11.824 7.99354 11.8 8.00556 11.7819 8.01158C11.7699 8.01759 11.7608 8.0176 11.7428 8.01459C11.7368 8.01158 11.7307 8.00856 11.7277 8.00856C11.7277 8.00856 11.7247 7.99655 11.7247 7.95141V4.23235C11.7247 4.15111 11.7067 4.09094 11.6676 4.05484C11.6044 3.99466 11.5051 3.97358 11.3787 4.04279C11.3306 4.06987 11.2854 4.10902 11.2373 4.15114C11.1891 4.19327 11.147 4.24141 11.0989 4.29858C11.0598 4.35575 11.0206 4.41592 10.9936 4.4791L10.9785 4.50617L11.0989 4.66566L11.138 4.59345C11.1952 4.47911 11.2493 4.39785 11.2975 4.35573C11.3426 4.31661 11.3637 4.30459 11.3697 4.29858C11.3697 4.30459 11.3757 4.31961 11.3757 4.34368V8.12592C11.3757 8.21017 11.3937 8.26733 11.4329 8.30343C11.469 8.33653 11.5201 8.3546 11.5833 8.3546C11.6254 8.3546 11.6706 8.34256 11.7187 8.31548C11.7638 8.29141 11.812 8.2613 11.8571 8.22219C11.9053 8.18608 11.9504 8.14096 12.0015 8.08981C12.0467 8.04167 12.0888 7.9875 12.1279 7.92732L12.143 7.90627L12.1309 7.88519C12.1249 7.86413 12.1189 7.8491 12.1129 7.83105" fill="#3BA5BC"/>
<path d="M13.9986 7.56027C13.9685 7.61443 13.9293 7.67162 13.8842 7.72578C13.8391 7.77693 13.7849 7.82808 13.7217 7.87321C13.6616 7.92136 13.5954 7.96048 13.5292 7.99056C13.472 8.02065 13.4028 8.03868 13.3396 8.04169C13.2734 8.0447 13.2222 8.03567 13.1892 7.99655C13.1711 7.97549 13.138 7.9093 13.138 7.70771V6.10396H14.0226L14.0738 5.86625H13.138V5.08393C13.138 5.0388 13.1079 4.99365 13.0237 4.99365C12.9394 4.99365 12.9093 5.0388 12.9093 5.08393C12.9093 5.16217 12.8973 5.24942 12.8762 5.33667C12.8552 5.42694 12.8221 5.5142 12.7829 5.59845C12.7438 5.67969 12.6927 5.74892 12.6355 5.8091C12.5844 5.86326 12.5302 5.89333 12.464 5.90235L12.4219 5.91139V6.10396H12.7829V7.60843C12.7829 7.87321 12.807 8.05675 12.8582 8.16808C12.9123 8.29145 13.0267 8.35463 13.2012 8.35463C13.2734 8.35463 13.3546 8.33656 13.4449 8.29744C13.5352 8.25833 13.6194 8.20718 13.7037 8.15302C13.7909 8.09585 13.8722 8.02965 13.9504 7.96045C14.0256 7.89124 14.0918 7.82206 14.146 7.75586L14.1671 7.73176L14.0437 7.47903L13.9955 7.56027H13.9986Z" fill="#3BA5BC"/>
<path d="M17.1347 7.81019C17.1286 7.78913 17.1226 7.77109 17.1106 7.75003L17.0655 7.64171L17.0173 7.75003C17.0023 7.78613 16.9782 7.82524 16.9571 7.85533C16.9331 7.88542 16.909 7.9125 16.8879 7.93357C16.8428 7.9787 16.8157 7.99072 16.8007 7.99373C16.7856 7.99373 16.7796 7.99373 16.7646 7.99373C16.7555 7.98771 16.7525 7.98774 16.7525 7.98774C16.7525 7.98774 16.7465 7.97569 16.7465 7.93056V6.43814C16.7525 6.14327 16.7254 5.94166 16.6743 5.82431C16.6081 5.69192 16.4968 5.6227 16.3222 5.6227C16.1959 5.6227 16.0635 5.66483 15.9401 5.74306C15.8168 5.81829 15.7024 5.91761 15.5881 6.03496C15.4767 6.14929 15.3714 6.27865 15.2721 6.42007C15.2089 6.50131 15.1548 6.58257 15.1036 6.6608V4.22358C15.1036 4.13933 15.0856 4.08213 15.0465 4.04603C14.9803 3.98585 14.884 3.96481 14.7546 4.03401C14.7065 4.0611 14.6583 4.10021 14.6132 4.14233C14.565 4.18747 14.5259 4.23561 14.4778 4.28977C14.4326 4.34393 14.3995 4.40409 14.3664 4.46728L14.3574 4.49435L14.4778 4.65383L14.5139 4.58162C14.5741 4.47029 14.6252 4.38904 14.6734 4.34391C14.7185 4.3078 14.7396 4.29277 14.7426 4.28675C14.7486 4.29277 14.7486 4.30482 14.7486 4.33491V8.32775C14.7486 8.35483 14.7606 8.36985 14.7666 8.37888C14.7757 8.39092 14.7937 8.40298 14.8208 8.40298C14.8298 8.40298 14.8419 8.40297 14.8479 8.39695C14.884 8.39093 14.9141 8.37589 14.9502 8.35482C14.9833 8.33677 15.0164 8.3127 15.0435 8.28562C15.0796 8.24952 15.1006 8.21639 15.1006 8.18329V7.09105C15.1518 6.98875 15.221 6.86841 15.3082 6.73602C15.3985 6.60062 15.4918 6.47424 15.5941 6.35087C15.6964 6.23352 15.8017 6.13122 15.91 6.05299C16.0996 5.91157 16.2651 5.89654 16.3403 6.03194C16.3764 6.10115 16.3945 6.20643 16.3945 6.34184V8.10807C16.3945 8.19232 16.4125 8.25253 16.4516 8.28562C16.5148 8.3458 16.6141 8.36684 16.7405 8.30065C16.7856 8.27958 16.8308 8.24651 16.8819 8.20739C16.9301 8.16827 16.9782 8.12613 17.0233 8.07498C17.0685 8.02383 17.1106 7.96969 17.1497 7.90951L17.1617 7.88843L17.1497 7.86437C17.1437 7.84631 17.1377 7.82825 17.1316 7.8132" fill="#3BA5BC"/>
<path d="M21.2561 3.96174C21.1689 3.9136 21.0696 3.88651 20.9643 3.87748C20.8589 3.87146 20.7566 3.8835 20.6543 3.91359C20.525 3.9527 20.4136 4.01589 20.3324 4.10616C20.2481 4.19342 20.1849 4.30173 20.1428 4.4281C20.0977 4.55448 20.0676 4.68686 20.0495 4.8343C20.0345 4.97572 20.0255 5.13219 20.0255 5.29166V5.77011H19.9382L19.6163 5.86336V6.0108H20.0255V8.94751C20.0255 9.03477 20.0225 9.12504 20.0164 9.21832C20.0104 9.30859 19.9984 9.39584 19.9864 9.47708C19.9683 9.55531 19.9442 9.62752 19.9111 9.69372C19.881 9.75991 19.8449 9.81107 19.8058 9.85019C19.7336 9.91036 19.6524 9.94348 19.5681 9.94348C19.4839 9.94348 19.4207 9.91639 19.3725 9.85621C19.3485 9.82913 19.3334 9.80204 19.3274 9.76894L19.3214 9.75693C19.3154 9.72082 19.3093 9.68468 19.3003 9.65159C19.2883 9.60645 19.2793 9.57035 19.2552 9.54026C19.2401 9.51318 19.204 9.48009 19.1318 9.47106C19.0596 9.46805 18.9964 9.48609 18.9423 9.53725C18.8881 9.5884 18.864 9.6546 18.87 9.72982C18.8731 9.80504 18.9001 9.87125 18.9513 9.93143C18.9964 9.9886 19.0566 10.0337 19.1228 10.0728C19.2101 10.121 19.3093 10.1511 19.4177 10.1541C19.4357 10.1541 19.4538 10.1541 19.4718 10.1541C19.5561 10.1541 19.6433 10.1421 19.7246 10.115C19.857 10.0789 19.9653 10.0127 20.0495 9.9224C20.1308 9.83514 20.2 9.72985 20.2511 9.60347C20.2993 9.4801 20.3324 9.34467 20.3504 9.19724C20.3655 9.0498 20.3745 8.89637 20.3745 8.7369V6.00779H21.0515L21.1027 5.77011H20.3715V5.08707C20.3715 4.99681 20.3715 4.90954 20.3805 4.81626C20.3835 4.72299 20.3926 4.63874 20.4076 4.5575C20.4226 4.47626 20.4437 4.40405 20.4708 4.33786C20.4979 4.27467 20.537 4.2205 20.5791 4.18139C20.6513 4.12121 20.7296 4.08809 20.8138 4.08809C20.8981 4.08809 20.9612 4.11819 21.0094 4.17536C21.0365 4.19943 21.0485 4.22953 21.0545 4.26263V4.27464C21.0635 4.31075 21.0756 4.34388 21.0816 4.37998C21.0906 4.42512 21.1027 4.46122 21.1207 4.49131C21.1418 4.53344 21.1869 4.55751 21.2501 4.56352C21.3223 4.56352 21.3825 4.54544 21.4367 4.4973C21.4908 4.44615 21.5149 4.37998 21.5089 4.30476C21.5089 4.22954 21.4788 4.16032 21.4306 4.10014C21.3855 4.04297 21.3253 3.99484 21.2591 3.96174" fill="#3BA5BC"/>
<path d="M23.4535 6.97918C23.4535 7.13865 23.4354 7.29211 23.3963 7.43654C23.3602 7.57796 23.306 7.70434 23.2398 7.81266C23.1736 7.91496 23.0924 8.00224 22.9991 8.05941C22.9028 8.11959 22.8005 8.14966 22.6862 8.14966C22.5719 8.14966 22.4726 8.11959 22.3763 8.05941C22.28 7.99923 22.1988 7.91496 22.1356 7.81266C22.0694 7.70434 22.0182 7.58097 21.9791 7.43654C21.943 7.29512 21.9249 7.14166 21.9249 6.97918C21.9249 6.8167 21.946 6.67227 21.9791 6.53085C22.0212 6.38944 22.0694 6.26608 22.1356 6.16377C22.1988 6.06147 22.28 5.97724 22.3763 5.91706C22.4726 5.85989 22.5719 5.82678 22.6862 5.82678C22.8005 5.82678 22.9059 5.85688 22.9991 5.91706C23.0924 5.97724 23.1736 6.06147 23.2398 6.16377C23.306 6.26909 23.3572 6.39244 23.3963 6.53085C23.4354 6.67227 23.4535 6.82272 23.4535 6.97918ZM23.4836 5.96518C23.3752 5.85084 23.2549 5.76057 23.1195 5.7034C22.8457 5.58304 22.5267 5.58605 22.2589 5.7034C22.1235 5.76057 22.0002 5.85084 21.8949 5.96518C21.7895 6.08553 21.6993 6.22697 21.6421 6.39547C21.5789 6.56397 21.5488 6.75953 21.5488 6.97918C21.5488 7.19883 21.5789 7.40046 21.6361 7.57197C21.6963 7.74047 21.7775 7.88788 21.8798 8.00222C21.9821 8.11957 22.1055 8.20984 22.2409 8.27002C22.3793 8.3302 22.5267 8.36331 22.6862 8.36331C22.8457 8.36331 22.9931 8.3302 23.1315 8.27002C23.2729 8.20984 23.3933 8.11957 23.4956 8.00222C23.5979 7.88788 23.6791 7.74047 23.7393 7.57197C23.7995 7.40046 23.8296 7.20184 23.8296 6.97918C23.8296 6.75652 23.7965 6.56397 23.7363 6.39547C23.6761 6.22396 23.5889 6.07951 23.4836 5.96518Z" fill="#3BA5BC"/>
<path d="M26.2787 6.97918C26.2787 7.13865 26.2606 7.29211 26.2215 7.43654C26.1854 7.57796 26.1312 7.70434 26.065 7.81266C25.9988 7.91496 25.9206 8.00224 25.8243 8.05941C25.731 8.11959 25.6257 8.14966 25.5144 8.14966C25.4031 8.14966 25.2978 8.11959 25.2015 8.05941C25.1052 7.99923 25.027 7.91496 24.9608 7.81266C24.8946 7.70434 24.8404 7.58097 24.8043 7.43654C24.7682 7.29512 24.7471 7.14166 24.7471 6.97918C24.7471 6.8167 24.7712 6.67227 24.8043 6.53085C24.8404 6.38944 24.8946 6.26608 24.9608 6.16377C25.027 6.06147 25.1052 5.97724 25.2015 5.91706C25.2978 5.85989 25.3971 5.82678 25.5144 5.82678C25.6318 5.82678 25.731 5.85688 25.8243 5.91706C25.9206 5.97724 26.0018 6.06147 26.065 6.16377C26.1312 6.26909 26.1854 6.39244 26.2215 6.53085C26.2576 6.67227 26.2787 6.82272 26.2787 6.97918ZM26.3088 5.96518C26.2034 5.85084 26.0771 5.76057 25.9417 5.7034C25.6679 5.58304 25.3519 5.58605 25.0841 5.7034C24.9457 5.76057 24.8224 5.85084 24.717 5.96518C24.6087 6.08553 24.5245 6.22697 24.4643 6.39547C24.4071 6.56397 24.374 6.75953 24.374 6.97918C24.374 7.19883 24.4011 7.40046 24.4613 7.57197C24.5215 7.74047 24.6027 7.88788 24.702 8.00222C24.8043 8.11957 24.9277 8.20984 25.0661 8.27002C25.2045 8.3302 25.3549 8.36331 25.5144 8.36331C25.6739 8.36331 25.8213 8.3302 25.9567 8.27002C26.0981 8.20984 26.2185 8.11957 26.3238 8.00222C26.4261 7.88788 26.5073 7.74047 26.5645 7.57197C26.6217 7.40046 26.6518 7.20184 26.6518 6.97918C26.6518 6.75652 26.6187 6.56397 26.5585 6.39547C26.4983 6.22396 26.4111 6.07951 26.3058 5.96518" fill="#3BA5BC"/>
<path d="M28.869 6.85046C28.8479 6.95577 28.8028 7.07912 28.7336 7.21453C28.6644 7.35294 28.5861 7.48233 28.4989 7.6057C28.4116 7.72606 28.3214 7.83435 28.2251 7.9186C28.1348 7.99984 28.0566 8.045 27.9904 8.05101C27.8971 8.05703 27.8068 8.01793 27.7256 7.91563C27.6353 7.81032 27.5691 7.67489 27.533 7.51241C27.4849 7.29275 27.4728 7.07913 27.4939 6.88355C27.512 6.68797 27.5601 6.51346 27.6263 6.36603C27.6925 6.21859 27.7828 6.09821 27.8881 6.00794C27.9964 5.92069 28.1167 5.86655 28.2431 5.84549C28.2762 5.84248 28.3093 5.83946 28.3424 5.83946C28.4086 5.83946 28.4688 5.84848 28.526 5.86653C28.6042 5.89061 28.6674 5.92071 28.7215 5.95983C28.7697 5.99594 28.8058 6.04105 28.8299 6.08618C28.8539 6.13131 28.866 6.17043 28.866 6.20353V6.84745L28.869 6.85046ZM29.6062 7.81029C29.6001 7.78922 29.5941 7.77119 29.5821 7.75012L29.54 7.64181L29.4918 7.75012C29.4738 7.78623 29.4527 7.82534 29.4256 7.85543C29.4076 7.88552 29.3805 7.9126 29.3564 7.93366C29.3113 7.9788 29.2842 7.99082 29.2722 7.99383C29.2571 7.99383 29.2481 7.99383 29.23 7.99383C29.224 7.98781 29.218 7.98784 29.218 7.98784C29.218 7.98784 29.212 7.97578 29.212 7.93065V4.22066C29.212 4.13641 29.1939 4.07922 29.1548 4.04311C29.0916 3.98594 28.9923 3.96189 28.866 4.0311C28.8208 4.05818 28.7727 4.09428 28.7276 4.13942C28.6794 4.18154 28.6343 4.23269 28.5922 4.28685C28.55 4.34101 28.5139 4.40118 28.4808 4.46437L28.4688 4.49147L28.5891 4.65092L28.6253 4.57871C28.6824 4.46738 28.7366 4.38616 28.7817 4.34103C28.8299 4.30191 28.8479 4.28986 28.8539 4.28384C28.8569 4.28986 28.8599 4.3019 28.8599 4.33199V5.71006C28.7877 5.67998 28.7125 5.65892 28.6253 5.64086C28.5049 5.62281 28.3725 5.61679 28.2221 5.63484C28.0385 5.65891 27.87 5.73115 27.7196 5.84549C27.5751 5.95983 27.4518 6.10424 27.3615 6.27875C27.2682 6.45026 27.199 6.64884 27.1659 6.86849C27.1298 7.08814 27.1328 7.32587 27.1719 7.56658C27.184 7.68393 27.2201 7.79525 27.2712 7.89756C27.3224 7.99986 27.3826 8.08712 27.4548 8.15933C27.527 8.23155 27.6052 8.28873 27.6865 8.32785C27.7527 8.35794 27.8189 8.37295 27.8881 8.37295C27.9121 8.37295 27.9272 8.37298 27.9513 8.36697C28.0415 8.35493 28.1348 8.30977 28.2341 8.23154C28.3244 8.15632 28.4176 8.06906 28.5019 7.96374C28.5922 7.85843 28.6734 7.74108 28.7486 7.62072C28.7877 7.56054 28.8238 7.49736 28.863 7.43417V8.09917C28.863 8.18342 28.884 8.24359 28.9231 8.27668C28.9833 8.33686 29.0826 8.35794 29.209 8.29174C29.2511 8.27068 29.2993 8.23757 29.3504 8.19845C29.3985 8.15933 29.4467 8.11723 29.4888 8.06607C29.537 8.01492 29.5791 7.96075 29.6212 7.90057L29.6332 7.87949L29.6212 7.85543C29.6152 7.83737 29.6092 7.81931 29.6001 7.80426" fill="#3BA5BC"/>
</svg>
