<svg width="44" height="44" viewBox="0 0 44 44" fill="none" xmlns="http://www.w3.org/2000/svg">
<path d="M22 22.9C23.4497 22.9 24.625 21.6912 24.625 20.2C24.625 18.7088 23.4497 17.5 22 17.5C20.5503 17.5 19.375 18.7088 19.375 20.2C19.375 21.6912 20.5503 22.9 22 22.9Z" stroke="white" stroke-width="1.6" stroke-linecap="round" stroke-linejoin="round"/>
<path d="M20.8489 29.8234C21.2535 30.2366 21.4558 30.4432 21.687 30.5193C21.8912 30.5867 22.1088 30.5867 22.313 30.5193C22.5442 30.4432 22.7465 30.2366 23.1511 29.8234C26.2281 26.6812 29 23.7387 29 20.2C29 16.2235 25.866 13 22 13C18.134 13 15 16.2235 15 20.2C15 23.7387 17.7719 26.6812 20.8489 29.8234Z" stroke="white" stroke-width="1.6" stroke-linecap="round" stroke-linejoin="round"/>
</svg>
