<svg width="12" height="13" viewBox="0 0 12 13" fill="none" xmlns="http://www.w3.org/2000/svg">
<path d="M5.16021 1.299C5.55421 0.689551 6.44579 0.689551 6.83979 1.299L8.18495 3.37972C8.31988 3.58844 8.52771 3.73943 8.76791 3.80326L11.1625 4.43961C11.8638 4.62599 12.1393 5.47393 11.6815 6.03698L10.1183 7.95928C9.96147 8.15211 9.88209 8.39642 9.89561 8.64459L10.0304 11.1186C10.0698 11.8432 9.34854 12.3673 8.67156 12.1058L6.36029 11.2132C6.12844 11.1236 5.87156 11.1236 5.63971 11.2132L3.32844 12.1058C2.65146 12.3673 1.93016 11.8432 1.96963 11.1186L2.10439 8.64459C2.11791 8.39642 2.03853 8.15211 1.88172 7.95928L0.318517 6.03698C-0.13935 5.47393 0.136161 4.626 0.837534 4.43961L3.23209 3.80326C3.47229 3.73943 3.68012 3.58844 3.81505 3.37972L5.16021 1.299Z" fill="black"/>
</svg>
