<svg width="24" height="24" viewBox="0 0 24 24" fill="none" xmlns="http://www.w3.org/2000/svg">
<path fill-rule="evenodd" clip-rule="evenodd" d="M24 11.9998C24 12.552 23.5523 12.9998 23 12.9998L1 12.9998C0.447717 12.9998 1.43051e-06 12.552 1.43051e-06 11.9998C1.43051e-06 11.4475 0.447717 10.9998 1 10.9998L23 10.9998C23.5523 10.9998 24 11.4475 24 11.9998Z" fill="white"/>
<path fill-rule="evenodd" clip-rule="evenodd" d="M12 23.9998C11.4477 23.9998 11 23.552 11 22.9998L11 0.999757C11 0.447473 11.4477 -0.000242671 12 -0.000242623C12.5523 -0.000242574 13 0.447473 13 0.999757L13 22.9998C13 23.552 12.5523 23.9998 12 23.9998Z" fill="white"/>
</svg>
