<svg width="74" height="17" viewBox="0 0 74 17" fill="none" xmlns="http://www.w3.org/2000/svg">
<path d="M21.5552 11.4263C20.9917 11.4263 20.4569 11.3184 19.9534 11.1002C19.4498 10.882 19.011 10.5726 18.6417 10.1698C18.27 9.76931 17.975 9.28493 17.7568 8.7166C17.5386 8.15067 17.4307 7.51519 17.4307 6.81497C17.4307 6.11475 17.5386 5.4817 17.7568 4.91337C17.975 4.34504 18.2676 3.86303 18.6417 3.46016C19.0134 3.0597 19.4498 2.74796 19.9534 2.53214C20.4569 2.31392 20.9917 2.20361 21.5552 2.20361C22.1188 2.20361 22.6511 2.31152 23.1571 2.53214C23.6607 2.74796 24.0995 3.0597 24.476 3.46016C24.8525 3.86063 25.1474 4.34504 25.3657 4.91337C25.5839 5.4817 25.6918 6.11715 25.6918 6.81497C25.6918 7.51279 25.5839 8.14827 25.3657 8.7166C25.1474 9.28493 24.8525 9.76931 24.476 10.1698C24.0995 10.5726 23.6607 10.882 23.1571 11.1002C22.6535 11.3184 22.1188 11.4263 21.5552 11.4263ZM21.5672 2.46262C21.2435 2.46262 20.9198 2.55371 20.5936 2.73356C20.2699 2.91101 19.9773 3.18202 19.716 3.53932C19.4546 3.89662 19.2436 4.34982 19.0829 4.89657C18.9198 5.44331 18.8407 6.08358 18.8407 6.81737C18.8407 7.55116 18.9222 8.18903 19.0829 8.73817C19.2436 9.28252 19.457 9.73815 19.716 10.0955C19.9749 10.4528 20.2699 10.7237 20.5936 10.9012C20.9174 11.081 21.2435 11.1698 21.5672 11.1698C21.891 11.1698 22.2171 11.0786 22.5408 10.9012C22.8645 10.7213 23.1571 10.4528 23.4113 10.0955C23.6679 9.73815 23.8765 9.28252 24.0372 8.73817C24.2002 8.18903 24.2818 7.55356 24.2818 6.81737C24.2818 6.08118 24.2002 5.44331 24.0372 4.89657C23.8765 4.34982 23.6655 3.89662 23.4113 3.53932C23.1571 3.18202 22.8645 2.91101 22.5408 2.73356C22.2171 2.55371 21.891 2.46262 21.5672 2.46262Z" fill="#8B1D25"/>
<path d="M27.9845 2.33297L32.3513 8.9035V3.39527C32.3513 3.10511 32.2817 2.87731 32.1402 2.71664C32.0012 2.55598 31.8693 2.46966 31.7494 2.46007V2.33057H33.2121V2.46007C33.0922 2.46966 32.9627 2.55358 32.8213 2.71664C32.6798 2.87731 32.6054 3.10511 32.5983 3.39527V11.3351H32.4184L27.3586 3.71422V10.2344C27.3586 10.3783 27.3802 10.5101 27.4234 10.6253C27.4641 10.7404 27.5193 10.8363 27.584 10.913C27.6464 10.9898 27.7135 11.0521 27.7831 11.0977C27.8526 11.1432 27.915 11.1672 27.9749 11.1672V11.2943H26.5025V11.1672C26.62 11.1576 26.7519 11.0737 26.891 10.9106C27.0325 10.7476 27.102 10.5221 27.102 10.232V3.45762C27.102 3.21062 27.0109 3.002 26.8287 2.83174C26.644 2.65908 26.4306 2.55836 26.1836 2.52479V2.33057H27.9893L27.9845 2.33297Z" fill="#8B1D25"/>
<path d="M42.1611 11.1696C42.2211 11.1696 42.2882 11.1457 42.365 11.1001C42.4417 11.0545 42.5112 10.9898 42.576 10.9155C42.6407 10.8387 42.6935 10.7428 42.7367 10.6277C42.7798 10.5126 42.799 10.3807 42.799 10.2368V3.39771C42.799 3.25383 42.7774 3.12433 42.7367 3.00683C42.6935 2.89173 42.6407 2.79582 42.576 2.71908C42.5112 2.64235 42.4417 2.57999 42.365 2.53443C42.2882 2.48647 42.2187 2.46251 42.1611 2.46251V2.33301H44.7222V2.46251C44.6622 2.46251 44.5951 2.48647 44.5184 2.53443C44.4416 2.57999 44.3721 2.64235 44.3073 2.71908C44.245 2.79582 44.1899 2.89173 44.1467 3.00683C44.1035 3.12194 44.0819 3.25383 44.0819 3.39771V6.26574H47.6813V3.39771C47.6813 3.25383 47.6598 3.12433 47.6166 3.00683C47.5734 2.89173 47.5207 2.79582 47.4559 2.71908C47.3936 2.64235 47.3216 2.57999 47.2449 2.53443C47.1682 2.48647 47.101 2.46251 47.0387 2.46251V2.33301H49.5997V2.46251C49.5398 2.46251 49.4726 2.48647 49.3959 2.53443C49.3192 2.57999 49.2496 2.64235 49.1849 2.71908C49.1201 2.79582 49.0674 2.89173 49.0242 3.00683C48.9811 3.12194 48.9595 3.25383 48.9595 3.39771V10.2368C48.9595 10.3807 48.9811 10.5126 49.0242 10.6277C49.0674 10.7428 49.1201 10.8387 49.1849 10.9155C49.2472 10.9922 49.3192 11.0545 49.3959 11.1001C49.4726 11.1457 49.5398 11.1696 49.5997 11.1696V11.2967H47.0387V11.1696C47.0986 11.1696 47.1682 11.1457 47.2449 11.1001C47.3216 11.0545 47.3936 10.9898 47.4559 10.9155C47.5207 10.8387 47.5734 10.7428 47.6166 10.6277C47.6598 10.5126 47.6813 10.3807 47.6813 10.2368V6.52231H44.0819V10.2368C44.0819 10.3807 44.1035 10.5126 44.1467 10.6277C44.1899 10.7428 44.2426 10.8387 44.3073 10.9155C44.3721 10.9922 44.4416 11.0545 44.5184 11.1001C44.5951 11.1457 44.6622 11.1696 44.7222 11.1696V11.2967H42.1611V11.1696Z" fill="#8B1D25"/>
<path d="M50.1133 2.33297H52.6744V2.46247C52.6144 2.46247 52.5473 2.48643 52.4705 2.53439C52.3938 2.57995 52.3242 2.64231 52.2595 2.71904C52.1948 2.79578 52.142 2.89169 52.0988 3.00679C52.0557 3.12189 52.0341 3.25379 52.0341 3.39767V8.13612C52.0341 9.06655 52.2379 9.77876 52.6504 10.268C53.0604 10.7595 53.6144 11.0042 54.3146 11.0042C55.0148 11.0042 55.5376 10.7763 55.9093 10.3207C56.281 9.86268 56.468 9.18645 56.468 8.2896V3.39527C56.468 3.10511 56.3985 2.87731 56.2642 2.71664C56.1275 2.55598 55.998 2.46966 55.8805 2.46007V2.33057H57.3409V2.46007C57.221 2.46966 57.0915 2.55358 56.95 2.71664C56.8085 2.87731 56.7342 3.10511 56.7246 3.39527V8.36395C56.7246 9.32075 56.4896 10.0785 56.0196 10.6373C55.5496 11.196 54.8158 11.4766 53.8158 11.4766C53.2523 11.4766 52.7775 11.4046 52.389 11.2607C52.0005 11.1145 51.684 10.9058 51.4418 10.6325C51.1996 10.3591 51.0221 10.021 50.9166 9.6157C50.8087 9.21044 50.756 8.75242 50.756 8.23925V3.39767C50.756 3.25379 50.7368 3.12429 50.6936 3.00679C50.6528 2.89169 50.5977 2.79578 50.5353 2.71904C50.4706 2.64231 50.401 2.57995 50.3243 2.53439C50.2476 2.48643 50.1804 2.46247 50.1205 2.46247V2.33297H50.1133Z" fill="#8B1D25"/>
<path d="M57.8467 11.1696C57.9066 11.1696 57.9762 11.1457 58.0505 11.1001C58.1273 11.0545 58.1992 10.9898 58.2615 10.9155C58.3263 10.8387 58.379 10.7428 58.4222 10.6277C58.4654 10.5126 58.4846 10.3807 58.4846 10.2368V3.39771C58.4846 3.25383 58.463 3.12433 58.4222 3.00683C58.379 2.89173 58.3263 2.79582 58.2615 2.71908C58.1992 2.64235 58.1273 2.57999 58.0505 2.53443C57.9762 2.48647 57.9066 2.46251 57.8467 2.46251V2.33301H60.4078V2.46251C60.3478 2.46251 60.2807 2.48647 60.2039 2.53443C60.1272 2.57999 60.0552 2.64235 59.9905 2.71908C59.9281 2.79582 59.873 2.89173 59.8322 3.00683C59.7891 3.12194 59.7675 3.25383 59.7675 3.39771V6.26574H63.3669V3.39771C63.3669 3.25383 63.3453 3.12433 63.3021 3.00683C63.259 2.89173 63.2062 2.79582 63.1415 2.71908C63.0767 2.64235 63.0072 2.57999 62.9305 2.53443C62.8537 2.48647 62.7842 2.46251 62.7242 2.46251V2.33301H65.2853V2.46251C65.2253 2.46251 65.1558 2.48647 65.0815 2.53443C65.0047 2.57999 64.9328 2.64235 64.8704 2.71908C64.8057 2.79582 64.7529 2.89173 64.7122 3.00683C64.669 3.12194 64.6474 3.25383 64.6474 3.39771V10.2368C64.6474 10.3807 64.669 10.5126 64.7122 10.6277C64.7553 10.7428 64.8081 10.8387 64.8704 10.9155C64.9352 10.9922 65.0047 11.0545 65.0815 11.1001C65.1582 11.1457 65.2253 11.1696 65.2853 11.1696V11.2967H62.7242V11.1696C62.7842 11.1696 62.8513 11.1457 62.9305 11.1001C63.0072 11.0545 63.0767 10.9898 63.1415 10.9155C63.2062 10.8387 63.259 10.7428 63.3021 10.6277C63.3453 10.5126 63.3669 10.3807 63.3669 10.2368V6.52231H59.7675V10.2368C59.7675 10.3807 59.7891 10.5126 59.8322 10.6277C59.8754 10.7428 59.9281 10.8387 59.9905 10.9155C60.0552 10.9922 60.1272 11.0545 60.2039 11.1001C60.2807 11.1457 60.3502 11.1696 60.4078 11.1696V11.2967H57.8467V11.1696Z" fill="#8B1D25"/>
<path d="M65.7988 11.1696C65.8588 11.1696 65.9331 11.1457 66.0218 11.1001C66.1106 11.0545 66.2041 10.9898 66.3 10.9155C66.3935 10.8387 66.4847 10.7428 66.5758 10.6277C66.6645 10.5126 66.7364 10.3807 66.7868 10.2368L69.7459 2.33301H70.0673L73.012 10.2368C73.0624 10.3807 73.1343 10.5126 73.2231 10.6277C73.3118 10.7428 73.4053 10.8387 73.4988 10.9155C73.5923 10.9922 73.6859 11.0545 73.7746 11.1001C73.8633 11.1457 73.9377 11.1696 74 11.1696V11.2967H71.3478V11.1696C71.4677 11.1601 71.5732 11.0761 71.6691 10.9131C71.7627 10.75 71.7555 10.5246 71.6428 10.2344L70.9905 8.47909H67.7124L67.0602 10.2344C66.9475 10.5246 66.9403 10.75 67.0338 10.9131C67.1273 11.0737 67.2328 11.1601 67.3527 11.1696V11.2967H65.8036V11.1696H65.7988ZM67.8108 8.22249H70.897L69.3623 4.09793L67.8131 8.22249H67.8108Z" fill="#8B1D25"/>
<path d="M39.0945 6.98039V7.10987C39.2144 7.11706 39.3462 7.2034 39.4901 7.36647C39.6364 7.52714 39.7083 7.75494 39.7083 8.04509V10.6181C39.6484 10.6949 39.5645 10.7596 39.4589 10.81C39.351 10.8604 39.2407 10.9059 39.1256 10.9443C39.0105 10.9827 38.8978 11.009 38.7875 11.0258C38.6772 11.0426 38.5837 11.0522 38.5069 11.0522C37.9338 11.0522 37.4518 10.9299 37.0514 10.6805C36.6557 10.4311 36.3344 10.1098 36.0922 9.70692C35.85 9.30406 35.6749 8.85322 35.567 8.34724C35.4615 7.84366 35.4063 7.33288 35.4063 6.81252C35.4063 6.29215 35.4711 5.74541 35.6006 5.22504C35.7277 4.70227 35.9051 4.24188 36.1305 3.83421C36.3559 3.42895 36.5118 3.2275 36.8355 2.97571C37.1593 2.72392 37.5477 2.59684 37.9482 2.59684C38.2048 2.59684 38.3199 2.63042 38.495 2.69516C38.6844 2.76471 38.8163 2.86541 38.9937 3.07644C39.1208 3.22511 39.152 3.42175 39.212 3.61839C39.2719 3.81502 39.3678 4.00445 39.4542 4.17471C39.5405 4.34497 39.646 4.48886 39.7731 4.60396C39.9002 4.71907 40.08 4.77661 40.3102 4.77661C40.5237 4.77661 40.8234 4.70948 41.02 4.54401C41.2167 4.37855 41.3414 4.17951 41.3654 3.93971C41.4085 2.21075 38.7372 2.09326 38.2528 2.09326C37.6892 2.09326 37.1113 2.17239 36.5861 2.39061C36.061 2.60643 35.5358 3.00449 35.2265 3.33781C34.7924 3.80782 34.5311 4.29461 34.2913 4.89411C34.061 5.46724 33.9843 6.1243 33.9843 6.82452C33.9843 7.52473 34.0898 8.15542 34.3032 8.71895C34.5167 9.28248 34.8044 9.76448 35.1689 10.1649C35.531 10.5678 35.9603 10.8772 36.4543 11.0954C36.9482 11.3136 37.4782 11.4215 38.0417 11.4215C38.3487 11.4215 38.6532 11.3807 38.9578 11.2992C39.2623 11.2177 39.5453 11.1025 39.8091 10.9539C40.0752 10.8052 40.3102 10.6229 40.5189 10.4095C40.7275 10.1961 40.893 9.9563 41.0129 9.69252V8.04029C41.0129 7.89401 41.0344 7.76692 41.0776 7.64942C41.1208 7.53431 41.1735 7.4384 41.2383 7.36167C41.3006 7.28493 41.3726 7.22258 41.4493 7.17462C41.526 7.12906 41.5956 7.10509 41.6555 7.10509V6.97559H39.0945V6.98039Z" fill="#8B1D25"/>
<path d="M14.1023 6.98039V7.10987C14.2222 7.11706 14.3541 7.2034 14.5004 7.36647C14.6467 7.52714 14.7162 7.75494 14.7162 8.04509V10.6181C14.6563 10.6949 14.5747 10.7596 14.4668 10.81C14.3613 10.8604 14.251 10.9059 14.1335 10.9443C14.0184 10.9827 13.9057 11.009 13.7954 11.0258C13.6827 11.0426 13.5892 11.0522 13.5124 11.0522C12.9417 11.0522 12.4573 10.9299 12.0592 10.6805C11.6636 10.4311 11.3422 10.1098 11.1 9.70692C10.8578 9.30406 10.6828 8.85322 10.5749 8.34724C10.467 7.84366 10.4142 7.33288 10.4142 6.81252C10.4142 6.29215 10.479 5.74541 10.606 5.22504C10.7355 4.70227 10.9106 4.24188 11.1384 3.83421C11.3638 3.42895 11.5221 3.2275 11.8458 2.97571C12.1695 2.72392 12.5556 2.59684 12.9585 2.59684C13.2151 2.59684 13.3302 2.63042 13.5052 2.69516C13.6947 2.76471 13.8242 2.86541 14.0016 3.07644C14.1287 3.22511 14.1599 3.42175 14.2198 3.61839C14.2798 3.81502 14.3757 4.00445 14.462 4.17471C14.5484 4.34497 14.6539 4.48886 14.7834 4.60396C14.9105 4.71907 15.0903 4.77661 15.3205 4.77661C15.5339 4.77661 15.8337 4.70948 16.0303 4.54401C16.227 4.37855 16.3517 4.17951 16.3756 3.93971C16.4188 2.21075 13.7474 2.09326 13.2606 2.09326C12.6971 2.09326 12.1192 2.17239 11.594 2.39061C11.0689 2.60643 10.5437 3.00449 10.2368 3.33781C9.80271 3.80782 9.54133 4.29461 9.29913 4.89411C9.06892 5.46724 8.99219 6.1243 8.99219 6.82452C8.99219 7.52473 9.0977 8.15542 9.31113 8.71895C9.52455 9.28248 9.81231 9.76448 10.1768 10.1649C10.5389 10.5678 10.9681 10.8772 11.4621 11.0954C11.9585 11.3136 12.4885 11.4215 13.052 11.4215C13.359 11.4215 13.6635 11.3807 13.968 11.2992C14.2702 11.2177 14.5532 11.1025 14.8193 10.9539C15.0855 10.8052 15.3229 10.6229 15.5315 10.4095C15.7402 10.1961 15.9056 9.9563 16.0255 9.69252V8.04029C16.0255 7.89401 16.0471 7.76692 16.0879 7.64942C16.131 7.53431 16.1838 7.4384 16.2485 7.36167C16.3133 7.28493 16.3828 7.22258 16.462 7.17462C16.5387 7.12906 16.6059 7.10509 16.6682 7.10509V6.97559H14.1047L14.1023 6.98039Z" fill="#8B1D25"/>
<path d="M5.43867 7.74313C5.43867 6.24438 4.22049 5.02621 2.72174 5.02621C1.45079 5.02621 0.414857 3.99267 0.414857 2.71933C0.414857 1.44599 1.4484 0.41245 2.72174 0.41245C3.74089 0.41245 4.60897 1.07909 4.91111 1.99753C4.83917 1.97355 4.76244 1.96155 4.68091 1.96155C4.26366 1.96155 3.92553 2.29967 3.92553 2.71693C3.92553 3.13418 4.26366 3.4723 4.68091 3.4723C5.09816 3.4723 5.43628 3.13418 5.43628 2.71693C5.43628 1.21818 4.21809 0 2.71934 0C1.22058 0 0.00240035 1.21818 0.00240035 2.71693C0.00240035 3.84879 0.697824 4.81997 1.6834 5.22763C0.697824 5.63529 0.00240035 6.6065 0.00240035 7.73836C0.00240035 8.15561 0.340517 8.49371 0.75777 8.49371C1.17502 8.49371 1.51314 8.15561 1.51314 7.73836C1.51314 7.32111 1.17502 6.98299 0.75777 6.98299C0.678636 6.98299 0.601902 6.99498 0.527564 7.01896C0.829712 6.09813 1.69779 5.43386 2.71694 5.43386C3.98788 5.43386 5.02382 6.46739 5.02382 7.74073C5.02382 9.01407 3.98788 10.0476 2.71694 10.0476C1.21819 10.0476 0 11.2658 0 12.7646C0 14.0763 0.935223 15.1746 2.17499 15.4263C2.14382 15.4983 2.12703 15.5774 2.12703 15.6589C2.12703 15.9851 2.39081 16.2489 2.71694 16.2489C3.04307 16.2489 3.30685 15.9851 3.30685 15.6589C3.30685 15.3328 3.04307 15.069 2.71694 15.069C1.446 15.069 0.410064 14.0355 0.410064 12.7622C0.410064 11.4888 1.4436 10.4553 2.71694 10.4553C3.73609 10.4553 4.60417 11.1219 4.90632 12.0428C4.83438 12.0188 4.75764 12.0068 4.67611 12.0068C4.25885 12.0068 3.92074 12.3449 3.92074 12.7622C3.92074 13.1794 4.25885 13.5175 4.67611 13.5175C5.09336 13.5175 5.43148 13.1794 5.43148 12.7622C5.43148 11.6303 4.73606 10.6591 3.75048 10.2515C4.73606 9.84381 5.43148 8.87259 5.43148 7.74073L5.43867 7.74313Z" fill="#8B1D25"/>
</svg>
