<svg width="44" height="44" viewBox="0 0 44 44" fill="none" xmlns="http://www.w3.org/2000/svg">
<path d="M25.749 16C25.749 16.9946 25.3539 17.9484 24.6507 18.6517C23.9474 19.3549 22.9936 19.75 21.999 19.75C21.0044 19.75 20.0506 19.3549 19.3473 18.6517C18.6441 17.9484 18.249 16.9946 18.249 16C18.249 15.0054 18.6441 14.0516 19.3473 13.3483C20.0506 12.6451 21.0044 12.25 21.999 12.25C22.9936 12.25 23.9474 12.6451 24.6507 13.3483C25.3539 14.0516 25.749 15.0054 25.749 16ZM14.5 30.118C14.5321 28.1504 15.3363 26.2742 16.7392 24.894C18.142 23.5139 20.0311 22.7405 21.999 22.7405C23.9669 22.7405 25.856 23.5139 27.2588 24.894C28.6617 26.2742 29.4659 28.1504 29.498 30.118C27.1454 31.1968 24.5871 31.7535 21.999 31.75C19.323 31.75 16.783 31.166 14.5 30.118Z" stroke="white" stroke-width="1.5" stroke-linecap="round" stroke-linejoin="round"/>
</svg>
