<svg width="100" height="34" viewBox="0 0 100 34" fill="none" xmlns="http://www.w3.org/2000/svg">
<g clip-path="url(#clip0_151_59)">
<path d="M10.0685 16.351H26.729V8.59044C26.729 6.93113 26.6387 5.70512 26.458 4.91558C26.2773 4.12605 25.944 3.47451 25.4611 2.95778C25.0218 2.4892 24.5265 2.15221 23.972 1.94038C23.4175 1.73176 22.6854 1.60017 21.7788 1.55524V1H36.7757V1.55524C35.8848 1.60338 35.1589 1.73176 34.6044 1.94038C34.0499 2.15221 33.5514 2.4892 33.1153 2.95778C32.6293 3.47451 32.2991 4.12925 32.1184 4.92842C31.9377 5.72758 31.8474 6.94718 31.8474 8.59044V26.4095C31.8474 28.0528 31.9377 29.2692 32.1184 30.0587C32.2991 30.8483 32.6293 31.5094 33.1153 32.0422C33.5546 32.4947 34.0499 32.8285 34.6044 33.0468C35.1589 33.265 35.8817 33.3966 36.7757 33.4447V34H21.7788V33.4447C22.6854 33.3966 23.4175 33.2618 23.972 33.0468C24.5265 32.8285 25.0249 32.4947 25.4611 32.0422C25.9471 31.5255 26.2773 30.8739 26.458 30.0844C26.6387 29.2949 26.729 28.0688 26.729 26.4095V17.4872H10.0685V26.4095C10.0685 28.0528 10.1589 29.2724 10.3396 30.0716C10.5203 30.8675 10.8536 31.5255 11.3365 32.0422C11.757 32.4947 12.2461 32.8285 12.8038 33.0468C13.3583 33.265 14.0904 33.3966 14.9969 33.4447V34H0V33.4447C0.906543 33.3966 1.63863 33.2618 2.19315 33.0468C2.74767 32.8285 3.23676 32.4947 3.66044 32.0422C4.15888 31.5255 4.49845 30.8739 4.66979 30.0844C4.84113 29.2949 4.92835 28.0688 4.92835 26.4095V8.59044C4.92835 6.93113 4.84113 5.70512 4.66979 4.91558C4.49845 4.12605 4.15888 3.47451 3.66044 2.95778C3.23676 2.4892 2.74455 2.15221 2.18069 1.94038C1.61682 1.73176 0.890967 1.60017 0 1.55524V1H14.9938V1.55524C14.1028 1.60338 13.377 1.73176 12.8224 1.94038C12.2679 2.15221 11.7695 2.4892 11.3333 2.95778C10.8474 3.47451 10.5171 4.12925 10.3365 4.92842C10.1558 5.72758 10.0654 6.94718 10.0654 8.59044V16.351H10.0685Z" fill="white"/>
<path d="M38.4609 29.4815C38.4609 30.9065 37.3426 32.0587 35.9625 32.0587C34.5824 32.0587 33.4609 30.9065 33.4609 29.4815C33.4609 28.0565 34.5793 26.9043 35.9625 26.9043C37.3457 26.9043 38.4609 28.0565 38.4609 29.4815Z" fill="white"/>
<path d="M43.4422 20.2959C43.4422 20.941 43.6478 21.493 44.0559 21.952C44.4703 22.4077 45.0248 22.6356 45.7226 22.6356C46.3239 22.6356 46.8566 22.4334 47.3145 22.0258C47.7725 21.615 47.9999 21.0469 47.9999 20.3248C47.9999 19.8177 47.8316 19.3619 47.489 18.9543C47.1463 18.5435 46.4173 18.1744 45.2958 17.847C43.5513 17.3399 42.679 16.3578 42.679 14.9039C42.679 14.0053 42.9812 13.2735 43.5855 12.7119C44.193 12.1438 44.9438 11.8613 45.8285 11.8613C46.7133 11.8613 47.4267 12.1662 48.0061 12.7793C48.5855 13.3923 48.8753 14.1304 48.8753 14.9938H47.7631C47.7631 14.4225 47.57 13.9315 47.1774 13.5206C46.7943 13.1034 46.3301 12.8948 45.7911 12.8948C45.1774 12.8948 44.6883 13.0938 44.327 13.4918C43.9687 13.8897 43.788 14.3647 43.788 14.9136C43.788 15.395 43.95 15.7962 44.2709 16.1203C44.598 16.4349 45.2771 16.7366 46.3052 17.0222C48.1774 17.5453 49.112 18.6558 49.112 20.3504C49.112 21.2876 48.7787 22.0771 48.1182 22.7158C47.4578 23.3513 46.6572 23.6723 45.7226 23.6723C44.7382 23.6723 43.9251 23.3609 43.2896 22.7383C42.651 22.1157 42.3301 21.3037 42.3301 20.2959H43.4422Z" fill="white"/>
<path d="M58.4449 15.0581V23.4926H57.3981V22.0227C56.5445 23.146 55.476 23.7109 54.1894 23.7109C52.9028 23.7109 51.8685 23.2744 51.0399 22.4014C50.2112 21.5284 49.7969 20.4725 49.7969 19.2369C49.7969 18.0012 50.2019 17.0063 51.0087 16.1429C51.8218 15.2731 52.8841 14.8398 54.1894 14.8398C55.5726 14.8398 56.6442 15.4015 57.3981 16.5248V15.0549H58.4449V15.0581ZM54.1832 15.8123C53.2579 15.8123 52.4667 16.1268 51.8125 16.7623C51.1645 17.3946 50.8405 18.2226 50.8405 19.2465C50.8405 20.2703 51.1614 21.1658 51.7969 21.798C52.4417 22.4271 53.2143 22.7384 54.124 22.7384C55.0773 22.7384 55.8716 22.3982 56.504 21.721C57.1427 21.0438 57.4604 20.2189 57.4604 19.2433C57.4604 18.2676 57.1427 17.4652 56.5103 16.8041C55.8779 16.1429 55.1022 15.8091 54.1801 15.8091L54.1832 15.8123Z" fill="white"/>
<path d="M61.037 16.5251C61.3578 16.0084 61.7909 15.5976 62.3298 15.2959C62.875 14.991 63.5136 14.8369 64.2457 14.8369C65.5136 14.8369 66.5603 15.2702 67.389 16.14C68.2208 17.0065 68.6382 18.0528 68.6382 19.2724C68.6382 20.5787 68.2052 21.6442 67.3423 22.4723C66.4856 23.2971 65.4513 23.708 64.2457 23.708C62.8905 23.708 61.822 23.1463 61.037 22.0198V26.5002H59.9902V15.0552H61.037V16.5251ZM60.9715 19.2724C60.9715 20.2321 61.2831 21.0473 61.9092 21.7277C62.5323 22.3985 63.3142 22.7355 64.255 22.7355C65.1958 22.7355 65.9622 22.4177 66.6164 21.7855C67.2706 21.1468 67.5977 20.3091 67.5977 19.2692C67.5977 18.316 67.2924 17.5008 66.6849 16.8204C66.0806 16.1432 65.2706 15.803 64.2582 15.803C63.3516 15.803 62.5759 16.1496 61.9342 16.8428C61.2955 17.5297 60.9747 18.3385 60.9747 19.2692L60.9715 19.2724Z" fill="white"/>
<path d="M76.5233 19.6731C76.5264 20.4401 76.8504 21.143 77.4953 21.7817C78.1401 22.4172 78.8971 22.7381 79.7756 22.7381C80.2429 22.7381 80.7632 22.5841 81.3333 22.2792C81.9096 21.9678 82.3457 21.4415 82.6479 20.6969H83.7601C83.3831 21.6662 82.8348 22.4107 82.1059 22.9339C81.3862 23.4506 80.6105 23.7106 79.7819 23.7106C78.5669 23.7106 77.5482 23.2677 76.7196 22.3851C75.8909 21.4961 75.4766 20.4722 75.4766 19.3136C75.4766 18.155 75.8753 17.0573 76.6759 16.1747C77.4735 15.2857 78.5077 14.8428 79.7756 14.8428C80.9034 14.8428 81.8909 15.2728 82.7351 16.1362C83.5825 16.9995 84.0062 18.0715 84.0062 19.3521V19.6763H76.5233V19.6731ZM76.5358 18.7006H82.9594C82.7974 17.7794 82.4143 17.0702 81.8037 16.5695C81.1931 16.0624 80.5171 15.8088 79.7725 15.8088C78.9096 15.8088 78.1682 16.1009 77.542 16.6882C76.9189 17.2756 76.5825 17.9463 76.5326 18.7006H76.5358Z" fill="white"/>
<path d="M85.9718 23.4892V15.0546H87.0186V16.1619C87.6323 15.2793 88.4796 14.8396 89.5606 14.8396C90.6416 14.8396 91.436 15.1766 92.0965 15.8538C92.7662 16.531 93.0965 17.5452 93.0965 18.8964V23.4892H92.0528V18.8964C92.0528 17.8918 91.8192 17.1248 91.3519 16.5984C90.8846 16.072 90.2771 15.8089 89.5295 15.8089C88.7818 15.8089 88.2117 16.0592 87.732 16.5599C87.2522 17.0574 87.0155 17.8373 87.0155 18.8964V23.4892H85.9687H85.9718Z" fill="white"/>
<path d="M95.8788 21.0569C95.8788 21.548 96.0096 21.9523 96.2651 22.2701C96.5267 22.5814 96.9037 22.7387 97.3897 22.7387C98.4333 22.7387 98.9535 22.2348 98.9535 21.2238C98.9535 20.8836 98.857 20.5819 98.6669 20.3219C98.4831 20.0588 98.0283 19.7988 97.3087 19.5356C96.5236 19.2596 95.9598 18.9386 95.6108 18.5631C95.2651 18.1876 95.0937 17.7351 95.0937 17.2087C95.0937 16.477 95.3149 15.8993 95.7666 15.4756C96.2183 15.0487 96.7666 14.8369 97.4115 14.8369C98.1436 14.8369 98.7105 15.0616 99.1155 15.5141C99.5236 15.9602 99.723 16.4994 99.723 17.1253H98.6763C98.6763 16.7594 98.5579 16.4481 98.318 16.1913C98.0781 15.9346 97.7915 15.8062 97.4551 15.8062C97.0594 15.8062 96.7386 15.9314 96.4987 16.1817C96.2588 16.4288 96.1404 16.7241 96.1404 17.0707C96.1404 17.3885 96.2619 17.6677 96.5049 17.9052C96.7541 18.1395 97.2121 18.3609 97.8725 18.5599C99.29 18.9836 100 19.8341 100 21.1147C100 21.9267 99.7573 22.5622 99.2713 23.0179C98.7884 23.4769 98.1654 23.7047 97.399 23.7047C96.589 23.7047 95.9598 23.4448 95.5049 22.9281C95.0563 22.4049 94.832 21.7823 94.832 21.0537H95.8788V21.0569Z" fill="white"/>
<path d="M42.9685 31.006H43.791V30.3096H43.981V31.9239H43.791V31.1858H42.9685V31.9239H42.7754V30.3096H42.9685V31.006Z" fill="white"/>
<path d="M46.1836 31.7792C46.2397 31.7792 46.2895 31.7728 46.3362 31.76C46.3799 31.7471 46.4172 31.7279 46.4484 31.7022C46.4827 31.6765 46.5107 31.6445 46.5325 31.6124C46.5543 31.5771 46.5699 31.5385 46.5823 31.4968C46.5886 31.4679 46.5948 31.439 46.5979 31.4069C46.601 31.3749 46.6042 31.3428 46.6042 31.3107V30.3125H46.7942V31.3075C46.7942 31.346 46.7942 31.3845 46.7879 31.4262C46.7879 31.4679 46.7786 31.5064 46.7693 31.5417C46.7568 31.6027 46.7319 31.6573 46.7038 31.7086C46.6758 31.76 46.6353 31.8017 46.5886 31.8402C46.5418 31.8787 46.4858 31.9076 46.4203 31.9269C46.3518 31.9494 46.2739 31.959 46.1836 31.959C46.0932 31.959 46.0216 31.9494 45.9562 31.9301C45.8939 31.9108 45.8347 31.8852 45.7911 31.8499C45.7443 31.8178 45.7069 31.776 45.6758 31.7279C45.6478 31.6798 45.6228 31.6284 45.6073 31.577C45.5948 31.5353 45.5886 31.4936 45.5823 31.4455C45.5761 31.4005 45.5761 31.3556 45.5761 31.3139V30.3189H45.7661V31.3171C45.7661 31.3524 45.7661 31.3909 45.7724 31.4294C45.7786 31.4679 45.7848 31.5032 45.7973 31.5353C45.8253 31.6123 45.8689 31.6765 45.9344 31.7183C45.9998 31.7632 46.0839 31.7857 46.1867 31.7857L46.1836 31.7792Z" fill="white"/>
<path d="M49.2154 31.9232H49.1281L48.7325 30.9572C48.6795 30.8256 48.6235 30.678 48.5705 30.5239H48.5612C48.5736 30.7486 48.5767 30.954 48.5767 31.1401V31.92H48.3867V30.3057H48.6609L49.0285 31.2204C49.069 31.3231 49.1157 31.4482 49.1655 31.5991H49.1718C49.2278 31.4354 49.2746 31.3102 49.3119 31.2204L49.6796 30.3057H49.9568V31.92H49.7637V31.1401C49.7637 30.9572 49.7699 30.7518 49.7792 30.5239H49.7699C49.7107 30.6908 49.6577 30.832 49.6048 30.9572L49.2091 31.9232H49.2154Z" fill="white"/>
<path d="M51.3945 31.9239L52.0332 30.3096H52.1952L52.8338 31.9239H52.6251L52.4381 31.4393H51.7839L51.597 31.9239H51.3945ZM52.1142 30.5599C52.0425 30.7621 51.9771 30.945 51.9117 31.1087L51.8525 31.2596H52.3727L52.3135 31.1087C52.2481 30.9418 52.1827 30.7557 52.1173 30.5599H52.1142Z" fill="white"/>
<path d="M55.0799 31.2075C55.1765 31.3487 55.27 31.4964 55.3634 31.6472H55.3728C55.3603 31.49 55.3572 31.3295 55.3572 31.169V30.3089H55.5503V31.9232H55.3603L54.7466 31.0214C54.6407 30.8641 54.5472 30.7197 54.4631 30.5817H54.4569C54.4662 30.7293 54.4693 30.8994 54.4693 31.0952V31.92H54.2793V30.3057H54.4693L55.083 31.2043L55.0799 31.2075Z" fill="white"/>
<path d="M57.3857 30.1455L57.5321 30.5692H57.3764L57.1895 30.1455H57.3857Z" fill="white"/>
<path d="M59.3142 30.7366C59.3142 30.7847 59.3235 30.8232 59.3422 30.8553C59.3609 30.8842 59.3858 30.9131 59.417 30.9324C59.4481 30.9516 59.4855 30.9677 59.5291 30.9805C59.5696 30.9901 59.6133 31.0062 59.66 31.0158C59.7192 31.0319 59.7815 31.0479 59.8376 31.0672C59.8967 31.0864 59.9497 31.1121 59.9964 31.1442C60.04 31.1763 60.0805 31.218 60.1086 31.2726C60.1366 31.3239 60.1491 31.3913 60.1491 31.4748C60.1491 31.5582 60.1335 31.632 60.1024 31.6898C60.0712 31.7508 60.0307 31.8021 59.9746 31.8406C59.9217 31.8792 59.8562 31.9081 59.7815 31.9273C59.7067 31.9466 59.6257 31.9562 59.5385 31.9562C59.498 31.9562 59.4544 31.9562 59.4139 31.9498C59.3703 31.9434 59.3329 31.9369 59.2924 31.9273C59.2519 31.9177 59.2176 31.908 59.1865 31.8984C59.1553 31.8856 59.1304 31.8727 59.1117 31.8631V31.6834C59.1397 31.6962 59.1709 31.7123 59.2052 31.7219C59.2425 31.7347 59.2768 31.7444 59.3142 31.754C59.3516 31.7604 59.389 31.7701 59.4263 31.7733C59.4637 31.7797 59.5011 31.7797 59.5323 31.7797C59.5883 31.7797 59.6413 31.7765 59.688 31.7636C59.7379 31.754 59.7815 31.738 59.8189 31.7155C59.8563 31.693 59.8843 31.6609 59.9092 31.6224C59.931 31.5839 59.9404 31.5358 59.9404 31.4748C59.9404 31.4266 59.931 31.3881 59.9123 31.356C59.8936 31.3239 59.8687 31.2982 59.8376 31.279C59.8033 31.2565 59.7659 31.2437 59.7254 31.2276C59.6818 31.2148 59.6382 31.202 59.5914 31.1923C59.5291 31.1795 59.4731 31.1602 59.4139 31.1442C59.3547 31.1249 59.3048 31.0993 59.2581 31.0672C59.2114 31.0351 59.1771 30.9933 59.146 30.942C59.1179 30.8906 59.1055 30.8265 59.1055 30.7462C59.1055 30.666 59.121 30.5922 59.1491 30.5344C59.1802 30.4734 59.2176 30.4285 59.2675 30.39C59.3173 30.3515 59.3734 30.3226 59.4388 30.3033C59.5042 30.2873 59.5728 30.2744 59.6475 30.2744C59.7316 30.2744 59.8064 30.284 59.8812 30.3001C59.9528 30.3161 60.0182 30.3354 60.0805 30.3643V30.5472C60.0151 30.5183 59.9466 30.4959 59.8781 30.4766C59.8064 30.4606 59.7348 30.451 59.6569 30.451C59.5977 30.451 59.5447 30.4574 59.5011 30.4702C59.4575 30.483 59.4232 30.5023 59.3952 30.528C59.364 30.5537 59.3453 30.5825 59.3298 30.6178C59.3173 30.6531 59.308 30.6916 59.308 30.7334L59.3142 30.7366Z" fill="white"/>
<path d="M63.5533 31.006H64.3757V30.3096H64.5658V31.9239H64.3757V31.1858H63.5533V31.9239H63.3633V30.3096H63.5533V31.006Z" fill="white"/>
<path d="M66.3541 31.7474H67.1578V31.9239H66.1641V30.3096H67.1142V30.4861H66.3541V31.006H67.0301V31.1825H66.3541V31.7442V31.7474Z" fill="white"/>
<path d="M68.5254 31.9239L69.164 30.3096H69.3291L69.9678 31.9239H69.7622L69.5752 31.4393H68.921L68.7341 31.9239H68.5285H68.5254ZM69.245 30.5599C69.1734 30.7621 69.1079 30.945 69.0456 31.1087L68.9865 31.2596H69.5036L69.4444 31.1087C69.379 30.9418 69.3136 30.7557 69.245 30.5599Z" fill="white"/>
<path d="M71.5974 30.3089V31.7435H72.3607V31.92H71.4043V30.3057H71.5974V30.3089Z" fill="white"/>
<path d="M74.1255 31.9239H73.9355V30.4861H73.4121V30.3096H74.652V30.4861H74.1286V31.9239H74.1255Z" fill="white"/>
<path d="M76.2799 31.006H77.1023V30.3096H77.2923V31.9239H77.1023V31.1858H76.2799V31.9239H76.0898V30.3096H76.2799V31.006Z" fill="white"/>
<path d="M81.8092 31.0826C81.8092 31.1982 81.7905 31.3041 81.75 31.4004C81.7157 31.4935 81.6627 31.5801 81.6004 31.6539C81.6347 31.6892 81.6659 31.7246 81.697 31.7534C81.725 31.7823 81.75 31.8112 81.7749 31.8369C81.7967 31.8593 81.8154 31.8786 81.831 31.8947C81.8465 31.9075 81.8559 31.9203 81.859 31.9235H81.6285C81.6285 31.9235 81.6098 31.9043 81.5849 31.8754C81.5568 31.8465 81.5226 31.8112 81.4821 31.7663C81.4073 31.8273 81.3263 31.8722 81.2391 31.9043C81.1518 31.9364 81.0615 31.9492 80.9712 31.9492C80.8808 31.9492 80.8123 31.9364 80.75 31.9139C80.6877 31.8882 80.6378 31.8561 80.6004 31.8176C80.5599 31.7791 80.5319 31.7342 80.5163 31.6828C80.5007 31.6315 80.4883 31.5801 80.4883 31.5288C80.4883 31.4646 80.4976 31.4132 80.5163 31.3619C80.535 31.3169 80.5568 31.2752 80.588 31.2367C80.6191 31.1982 80.6534 31.1661 80.6908 31.1404C80.7313 31.1115 80.7687 31.0826 80.8123 31.0602C80.7811 31.0281 80.7531 30.9992 80.7219 30.9703C80.6939 30.9414 80.6721 30.9093 80.6503 30.874C80.6285 30.8419 80.6129 30.8066 80.6004 30.7713C80.588 30.736 80.5817 30.6943 80.5817 30.6526C80.5817 30.5916 80.5942 30.5402 80.6129 30.4953C80.6316 30.4472 80.6627 30.4086 80.7001 30.3766C80.7375 30.3445 80.7842 30.3188 80.8372 30.306C80.8901 30.2867 80.9493 30.2803 81.0148 30.2803C81.074 30.2803 81.13 30.2899 81.1799 30.306C81.2297 30.3188 81.2733 30.3445 81.3138 30.3733C81.3512 30.4022 81.3824 30.4407 81.4042 30.4825C81.426 30.5274 81.4384 30.5788 81.4384 30.6365C81.4384 30.6943 81.4291 30.7489 81.4104 30.7938C81.3886 30.8387 81.3637 30.8804 81.3294 30.9157C81.2951 30.9511 81.2578 30.9832 81.2141 31.012C81.1736 31.0409 81.1269 31.0698 81.0802 31.0923C81.1082 31.118 81.1363 31.15 81.1674 31.1821C81.1986 31.2174 81.2328 31.2528 81.2702 31.2913C81.3045 31.3298 81.3419 31.3683 81.3793 31.4068C81.4166 31.4485 81.454 31.487 81.4914 31.5288C81.5319 31.4742 81.5631 31.41 81.5849 31.3362C81.6098 31.2624 81.6222 31.1757 81.6222 31.0794H81.8123L81.8092 31.0826ZM80.968 31.792C80.9992 31.792 81.0272 31.7919 81.0615 31.7855C81.0926 31.7791 81.1269 31.7727 81.1612 31.7598C81.1954 31.7502 81.2328 31.7342 81.264 31.7181C81.3014 31.7021 81.3325 31.6796 81.3637 31.6539C81.3263 31.6122 81.2889 31.5737 81.2484 31.532C81.2079 31.4903 81.1674 31.4453 81.1269 31.4036C81.0895 31.3619 81.0521 31.3234 81.0148 31.2848C80.9774 31.2463 80.9462 31.2142 80.9182 31.1821C80.8839 31.2014 80.8528 31.2239 80.8216 31.2463C80.7905 31.2688 80.7655 31.2945 80.7437 31.3201C80.7219 31.3458 80.7032 31.3747 80.6908 31.4068C80.6783 31.4389 80.6721 31.4742 80.6721 31.5159C80.6721 31.5512 80.6783 31.5833 80.6908 31.6186C80.7032 31.6507 80.7219 31.6828 80.7437 31.7085C80.7687 31.7342 80.7998 31.7534 80.8372 31.7695C80.8746 31.7855 80.9182 31.792 80.968 31.792ZM80.7687 30.6526C80.7687 30.6815 80.7749 30.7103 80.7811 30.736C80.7905 30.7649 80.8029 30.7906 80.8185 30.8163C80.8341 30.8419 80.8559 30.8676 80.8808 30.8933C80.9057 30.9222 80.9338 30.9511 80.9649 30.9799C81.0023 30.9607 81.0397 30.9382 81.0708 30.9157C81.1051 30.8933 81.1331 30.8708 81.1612 30.8451C81.1861 30.8195 81.2079 30.7906 81.2204 30.7585C81.2359 30.7264 81.2422 30.6879 81.2422 30.6462C81.2422 30.6076 81.2391 30.5788 81.2235 30.5499C81.2141 30.5242 81.1954 30.5017 81.1768 30.4825C81.1549 30.4632 81.13 30.4504 81.102 30.444C81.074 30.4375 81.0397 30.4343 81.0054 30.4343C80.9307 30.4343 80.8746 30.4536 80.831 30.4921C80.7905 30.5274 80.7655 30.582 80.7655 30.6526H80.7687Z" fill="white"/>
<path d="M85.814 31.0891C85.8639 31.0955 85.9075 31.1083 85.9449 31.1276C85.9822 31.1468 86.0165 31.1725 86.0414 31.2014C86.0695 31.2303 86.0913 31.2688 86.1069 31.3073C86.1224 31.349 86.1287 31.3972 86.1287 31.4485C86.1287 31.487 86.1224 31.5256 86.1131 31.5673C86.1006 31.609 86.0819 31.6507 86.057 31.6892C86.0321 31.7278 86.0009 31.7631 85.9573 31.7952C85.9168 31.8273 85.867 31.8561 85.8078 31.8754C85.7611 31.8914 85.7112 31.9011 85.652 31.9075C85.596 31.9139 85.5274 31.9171 85.4495 31.9171H85.0508V30.3027H85.5336C85.5617 30.3027 85.5897 30.306 85.6146 30.3092C85.6396 30.3092 85.6614 30.3124 85.6832 30.3188C85.705 30.322 85.7237 30.3252 85.7424 30.3284C85.7922 30.3445 85.8358 30.3637 85.8763 30.3862C85.9168 30.4087 85.9511 30.4375 85.976 30.4696C86.0041 30.5017 86.0259 30.5402 86.0383 30.582C86.0539 30.6237 86.0632 30.6686 86.0632 30.72C86.0632 30.7585 86.057 30.797 86.0508 30.8323C86.0414 30.8676 86.029 30.9029 86.0072 30.9318C85.9885 30.9607 85.9604 30.9896 85.9293 31.012C85.8981 31.0377 85.8607 31.057 85.814 31.073V31.0794V31.0891ZM85.5336 31.0056C85.571 31.0056 85.6022 31.0056 85.6302 30.9992C85.6583 30.996 85.6832 30.9896 85.7019 30.9864C85.7611 30.9639 85.8047 30.935 85.8296 30.8901C85.8576 30.8484 85.8701 30.797 85.8701 30.7392C85.8701 30.6782 85.8545 30.6301 85.8265 30.5916C85.8016 30.5531 85.7548 30.5274 85.6956 30.5081C85.6645 30.4985 85.6333 30.4953 85.5928 30.4889C85.5555 30.4857 85.5087 30.4825 85.4589 30.4825H85.2408V31.0024H85.5305L85.5336 31.0056ZM85.2439 31.1821V31.7438H85.4745C85.5305 31.7438 85.5804 31.7438 85.6271 31.7342C85.6738 31.731 85.7112 31.7213 85.7455 31.7085C85.7797 31.6957 85.8109 31.6828 85.8358 31.6636C85.8639 31.6443 85.8826 31.625 85.895 31.6026C85.9106 31.5801 85.923 31.5576 85.9293 31.5288C85.9355 31.5031 85.9386 31.4774 85.9386 31.4485C85.9386 31.4196 85.9386 31.3875 85.9293 31.3619C85.9199 31.3362 85.9106 31.3105 85.895 31.2913C85.8794 31.2688 85.8576 31.2495 85.8327 31.2335C85.8047 31.2174 85.7735 31.2046 85.7361 31.195C85.7112 31.1918 85.6863 31.1853 85.6551 31.1853C85.6271 31.1821 85.5866 31.1789 85.543 31.1789H85.2439V31.1821Z" fill="white"/>
<path d="M87.8658 31.7474H88.6696V31.9239H87.6758V30.3096H88.6259V30.4861H87.8689V31.006H88.5449V31.1825H87.8689V31.7442L87.8658 31.7474Z" fill="white"/>
<path d="M90.0332 31.9239L90.6718 30.3096H90.8369L91.4787 31.9239H91.27L91.083 31.4393H90.4288L90.2419 31.9239H90.0363H90.0332ZM90.7528 30.5599C90.6812 30.7621 90.6158 30.945 90.5503 31.1087L90.4911 31.2596H91.0114L90.9522 31.1087C90.8868 30.9418 90.8214 30.7557 90.7559 30.5599H90.7528Z" fill="white"/>
<path d="M93.5227 31.7792C93.5788 31.7792 93.6286 31.7728 93.6754 31.76C93.719 31.7471 93.7563 31.7279 93.7906 31.7022C93.8249 31.6765 93.8498 31.6445 93.8716 31.6124C93.8934 31.5771 93.9121 31.5385 93.9215 31.4968C93.9308 31.4679 93.9339 31.439 93.937 31.4069C93.9402 31.3749 93.9433 31.3428 93.9433 31.3107V30.3125H94.1333V31.3075C94.1333 31.346 94.1333 31.3845 94.1271 31.4262C94.1239 31.4679 94.1177 31.5064 94.1115 31.5417C94.0959 31.6027 94.0741 31.6573 94.043 31.7086C94.0149 31.76 93.9744 31.8017 93.9277 31.8402C93.881 31.8787 93.8249 31.9076 93.7563 31.9269C93.6878 31.9494 93.6099 31.959 93.5196 31.959C93.4292 31.959 93.3576 31.9494 93.2922 31.9301C93.2268 31.9108 93.1738 31.8852 93.1271 31.8499C93.0803 31.8178 93.043 31.776 93.0118 31.7279C92.9838 31.6798 92.9588 31.6284 92.9433 31.577C92.9308 31.5353 92.9246 31.4936 92.9183 31.4455C92.9121 31.4005 92.9121 31.3556 92.9121 31.3139V30.3189H93.1021V31.3171C93.1021 31.3524 93.1053 31.3909 93.1084 31.4294C93.1146 31.4679 93.1208 31.5032 93.1333 31.5353C93.1613 31.6123 93.2049 31.6765 93.2704 31.7183C93.3358 31.7632 93.4199 31.7857 93.5227 31.7857V31.7792Z" fill="white"/>
<path d="M96.2857 31.9239H96.0956V30.4861H95.5723V30.3096H96.8121V30.4861H96.2888V31.9239H96.2857Z" fill="white"/>
<path d="M98.8617 31.2756V31.9239H98.6717V31.2756L98.1016 30.3096H98.3103L98.762 31.0927H98.7682L99.2231 30.3096H99.4287L98.8586 31.2756H98.8617Z" fill="white"/>
<path d="M72.8972 9.5631C72.8972 9.5631 72.8598 9.99957 72.9314 10.2531C72.9314 10.2531 73.2181 11.017 73.38 11.2256C73.38 11.2256 73.5763 11.4792 73.6168 11.8354C73.6168 11.8354 73.7508 12.4452 73.5296 13.2604C73.5296 13.2604 73.4081 13.6423 73.2617 13.9633C73.2617 13.9633 72.9719 14.5025 72.9065 15.0032C72.9065 15.0032 72.7695 15.5584 73.0093 16.0784C73.0093 16.0784 73.486 16.8615 73.486 17.2274C73.486 17.2274 73.5888 17.9495 73.0374 18.4213C73.0374 18.4213 72.9626 18.4438 73.0187 19.0439C73.0187 19.0439 73.0592 19.5575 72.8567 21.037C72.8567 21.037 72.8442 21.2585 72.7975 21.4767C72.7975 21.4767 72.7913 21.7848 72.8878 22.0127C72.8878 22.0127 72.9439 22.17 72.9564 22.4299C72.9564 22.4299 73.3053 23.2452 73.3614 23.7202C73.3614 23.7202 73.4081 24.3268 73.324 25.2864C73.324 25.2864 73.2368 26.2557 73.3489 26.5253C73.3489 26.5253 73.4829 26.7692 73.5389 26.9264C73.5389 26.9264 73.6355 27.2506 73.5202 27.3694C73.5202 27.3694 73.3645 27.5491 72.9595 27.4528C72.9595 27.4528 72.4081 27.334 71.9377 27.4656C71.9377 27.4656 71.6355 27.5555 71.1464 27.4913C71.1464 27.4913 70.8318 27.5138 70.7227 27.4688C70.7227 27.4688 70.6293 27.4432 70.6106 27.3758C70.5888 27.318 70.6168 27.2217 70.704 27.2153C70.704 27.2153 70.8006 27.2346 70.8847 27.2217C70.8847 27.2217 71.1402 27.2089 71.2212 27.1319C71.2212 27.1319 71.6853 26.8173 71.8785 26.7339C71.8785 26.7339 72.2305 26.583 72.3271 26.1337C72.3271 26.1273 72.3271 26.1209 72.3271 26.1144C72.4174 25.6523 72.1838 24.9205 72.1184 24.6605C72.1184 24.6605 71.7695 23.4217 71.7695 22.8215C71.7695 22.8215 71.7508 22.5615 71.6106 22.1796C71.6106 22.1796 71.4735 21.8394 71.4735 21.6436C71.4735 21.6436 71.4953 21.3419 71.5327 21.2585C71.5327 21.2585 71.5514 21.1269 71.4673 21.0306C71.4673 21.0306 70.8723 18.9156 70.9938 18.264C70.9938 18.264 71.0311 17.4617 70.9938 17.1407C70.9938 17.1407 70.9283 16.5277 70.866 16.3255C70.866 16.3255 70.8162 15.7991 70.8785 15.5103C70.8785 15.5103 70.9096 15.1701 70.838 14.8588C70.838 14.8588 70.8318 13.9505 70.8972 13.7547C70.8972 13.7547 70.9159 13.4883 70.866 13.2797C70.866 13.2797 70.8473 12.7052 71.1402 12.3457C71.1402 12.3457 71.3863 11.5112 71.7601 11.1389C71.7601 11.1389 71.785 10.8854 71.729 10.7987C71.729 10.7987 71.6604 10.6351 71.6137 10.4842C71.6137 10.4842 71.6137 10.327 71.5202 10.2307C71.5202 10.2307 71.352 10.1633 71.2648 10.2114C71.2648 10.2114 71.0872 10.2499 71.0436 10.067C71.0436 10.067 70.9875 9.95144 71.0561 9.87762C71.0561 9.87762 71.0747 9.79097 71.0436 9.7653C71.0436 9.7653 70.9813 9.71395 70.9969 9.68827L71.0592 9.65616C71.0592 9.65616 71.0062 9.64011 70.9751 9.61444C70.9751 9.61444 71.0093 9.52458 71 9.43792C71 9.43792 70.9782 9.38015 70.9096 9.37694C70.9096 9.37694 70.81 9.3962 70.7881 9.37694C70.7881 9.37694 70.729 9.34485 70.7476 9.28708C70.7476 9.28708 70.7476 9.1972 70.8816 9.06882C70.8816 9.06882 71.0124 8.91477 71.0374 8.83132C71.0374 8.83132 71.0716 8.77356 71.0467 8.719V8.65802C71.0156 8.59704 71.0218 8.59703 71.0342 8.53605C71.0342 8.53605 71.0903 8.29856 71.0467 8.18302C71.0467 8.18302 71.0498 8.15412 71.0156 8.10919C71.0156 8.10919 70.9938 7.97439 71.0654 7.89094C71.0654 7.89094 71.2367 7.64382 71.5888 7.56038C71.5888 7.56038 72.1339 7.3678 72.2523 7.43841C72.2523 7.43841 72.4797 7.39989 72.6043 7.57321C72.6043 7.57321 72.9906 7.66629 73.0934 8.06106C73.0934 8.06106 73.2897 8.2472 73.2243 8.73183C73.2243 8.73183 73.2336 9.08167 72.919 9.44435C72.919 9.44435 72.8909 9.47323 72.8847 9.5631H72.8972Z" fill="white"/>
</g>
<defs>
<clipPath id="clip0_151_59">
<rect width="100" height="33" fill="white" transform="translate(0 1)"/>
</clipPath>
</defs>
</svg>
