<svg width="44" height="44" viewBox="0 0 44 44" fill="none" xmlns="http://www.w3.org/2000/svg">
<g clip-path="url(#clip0_151_792)">
<path d="M12.8334 21.9999H31.1667M12.8334 21.9999C12.8334 27.0625 16.9374 31.1666 22 31.1666M12.8334 21.9999C12.8334 16.9373 16.9374 12.8333 22 12.8333M31.1667 21.9999C31.1667 27.0625 27.0627 31.1666 22 31.1666M31.1667 21.9999C31.1667 16.9373 27.0627 12.8333 22 12.8333M22 12.8333C24.2929 15.3434 25.5959 18.6009 25.6667 21.9999C25.5959 25.3989 24.2929 28.6564 22 31.1666M22 12.8333C19.7072 15.3434 18.4042 18.6009 18.3334 21.9999C18.4042 25.3989 19.7072 28.6564 22 31.1666" stroke="white" stroke-width="1.7" stroke-linecap="round" stroke-linejoin="round"/>
</g>
<defs>
<clipPath id="clip0_151_792">
<rect width="22" height="22" fill="white" transform="translate(11 11)"/>
</clipPath>
</defs>
</svg>
