<svg width="24" height="24" viewBox="0 0 24 24" fill="none" xmlns="http://www.w3.org/2000/svg">
<path d="M18.9268 10.1253C18.7985 9.1421 18.6701 8.42109 18.2851 8.1589C17.9001 7.83117 14.5632 7.76562 11.9963 7.76562C9.42948 7.76562 6.09258 7.83117 5.70755 8.1589C5.32253 8.42109 5.19418 9.1421 5.06584 10.1253C4.9375 11.1085 4.9375 11.6984 4.9375 12.3539C4.9375 13.0093 4.9375 13.5992 5.06584 14.5824C5.19418 15.5656 5.32253 16.2866 5.70755 16.5488C6.09258 16.8765 9.42948 16.9421 11.9963 16.9421C14.5632 16.9421 17.9001 16.8765 18.2851 16.5488C18.6701 16.2866 18.7985 15.5656 18.9268 14.5824C19.0551 13.5992 19.0551 13.0093 19.0551 12.3539C19.0551 11.6984 19.0551 11.1085 18.9268 10.1253ZM10.7129 14.7135V9.9942L14.5632 12.3539L10.7129 14.7135Z" fill="black"/>
<circle cx="12" cy="12" r="11.5" stroke="black"/>
</svg>
