<svg width="44" height="44" viewBox="0 0 44 44" fill="none" xmlns="http://www.w3.org/2000/svg">
<path d="M25.7512 20.5V16C25.7512 15.0054 25.3561 14.0516 24.6529 13.3483C23.9496 12.6451 22.9958 12.25 22.0012 12.25C21.0066 12.25 20.0528 12.6451 19.3496 13.3483C18.6463 14.0516 18.2512 15.0054 18.2512 16V20.5M29.6072 18.507L30.8702 30.507C30.9402 31.172 30.4202 31.75 29.7512 31.75H14.2512C14.0934 31.7502 13.9374 31.7171 13.7932 31.6531C13.649 31.589 13.5199 31.4953 13.4142 31.3781C13.3086 31.2608 13.2288 31.1227 13.1801 30.9726C13.1313 30.8226 13.1147 30.6639 13.1312 30.507L14.3952 18.507C14.4244 18.2306 14.5548 17.9747 14.7615 17.7888C14.9681 17.6028 15.2362 17.4999 15.5142 17.5H28.4882C29.0642 17.5 29.5472 17.935 29.6072 18.507ZM18.6262 20.5C18.6262 20.5995 18.5867 20.6948 18.5164 20.7652C18.446 20.8355 18.3507 20.875 18.2512 20.875C18.1517 20.875 18.0564 20.8355 17.986 20.7652C17.9157 20.6948 17.8762 20.5995 17.8762 20.5C17.8762 20.4005 17.9157 20.3052 17.986 20.2348C18.0564 20.1645 18.1517 20.125 18.2512 20.125C18.3507 20.125 18.446 20.1645 18.5164 20.2348C18.5867 20.3052 18.6262 20.4005 18.6262 20.5ZM26.1262 20.5C26.1262 20.5995 26.0867 20.6948 26.0164 20.7652C25.946 20.8355 25.8507 20.875 25.7512 20.875C25.6517 20.875 25.5564 20.8355 25.486 20.7652C25.4157 20.6948 25.3762 20.5995 25.3762 20.5C25.3762 20.4005 25.4157 20.3052 25.486 20.2348C25.5564 20.1645 25.6517 20.125 25.7512 20.125C25.8507 20.125 25.946 20.1645 26.0164 20.2348C26.0867 20.3052 26.1262 20.4005 26.1262 20.5Z" stroke="white" stroke-width="1.5" stroke-linecap="round" stroke-linejoin="round"/>
</svg>
