<svg width="40" height="34" viewBox="0 0 40 34" fill="none" xmlns="http://www.w3.org/2000/svg">
<path d="M19.5469 14.4375H17.6406V0.21875H19.5469V14.4375ZM16.5781 13.7812H14.7031V7.0625H13.5547C13.4974 7.98958 13.3307 8.78906 13.0547 9.46094C12.7839 10.1328 12.4245 10.6484 11.9766 11.0078C11.5286 11.3672 11.0156 11.5469 10.4375 11.5469C9.81771 11.5469 9.27344 11.3385 8.80469 10.9219C8.34115 10.5052 7.98177 9.90885 7.72656 9.13281C7.47135 8.35156 7.34375 7.43229 7.34375 6.375C7.34375 5.32292 7.47135 4.41146 7.72656 3.64062C7.98177 2.86458 8.34115 2.27083 8.80469 1.85938C9.27344 1.44271 9.81771 1.23438 10.4375 1.23438C11.0052 1.23438 11.5078 1.40365 11.9453 1.74219C12.388 2.08073 12.7448 2.57031 13.0156 3.21094C13.2917 3.84635 13.4661 4.60417 13.5391 5.48438H14.7031V0.421875H16.5781V13.7812ZM10.4375 3.10938C10.0312 3.10938 9.71875 3.38542 9.5 3.9375C9.28646 4.48958 9.18229 5.30208 9.1875 6.375C9.18229 7.45312 9.28646 8.26823 9.5 8.82031C9.71875 9.36719 10.0312 9.63542 10.4375 9.625C10.849 9.63542 11.1667 9.36719 11.3906 8.82031C11.6198 8.26823 11.7344 7.45312 11.7344 6.375C11.7344 5.30208 11.6198 4.48958 11.3906 3.9375C11.1667 3.38542 10.849 3.10938 10.4375 3.10938ZM32.3906 5.54688H34.0156V7.20312H32.3906V14.4375H30.3594V9.99219L29.1875 11.3438C28.3438 10.6927 27.737 9.6875 27.3672 8.32812C26.9766 9.75521 26.3281 10.7969 25.4219 11.4531C24.5312 10.8073 23.8906 9.78385 23.5 8.38281C23.1406 9.66927 22.5677 10.6302 21.7812 11.2656L20.4375 9.92188C21.0104 9.46875 21.4505 8.91667 21.7578 8.26562C22.0703 7.60938 22.2786 6.91927 22.3828 6.19531C22.4922 5.46615 22.5469 4.67188 22.5469 3.8125V1.34375H24.4219V3.8125C24.4115 4.78125 24.4766 5.68229 24.6172 6.51562C24.763 7.34896 25.0365 8.09896 25.4375 8.76562C25.8229 8.10938 26.0833 7.3724 26.2188 6.55469C26.3542 5.73177 26.4271 4.81771 26.4375 3.8125V1.34375H28.3125V3.8125C28.3125 4.67708 28.362 5.47135 28.4609 6.19531C28.5651 6.91406 28.7656 7.59635 29.0625 8.24219C29.3646 8.88802 29.7969 9.43229 30.3594 9.875V0.21875H32.3906V5.54688ZM12.6484 27.4375H10.7422V19.2344H12.6484V27.4375ZM9.75781 27.2812H7.88281V24.1875H6.58594V26.5625H0.929688V20.25H6.58594V22.5625H7.88281V19.4688H9.75781V27.2812ZM2.80469 25.0938H4.72656V21.7656H2.80469V25.0938ZM12.6484 33.2812H2.96094V28H12.6484V33.2812ZM4.91406 31.6875H10.6797V29.5469H4.91406V31.6875ZM26.0078 33.4688H24.0391V25.8438H21.3984V30.0938H14.5391V20.3125H16.5234V23.7656H19.4453V20.3125H21.3984V24.2344H24.0391V19.2188H26.0078V33.4688ZM19.4453 28.5V25.3281H16.5234V28.5H19.4453ZM33.0391 20.9688C33.0339 21.5469 33.151 22.1016 33.3906 22.6328C33.6302 23.1589 34 23.6302 34.5 24.0469C35.0052 24.4583 35.6328 24.7708 36.3828 24.9844L35.4297 26.5312C34.6276 26.2969 33.9401 25.9453 33.3672 25.4766C32.7943 25.0078 32.3411 24.4505 32.0078 23.8047C31.6797 24.5078 31.2188 25.1172 30.625 25.6328C30.0312 26.1432 29.3203 26.5208 28.4922 26.7656L27.5391 25.2031C28.2995 24.9792 28.9349 24.6484 29.4453 24.2109C29.9609 23.7682 30.3411 23.2682 30.5859 22.7109C30.8359 22.1484 30.9609 21.5677 30.9609 20.9688V19.6406H33.0391V20.9688ZM39.4922 26.8594H37.4922V19.2188H39.4922V26.8594ZM31.9453 28.8125H37.5078V27.4844H39.4922V33.2812H29.9766V27.4844H31.9453V28.8125ZM37.5078 31.6719V30.3594H31.9453V31.6719H37.5078Z" fill="url(#paint0_linear_151_5018)"/>
<defs>
<linearGradient id="paint0_linear_151_5018" x1="0" y1="17" x2="41" y2="17" gradientUnits="userSpaceOnUse">
<stop stop-color="#FFB4BA"/>
<stop offset="1" stop-color="#7ECBFF"/>
</linearGradient>
</defs>
</svg>
