<svg width="24" height="24" viewBox="0 0 24 24" fill="none" xmlns="http://www.w3.org/2000/svg">
<path d="M15.2863 9.80754V5.88447C15.2863 5.01741 14.9525 4.18587 14.3582 3.57277C13.7639 2.95967 12.958 2.61523 12.1176 2.61523C11.2772 2.61523 10.4712 2.95967 9.87692 3.57277C9.28267 4.18587 8.94882 5.01741 8.94882 5.88447V9.80754M18.5446 8.07005L19.6118 18.5316C19.671 19.1113 19.2316 19.6152 18.6663 19.6152H5.56883C5.43549 19.6154 5.30362 19.5866 5.18178 19.5307C5.05993 19.4749 4.95084 19.3932 4.86159 19.291C4.77233 19.1888 4.70491 19.0684 4.66371 18.9375C4.62251 18.8067 4.60845 18.6684 4.62243 18.5316L5.69051 8.07005C5.71515 7.82906 5.82539 7.606 5.99999 7.44389C6.17459 7.28179 6.40117 7.19211 6.63606 7.19216H17.5991C18.0858 7.19216 18.4939 7.57139 18.5446 8.07005ZM9.26569 9.80754C9.26569 9.89425 9.23231 9.9774 9.17288 10.0387C9.11346 10.1 9.03286 10.1345 8.94882 10.1345C8.86478 10.1345 8.78418 10.1 8.72476 10.0387C8.66533 9.9774 8.63194 9.89425 8.63194 9.80754C8.63194 9.72084 8.66533 9.63768 8.72476 9.57637C8.78418 9.51506 8.86478 9.48062 8.94882 9.48062C9.03286 9.48062 9.11346 9.51506 9.17288 9.57637C9.23231 9.63768 9.26569 9.72084 9.26569 9.80754ZM15.6032 9.80754C15.6032 9.89425 15.5698 9.9774 15.5104 10.0387C15.4509 10.1 15.3703 10.1345 15.2863 10.1345C15.2023 10.1345 15.1217 10.1 15.0622 10.0387C15.0028 9.9774 14.9694 9.89425 14.9694 9.80754C14.9694 9.72084 15.0028 9.63768 15.0622 9.57637C15.1217 9.51506 15.2023 9.48062 15.2863 9.48062C15.3703 9.48062 15.4509 9.51506 15.5104 9.57637C15.5698 9.63768 15.6032 9.72084 15.6032 9.80754Z" stroke="black" stroke-linecap="round" stroke-linejoin="round"/>
</svg>
